SplineFontDB: 3.2
FontName: GotoMono-Italic
FullName: Goto Mono Italic
FamilyName: Goto Mono
Weight: Book
Copyright: Copyright 2015 Google LLC. All Rights Reserved.
Version: 2.006
ItalicAngle: -13
UnderlinePosition: -125
UnderlineWidth: 50
Ascent: 800
Descent: 200
InvalidEm: 0
sfntRevision: 0x00020189
LayerCount: 2
Layer: 0 1 "Back" 1
Layer: 1 1 "Fore" 0
XUID: [1021 328 1927437058 9118928]
StyleMap: 0x0001
FSType: 0
OS2Version: 3
OS2_WeightWidthSlopeOnly: 0
OS2_UseTypoMetrics: 0
CreationTime: 1604030168
ModificationTime: 1609845363
PfmFamily: 49
TTFWeight: 400
TTFWidth: 5
LineGap: 0
VLineGap: 0
Panose: 2 11 5 9 4 5 4 2 2 4
OS2TypoAscent: 1069
OS2TypoAOffset: 0
OS2TypoDescent: -293
OS2TypoDOffset: 0
OS2TypoLinegap: 0
OS2WinAscent: 1069
OS2WinAOffset: 0
OS2WinDescent: 293
OS2WinDOffset: 0
HheadAscent: 1069
HheadAOffset: 0
HheadDescent: -293
HheadDOffset: 0
OS2SubXSize: 650
OS2SubYSize: 600
OS2SubXOff: 0
OS2SubYOff: 75
OS2SupXSize: 650
OS2SupYSize: 600
OS2SupXOff: 0
OS2SupYOff: 350
OS2StrikeYSize: 50
OS2StrikeYPos: 322
OS2CapHeight: 714
OS2XHeight: 536
OS2Vendor: 'GOOG'
OS2CodePages: 0000019f.dfd70000
OS2UnicodeRanges: e00002ff.0200fcff.08000039.00100000
Lookup: 1 0 0 "'aalt' Access All Alternates lookup 0" { "'aalt' Access All Alternates lookup 0 subtable"  } ['aalt' ('DFLT' <'dflt' > 'cyrl' <'MKD ' 'SRB ' 'dflt' > 'grek' <'dflt' > 'latn' <'APPH' 'CAT ' 'IPPH' 'MAH ' 'MOL ' 'NAV ' 'ROM ' 'dflt' > ) ]
Lookup: 3 0 0 "'aalt' Access All Alternates lookup 1" { "'aalt' Access All Alternates lookup 1 subtable"  } ['aalt' ('DFLT' <'dflt' > 'cyrl' <'MKD ' 'SRB ' 'dflt' > 'grek' <'dflt' > 'latn' <'APPH' 'CAT ' 'IPPH' 'MAH ' 'MOL ' 'NAV ' 'ROM ' 'dflt' > ) ]
Lookup: 4 0 0 "'ccmp' Glyph Composition/Decomposition lookup 2" { "'ccmp' Glyph Composition/Decomposition lookup 2 subtable"  } ['ccmp' ('DFLT' <'dflt' > 'cyrl' <'MKD ' 'SRB ' 'dflt' > 'grek' <'dflt' > 'latn' <'APPH' 'CAT ' 'IPPH' 'MAH ' 'MOL ' 'NAV ' 'ROM ' 'dflt' > ) ]

StartChar: .notdef
Encoding: 1114112 -1 0
Width: 530
Flags: W
LayerCount: 2
Fore
SplineSet
60 0 m 1,0,-1
 224.83984375 714 l 1,1,-1
 635.83984375 714 l 1,2,-1
 471 0 l 1,3,-1
 60 0 l 1,0,-1
122.774414062 51 m 1,4,-1
 431.774414062 51 l 1,5,-1
 573.065429688 663 l 1,6,-1
 264.065429688 663 l 1,7,-1
 122.774414062 51 l 1,4,-1
EndSplineSet
Validated: 524289
EndChar

StartChar: exclam
Encoding: 33 33 4
Width: 530
Flags: W
LayerCount: 2
Fore
SplineSet
281.404296875 201 m 1,0,-1
 381.83984375 714 l 1,1,-1
 485.83984375 714 l 1,2,-1
 351.404296875 201 l 1,3,-1
 281.404296875 201 l 1,0,-1
266.4609375 -11 m 0,4,5
 240.4609375 -11 240.4609375 -11 227.654296875 5 c 0,6,7
 219.80276684 14.8100715388 219.80276684 14.8100715388 219.80276684 31.7627702976 c 0,8,9
 219.80276684 42.4595314911 219.80276684 42.4595314911 222.928710938 56 c 256,10,11
 231.008789062 91 231.008789062 91 251.087890625 106.5 c 128,-1,12
 271.166015625 122 271.166015625 122 297.166015625 122 c 0,13,14
 322.166015625 122 322.166015625 122 335.703125 107 c 0,15,16
 344.090529915 97.7062083762 344.090529915 97.7062083762 344.090529915 80.3507908959 c 0,17,18
 344.090529915 69.6949001028 344.090529915 69.6949001028 340.928710938 56 c 0,19,20
 332.848632812 21 332.848632812 21 312.154296875 5 c 128,-1,21
 291.4609375 -11 291.4609375 -11 266.4609375 -11 c 0,4,5
EndSplineSet
Validated: 524289
Substitution2: "'smcp' Lowercase to Small Capitals lookup 35 subtable" exclam.sc
Substitution2: "'c2sc' Capitals to Small Capitals lookup 34 subtable" exclam.sc
Substitution2: "'aalt' Access All Alternates lookup 0 subtable" exclam.sc
EndChar

StartChar: quotedbl
Encoding: 34 34 5
Width: 530
Flags: W
LayerCount: 2
Fore
SplineSet
428.276367188 456 m 1,0,-1
 469.83984375 714 l 1,1,-1
 563.83984375 714 l 1,2,-1
 487.276367188 456 l 1,3,-1
 428.276367188 456 l 1,0,-1
254.276367188 456 m 1,4,-1
 295.83984375 714 l 1,5,-1
 389.83984375 714 l 1,6,-1
 313.276367188 456 l 1,7,-1
 254.276367188 456 l 1,4,-1
EndSplineSet
Validated: 524289
EndChar

StartChar: numbersign
Encoding: 35 35 6
Width: 530
Flags: W
LayerCount: 2
Fore
SplineSet
97 0 m 1,0,-1
 175.63671875 215 l 1,1,-1
 82.63671875 215 l 1,2,-1
 97.6435546875 280 l 1,3,-1
 200.643554688 280 l 1,4,-1
 262.736328125 445 l 1,5,-1
 162.736328125 445 l 1,6,-1
 177.743164062 510 l 1,7,-1
 286.743164062 510 l 1,8,-1
 362.83984375 714 l 1,9,-1
 427.83984375 714 l 1,10,-1
 351.743164062 510 l 1,11,-1
 457.743164062 510 l 1,12,-1
 534.83984375 714 l 1,13,-1
 597.83984375 714 l 1,14,-1
 521.743164062 510 l 1,15,-1
 614.743164062 510 l 1,16,-1
 599.736328125 445 l 1,17,-1
 497.736328125 445 l 1,18,-1
 436.643554688 280 l 1,19,-1
 535.643554688 280 l 1,20,-1
 520.63671875 215 l 1,21,-1
 411.63671875 215 l 1,22,-1
 331 0 l 1,23,-1
 265 0 l 1,24,-1
 346.63671875 215 l 1,25,-1
 239.63671875 215 l 1,26,-1
 161 0 l 1,27,-1
 97 0 l 1,0,-1
265.643554688 280 m 1,28,-1
 370.643554688 280 l 1,29,-1
 432.736328125 445 l 1,30,-1
 326.736328125 445 l 1,31,-1
 265.643554688 280 l 1,28,-1
EndSplineSet
Validated: 524289
EndChar

StartChar: dollar
Encoding: 36 36 7
Width: 530
Flags: W
LayerCount: 2
Fore
SplineSet
249.311523438 36 m 1,0,1
 203.541992188 37 203.541992188 37 165.120117188 46 c 128,-1,2
 126.697265625 55 126.697265625 55 100.9296875 69 c 1,3,-1
 119.399414062 149 l 1,4,5
 145.474609375 132 145.474609375 132 183.704101562 120 c 128,-1,6
 221.93359375 108 221.93359375 108 265.703125 107 c 1,7,-1
 317.87890625 333 l 1,8,9
 238.266601562 365 238.266601562 365 207.732421875 406 c 0,10,11
 187.961211713 432.547941518 187.961211713 432.547941518 187.961211713 472.093259099 c 0,12,13
 187.961211713 493.620775348 187.961211713 493.620775348 193.8203125 519 c 0,14,15
 210.211914062 590 210.211914062 590 266.486328125 634.5 c 128,-1,16
 322.759765625 679 322.759765625 679 399.14453125 685 c 1,17,-1
 416.459960938 760 l 1,18,-1
 470.459960938 760 l 1,19,-1
 453.606445312 687 l 1,20,21
 495.14453125 685 495.14453125 685 528.567382812 676 c 128,-1,22
 561.989257812 667 561.989257812 667 591.294921875 651 c 1,23,-1
 551.827148438 584 l 1,24,25
 501.830078125 610 501.830078125 610 436.984375 615 c 1,26,-1
 385.731445312 393 l 1,27,28
 463.34375 361 463.34375 361 496.955078125 322.5 c 0,29,30
 519.444525653 296.739526429 519.444525653 296.739526429 519.444525653 255.981132837 c 0,31,32
 519.444525653 235.824568907 519.444525653 235.824568907 513.944335938 212 c 0,33,34
 498.245117188 144 498.245117188 144 443.125 98 c 128,-1,35
 388.004882812 52 388.004882812 52 304.234375 40 c 1,36,-1
 281.609375 -58 l 1,37,-1
 227.609375 -58 l 1,38,-1
 249.311523438 36 l 1,0,1
382.752929688 614 m 1,39,40
 337.598632812 609 337.598632812 609 308.711914062 583.5 c 128,-1,41
 279.82421875 558 279.82421875 558 271.282226562 521 c 0,42,43
 267.44506219 504.379115185 267.44506219 504.379115185 267.44506219 490.812056524 c 0,44,45
 267.44506219 470.095954564 267.44506219 470.095954564 276.391601562 456.5 c 0,46,47
 291.197265625 434 291.197265625 434 336.579101562 414 c 1,48,-1
 382.752929688 614 l 1,39,40
320.625976562 111 m 1,49,50
 370.473632812 119 370.473632812 119 400.091796875 145.5 c 128,-1,51
 429.708984375 172 429.708984375 172 438.250976562 209 c 0,52,53
 441.468901038 222.93828979 441.468901038 222.93828979 441.468901038 234.832914388 c 0,54,55
 441.468901038 256.220017056 441.468901038 256.220017056 431.065429688 271 c 0,56,57
 414.875 294 414.875 294 367.26171875 313 c 1,58,-1
 320.625976562 111 l 1,49,50
EndSplineSet
Validated: 524289
EndChar

StartChar: percent
Encoding: 37 37 8
Width: 530
Flags: W
LayerCount: 2
Fore
SplineSet
227.422851562 383 m 0,0,1
 167.422851562 383 167.422851562 383 138.196289062 427.5 c 0,2,3
 120.373427793 454.636866557 120.373427793 454.636866557 120.373427793 495.347245406 c 0,4,5
 120.373427793 521.395195305 120.373427793 521.395195305 127.669921875 553 c 256,6,7
 146.370117188 634 146.370117188 634 194.028320312 678 c 128,-1,8
 241.686523438 722 241.686523438 722 307.686523438 722 c 0,9,10
 366.686523438 722 366.686523438 722 396.028320312 678 c 0,11,12
 413.948914456 651.126862486 413.948914456 651.126862486 413.948914456 610.452007909 c 0,13,14
 413.948914456 584.528996849 413.948914456 584.528996849 406.669921875 553 c 256,15,16
 387.969726562 472 387.969726562 472 339.696289062 427.5 c 128,-1,17
 291.422851562 383 291.422851562 383 227.422851562 383 c 0,0,1
241.120117188 438 m 0,18,19
 309.120117188 438 309.120117188 438 335.669921875 553 c 0,20,21
 343.314044174 586.110646174 343.314044174 586.110646174 343.314044174 609.300603167 c 0,22,23
 343.314044174 627.432928301 343.314044174 627.432928301 338.640625 639.5 c 0,24,25
 327.989257812 667 327.989257812 667 293.989257812 667 c 0,26,27
 257.989257812 667 257.989257812 667 235.140625 639.5 c 128,-1,28
 212.291015625 612 212.291015625 612 198.669921875 553 c 0,29,30
 191.292699794 521.045695655 191.292699794 521.045695655 191.292699794 497.970326668 c 0,31,32
 191.292699794 438 191.292699794 438 241.120117188 438 c 0,18,19
62.2421875 118 m 1,33,-1
 552.59765625 596 l 1,34,-1
 630.59765625 596 l 1,35,-1
 140.2421875 118 l 1,36,-1
 62.2421875 118 l 1,33,-1
387.921875 -9 m 0,37,38
 327.921875 -9 327.921875 -9 298.696289062 35.5 c 0,39,40
 280.873427793 62.6368665566 280.873427793 62.6368665566 280.873427793 103.347245406 c 0,41,42
 280.873427793 129.395195305 280.873427793 129.395195305 288.169921875 161 c 256,43,44
 306.870117188 242 306.870117188 242 354.528320312 286 c 128,-1,45
 402.186523438 330 402.186523438 330 468.186523438 330 c 0,46,47
 527.186523438 330 527.186523438 330 556.528320312 286 c 0,48,49
 574.448914456 259.126862486 574.448914456 259.126862486 574.448914456 218.452007909 c 0,50,51
 574.448914456 192.528996849 574.448914456 192.528996849 567.169921875 161 c 256,52,53
 548.469726562 80 548.469726562 80 500.196289062 35.5 c 128,-1,54
 451.921875 -9 451.921875 -9 387.921875 -9 c 0,37,38
401.620117188 46 m 0,55,56
 469.620117188 46 469.620117188 46 496.169921875 161 c 0,57,58
 503.813736626 194.109314021 503.813736626 194.109314021 503.813736626 217.298737132 c 0,59,60
 503.813736626 235.432307383 503.813736626 235.432307383 499.139648438 247.5 c 0,61,62
 488.48828125 275 488.48828125 275 454.48828125 275 c 0,63,64
 418.48828125 275 418.48828125 275 395.639648438 247.5 c 128,-1,65
 372.791015625 220 372.791015625 220 359.169921875 161 c 0,66,67
 351.792699794 129.045695655 351.792699794 129.045695655 351.792699794 105.970326668 c 0,68,69
 351.792699794 46 351.792699794 46 401.620117188 46 c 0,55,56
EndSplineSet
Validated: 524289
EndChar

StartChar: ampersand
Encoding: 38 38 9
Width: 530
Flags: W
LayerCount: 2
Fore
SplineSet
205.69140625 -10 m 0,0,1
 148.69140625 -10 148.69140625 -10 117.34765625 14.5 c 128,-1,2
 86.00390625 39 86.00390625 39 77.3544921875 79.5 c 0,3,4
 73.5622938228 97.2545778482 73.5622938228 97.2545778482 73.5622938228 116.450513879 c 0,5,6
 73.5622938228 141.042462635 73.5622938228 141.042462635 79.7861328125 168 c 0,7,8
 96.8701171875 242 96.8701171875 242 144.375 294 c 128,-1,9
 191.880859375 346 191.880859375 346 253.0390625 390 c 1,10,11
 235.427734375 435 235.427734375 435 226.893554688 482.5 c 0,12,13
 223.224470498 502.923924811 223.224470498 502.923924811 223.224470498 523.625170422 c 0,14,15
 223.224470498 551.068890857 223.224470498 551.068890857 229.672851562 579 c 0,16,17
 244.678710938 644 244.678710938 644 289.4140625 684 c 128,-1,18
 334.1484375 724 334.1484375 724 395.1484375 724 c 256,19,20
 456.1484375 724 456.1484375 724 481.4140625 684 c 0,21,22
 497.264432792 658.905060989 497.264432792 658.905060989 497.264432792 623.970185041 c 0,23,24
 497.264432792 603.220724107 497.264432792 603.220724107 491.672851562 579 c 0,25,26
 477.127929688 516 477.127929688 516 436.084960938 466 c 128,-1,27
 395.041015625 416 395.041015625 416 346.037109375 377 c 1,28,-1
 424.020507812 208 l 1,29,30
 445.870117188 242 445.870117188 242 462.950195312 277 c 128,-1,31
 480.03125 312 480.03125 312 489.1875 343 c 1,32,-1
 568.1875 343 l 1,33,34
 549.952148438 290 549.952148438 290 521.985351562 236 c 128,-1,35
 494.017578125 182 494.017578125 182 457.166992188 135 c 1,36,-1
 519 0 l 1,37,-1
 423 0 l 1,38,-1
 392.69921875 68 l 1,39,40
 352.387695312 32 352.387695312 32 305.0390625 11 c 128,-1,41
 257.69140625 -10 257.69140625 -10 205.69140625 -10 c 0,0,1
306.903320312 580 m 0,42,43
 301.450956333 556.381789248 301.450956333 556.381789248 301.450956333 532.956729423 c 0,44,45
 301.450956333 518.692555179 301.450956333 518.692555179 303.47265625 504.5 c 0,46,47
 308.815429688 467 308.815429688 467 320.120117188 438 c 1,48,49
 348.430664062 461 348.430664062 461 377.625976562 496.5 c 128,-1,50
 406.822265625 532 406.822265625 532 418.134765625 581 c 0,51,52
 422.104490908 598.195808775 422.104490908 598.195808775 422.104490908 611.500882821 c 0,53,54
 422.104490908 627.597904388 422.104490908 627.597904388 416.293945312 638 c 0,55,56
 405.680664062 657 405.680664062 657 380.680664062 657 c 0,57,58
 353.680664062 657 353.680664062 657 334.563476562 637 c 128,-1,59
 315.4453125 617 315.4453125 617 306.903320312 580 c 0,42,43
162.016601562 169 m 0,60,61
 157.621511678 149.962704588 157.621511678 149.962704588 157.621511678 133.944306441 c 0,62,63
 157.621511678 108.733029246 157.621511678 108.733029246 168.508789062 91 c 0,64,65
 186.313476562 62 186.313476562 62 229.313476562 62 c 0,66,67
 265.313476562 62 265.313476562 62 299.431640625 82 c 128,-1,68
 333.548828125 102 333.548828125 102 364.705078125 133 c 1,69,-1
 279.494140625 327 l 1,70,71
 240.336914062 296 240.336914062 296 207.064453125 258 c 128,-1,72
 173.791015625 220 173.791015625 220 162.016601562 169 c 0,60,61
EndSplineSet
Validated: 524289
Substitution2: "'smcp' Lowercase to Small Capitals lookup 35 subtable" ampersand.sc
Substitution2: "'c2sc' Capitals to Small Capitals lookup 34 subtable" ampersand.sc
Substitution2: "'aalt' Access All Alternates lookup 0 subtable" ampersand.sc
EndChar

StartChar: quotesingle
Encoding: 39 39 10
Width: 530
Flags: W
LayerCount: 2
Fore
SplineSet
341.276367188 456 m 1,0,-1
 382.83984375 714 l 1,1,-1
 476.83984375 714 l 1,2,-1
 400.276367188 456 l 1,3,-1
 341.276367188 456 l 1,0,-1
EndSplineSet
Validated: 524289
EndChar

StartChar: parenleft
Encoding: 40 40 11
Width: 530
Flags: W
LayerCount: 2
Fore
SplineSet
277.599609375 -162 m 1,0,1
 225.454101562 -76 225.454101562 -76 215.311523438 36 c 0,2,3
 212.658102369 65.3005541562 212.658102369 65.3005541562 212.658102369 95.4223989442 c 0,4,5
 212.658102369 180.439899244 212.658102369 180.439899244 233.795898438 272 c 0,6,7
 262.654296875 397 262.654296875 397 325.588867188 511.5 c 128,-1,8
 388.5234375 626 388.5234375 626 479.83984375 714 c 1,9,-1
 553.83984375 714 l 1,10,11
 465.4453125 617 465.4453125 617 405.357421875 504 c 128,-1,12
 345.26953125 391 345.26953125 391 318.02734375 273 c 0,13,14
 297.496893634 184.073312816 297.496893634 184.073312816 297.496893634 97.7462165898 c 0,15,16
 297.496893634 70.4935700154 297.496893634 70.4935700154 299.54296875 43.5 c 0,17,18
 308.0703125 -69 308.0703125 -69 350.599609375 -162 c 1,19,-1
 277.599609375 -162 l 1,0,1
EndSplineSet
Validated: 524289
Substitution2: "'smcp' Lowercase to Small Capitals lookup 35 subtable" parenleft.sc
Substitution2: "'c2sc' Capitals to Small Capitals lookup 34 subtable" parenleft.sc
Substitution2: "'sups' Superscript lookup 23 subtable" uni207D
Substitution2: "'subs' Subscript lookup 22 subtable" uni208D
AlternateSubs2: "'aalt' Access All Alternates lookup 1 subtable" uni208D uni207D parenleft.sc
EndChar

StartChar: asterisk
Encoding: 42 42 13
Width: 530
Flags: W
LayerCount: 2
Fore
SplineSet
423.34765625 400 m 1,0,-1
 387.822265625 532 l 1,1,-1
 290.34765625 400 l 1,2,-1
 231.274414062 443 l 1,3,-1
 347.516601562 561 l 1,4,-1
 220.287109375 573 l 1,5,-1
 253.064453125 650 l 1,6,-1
 379.291015625 612 l 1,7,-1
 398.767578125 757 l 1,8,-1
 480.767578125 757 l 1,9,-1
 433.291015625 612 l 1,10,-1
 577.526367188 652 l 1,11,-1
 574.287109375 573 l 1,12,-1
 440.286132812 560 l 1,13,-1
 504.274414062 443 l 1,14,-1
 423.34765625 400 l 1,0,-1
EndSplineSet
Validated: 524289
EndChar

StartChar: plus
Encoding: 43 43 14
Width: 530
Flags: W
LayerCount: 2
Fore
SplineSet
258.704101562 120 m 1,0,-1
 304.416015625 318 l 1,1,-1
 143.416015625 318 l 1,2,-1
 159.345703125 387 l 1,3,-1
 320.345703125 387 l 1,4,-1
 366.51953125 587 l 1,5,-1
 436.51953125 587 l 1,6,-1
 390.345703125 387 l 1,7,-1
 549.345703125 387 l 1,8,-1
 533.416015625 318 l 1,9,-1
 374.416015625 318 l 1,10,-1
 328.704101562 120 l 1,11,-1
 258.704101562 120 l 1,0,-1
EndSplineSet
Validated: 524289
Substitution2: "'sups' Superscript lookup 23 subtable" uni207A
Substitution2: "'subs' Subscript lookup 22 subtable" uni208A
AlternateSubs2: "'aalt' Access All Alternates lookup 1 subtable" uni208A uni207A
EndChar

StartChar: comma
Encoding: 44 44 15
Width: 530
Flags: W
LayerCount: 2
Fore
SplineSet
144.063476562 -134 m 1,0,1
 173.146484375 -73 173.146484375 -73 202.576171875 -4 c 128,-1,2
 232.006835938 65 232.006835938 65 251.473632812 119 c 1,3,-1
 346.473632812 119 l 1,4,-1
 350.93359375 108 l 1,5,6
 323.54296875 50 323.54296875 50 285.767578125 -14 c 128,-1,7
 247.9921875 -78 247.9921875 -78 210.063476562 -134 c 1,8,-1
 144.063476562 -134 l 1,0,1
EndSplineSet
Validated: 524289
EndChar

StartChar: hyphen
Encoding: 45 45 16
Width: 530
Flags: W
LayerCount: 2
Fore
SplineSet
185.330078125 231 m 1,0,-1
 203.569335938 310 l 1,1,-1
 469.569335938 310 l 1,2,-1
 451.330078125 231 l 1,3,-1
 185.330078125 231 l 1,0,-1
EndSplineSet
Validated: 524289
EndChar

StartChar: period
Encoding: 46 46 17
Width: 530
Flags: W
LayerCount: 2
Fore
SplineSet
261.4609375 -11 m 256,0,1
 236.4609375 -11 236.4609375 -11 223.654296875 5 c 0,2,3
 215.80276684 14.8100715388 215.80276684 14.8100715388 215.80276684 31.7627702976 c 0,4,5
 215.80276684 42.4595314911 215.80276684 42.4595314911 218.928710938 56 c 256,6,7
 227.008789062 91 227.008789062 91 247.087890625 106.5 c 128,-1,8
 267.166015625 122 267.166015625 122 292.166015625 122 c 0,9,10
 318.166015625 122 318.166015625 122 331.703125 107 c 0,11,12
 340.090529915 97.7062083762 340.090529915 97.7062083762 340.090529915 80.3507908959 c 0,13,14
 340.090529915 69.6949001028 340.090529915 69.6949001028 336.928710938 56 c 0,15,16
 328.848632812 21 328.848632812 21 307.654296875 5 c 128,-1,17
 286.4609375 -11 286.4609375 -11 261.4609375 -11 c 256,0,1
EndSplineSet
Validated: 524289
EndChar

StartChar: slash
Encoding: 47 47 18
Width: 530
Flags: W
LayerCount: 2
Fore
SplineSet
48.5380859375 -2 m 1,0,-1
 481.301757812 716 l 1,1,-1
 560.301757812 716 l 1,2,-1
 128.538085938 -2 l 1,3,-1
 48.5380859375 -2 l 1,0,-1
EndSplineSet
Validated: 524289
Substitution2: "'frac' Diagonal Fractions lookup 26 subtable" fraction
Substitution2: "'aalt' Access All Alternates lookup 0 subtable" fraction
EndChar

StartChar: zero
Encoding: 48 48 19
Width: 530
Flags: W
LayerCount: 2
Fore
SplineSet
261.69140625 -10 m 0,0,1
 181.69140625 -10 181.69140625 -10 142.849609375 34 c 128,-1,2
 104.0078125 78 104.0078125 78 100.0546875 160.5 c 0,3,4
 99.5421328443 171.19415098 99.5421328443 171.19415098 99.5421328443 182.434396816 c 0,5,6
 99.5421328443 257.906998335 99.5421328443 257.906998335 122.650390625 358 c 0,7,8
 149.431640625 474 149.431640625 474 190.362304688 556 c 128,-1,9
 231.293945312 638 231.293945312 638 290.336914062 681.5 c 128,-1,10
 349.379882812 725 349.379882812 725 431.379882812 725 c 0,11,12
 551.379882812 725 551.379882812 725 582.100585938 628.5 c 0,13,14
 595.413807527 586.681782492 595.413807527 586.681782492 595.413807527 530.309707758 c 0,15,16
 595.413807527 456.597203664 595.413807527 456.597203664 572.650390625 358 c 0,17,18
 546.100585938 243 546.100585938 243 505.0546875 160.5 c 128,-1,19
 464.0078125 78 464.0078125 78 404.349609375 34 c 128,-1,20
 344.69140625 -10 344.69140625 -10 261.69140625 -10 c 0,0,1
209.650390625 358 m 0,21,22
 200.646484375 319 200.646484375 319 194.681640625 284.5 c 128,-1,23
 188.716796875 250 188.716796875 250 186.791015625 220 c 1,24,-1
 499.213867188 603 l 1,25,26
 476.294921875 651 476.294921875 651 414.294921875 651 c 0,27,28
 340.294921875 651 340.294921875 651 291.826171875 577.5 c 128,-1,29
 243.357421875 504 243.357421875 504 209.650390625 358 c 0,21,22
278.775390625 64 m 0,30,31
 353.775390625 64 353.775390625 64 404.12890625 137 c 128,-1,32
 454.482421875 210 454.482421875 210 488.650390625 358 c 0,33,34
 499.270507812 404 499.270507812 404 505.274414062 443 c 128,-1,35
 511.278320312 482 511.278320312 482 512.666015625 514 c 1,36,-1
 194.08984375 126 l 1,37,38
 213.775390625 64 213.775390625 64 278.775390625 64 c 0,30,31
EndSplineSet
Validated: 524289
Substitution2: "'zero' Slashed Zero lookup 37 subtable" zero.slash
Substitution2: "'onum' Oldstyle Figures lookup 33 subtable" zero.osf
Substitution2: "'frac' Diagonal Fractions lookup 27 subtable" zero.numr
Substitution2: "'dnom' Denominators lookup 25 subtable" zero.dnom
Substitution2: "'numr' Numerators lookup 24 subtable" zero.numr
Substitution2: "'sups' Superscript lookup 23 subtable" uni2070
Substitution2: "'subs' Subscript lookup 22 subtable" uni2080
AlternateSubs2: "'aalt' Access All Alternates lookup 1 subtable" uni2070 zero.osf zero.dnom zero.numr uni2080
EndChar

StartChar: one
Encoding: 49 49 20
Width: 530
Flags: W
LayerCount: 2
Fore
SplineSet
111 0 m 1,0,-1
 124.62109375 59 l 1,1,-1
 262.9296875 69 l 1,2,-1
 350.198242188 447 l 2,3,4
 359.89453125 489 359.89453125 489 372.668945312 540 c 128,-1,5
 385.443359375 591 385.443359375 591 395.061523438 624 c 1,6,7
 377.291015625 612 377.291015625 612 364.059570312 604.5 c 128,-1,8
 350.828125 597 350.828125 597 327.2890625 586 c 2,9,-1
 241.130859375 542 l 1,10,-1
 215.90625 606 l 1,11,-1
 426.83984375 714 l 1,12,-1
 496.83984375 714 l 1,13,-1
 347.9296875 69 l 1,14,-1
 348.9296875 69 l 1,15,-1
 474.62109375 59 l 1,16,-1
 461 0 l 1,17,-1
 111 0 l 1,0,-1
EndSplineSet
Validated: 524289
Substitution2: "'onum' Oldstyle Figures lookup 33 subtable" one.osf
Substitution2: "'frac' Diagonal Fractions lookup 27 subtable" one.numr
Substitution2: "'dnom' Denominators lookup 25 subtable" one.dnom
Substitution2: "'numr' Numerators lookup 24 subtable" one.numr
Substitution2: "'sups' Superscript lookup 23 subtable" uni00B9
Substitution2: "'subs' Subscript lookup 22 subtable" uni2081
AlternateSubs2: "'aalt' Access All Alternates lookup 1 subtable" uni00B9 one.osf one.dnom one.numr uni2081
EndChar

StartChar: two
Encoding: 50 50 21
Width: 530
Flags: W
LayerCount: 2
Fore
SplineSet
62 0 m 1,0,-1
 79.3154296875 75 l 1,1,-1
 279.71875 263 l 2,2,3
 330.799804688 311 330.799804688 311 372.880859375 352.5 c 128,-1,4
 414.961914062 394 414.961914062 394 443.658203125 436 c 128,-1,5
 472.35546875 478 472.35546875 478 483.66796875 527 c 0,6,7
 488.881447268 549.581979207 488.881447268 549.581979207 488.881447268 567.984074931 c 0,8,9
 488.881447268 599.290989603 488.881447268 599.290989603 473.791992188 618.5 c 0,10,11
 449.833007812 649 449.833007812 649 401.833007812 649 c 0,12,13
 359.833007812 649 359.833007812 649 317.831054688 629.5 c 128,-1,14
 275.830078125 610 275.830078125 610 241.827148438 584 c 1,15,-1
 208.217773438 642 l 1,16,17
 255.528320312 678 255.528320312 678 309.338867188 701 c 128,-1,18
 363.1484375 724 363.1484375 724 425.1484375 724 c 0,19,20
 513.1484375 724 513.1484375 724 552.489257812 673.5 c 0,21,22
 578.234001066 640.45347855 578.234001066 640.45347855 578.234001066 590.492197016 c 0,23,24
 578.234001066 564.105209298 578.234001066 564.105209298 571.052734375 533 c 0,25,26
 558.124023438 477 558.124023438 477 527.041992188 429 c 128,-1,27
 495.9609375 381 495.9609375 381 450.37890625 333 c 128,-1,28
 404.797851562 285 404.797851562 285 347.099609375 230 c 2,29,-1
 192.392578125 84 l 1,30,-1
 191.23828125 79 l 1,31,-1
 493.23828125 79 l 1,32,-1
 475 0 l 1,33,-1
 62 0 l 1,0,-1
EndSplineSet
Validated: 524289
Substitution2: "'onum' Oldstyle Figures lookup 33 subtable" two.osf
Substitution2: "'frac' Diagonal Fractions lookup 27 subtable" two.numr
Substitution2: "'dnom' Denominators lookup 25 subtable" two.dnom
Substitution2: "'numr' Numerators lookup 24 subtable" two.numr
Substitution2: "'sups' Superscript lookup 23 subtable" uni00B2
Substitution2: "'subs' Subscript lookup 22 subtable" uni2082
AlternateSubs2: "'aalt' Access All Alternates lookup 1 subtable" uni00B2 two.osf two.dnom two.numr uni2082
EndChar

StartChar: three
Encoding: 51 51 22
Width: 530
Flags: W
LayerCount: 2
Fore
SplineSet
221.69140625 -10 m 0,0,1
 181.69140625 -10 181.69140625 -10 140.153320312 -1.5 c 128,-1,2
 98.6162109375 7 98.6162109375 7 65.6953125 29 c 1,3,-1
 84.6259765625 111 l 1,4,5
 117.546875 89 117.546875 89 158.776367188 77 c 128,-1,6
 200.006835938 65 200.006835938 65 242.006835938 65 c 0,7,8
 319.006835938 65 319.006835938 65 363.279296875 103 c 128,-1,9
 407.552734375 141 407.552734375 141 421.866210938 203 c 0,10,11
 426.829448708 224.497895772 426.829448708 224.497895772 426.829448708 242.247741782 c 0,12,13
 426.829448708 280.642438545 426.829448708 280.642438545 403.606445312 301.5 c 0,14,15
 369.6484375 332 369.6484375 332 290.6484375 332 c 2,16,-1
 231.6484375 332 l 1,17,-1
 248.732421875 406 l 1,18,-1
 308.732421875 406 l 2,19,20
 377.732421875 406 377.732421875 406 423.389648438 443.5 c 128,-1,21
 469.047851562 481 469.047851562 481 482.899414062 541 c 0,22,23
 487.075934622 559.090288606 487.075934622 559.090288606 487.075934622 574.349620967 c 0,24,25
 487.075934622 602.109278927 487.075934622 602.109278927 473.25390625 620.5 c 0,26,27
 451.833007812 649 451.833007812 649 396.833007812 649 c 0,28,29
 357.833007812 649 357.833007812 649 318.6015625 635 c 128,-1,30
 279.369140625 621 279.369140625 621 244.059570312 598 c 1,31,-1
 216.142578125 659 l 1,32,33
 258.836914062 688 258.836914062 688 310.993164062 706 c 128,-1,34
 363.1484375 724 363.1484375 724 419.1484375 724 c 0,35,36
 513.1484375 724 513.1484375 724 552.10546875 674 c 0,37,38
 578.639113593 639.944132361 578.639113593 639.944132361 578.639113593 592.434560123 c 0,39,40
 578.639113593 570.191729131 578.639113593 570.191729131 572.823242188 545 c 0,41,42
 557.35546875 478 557.35546875 478 511.350585938 432.5 c 128,-1,43
 465.345703125 387 465.345703125 387 398.806640625 376 c 1,44,-1
 398.114257812 373 l 1,45,46
 471.57421875 362 471.57421875 362 500.416015625 318 c 0,47,48
 518.528919191 290.367610785 518.528919191 290.367610785 518.528919191 250.903368258 c 0,49,50
 518.528919191 227.527345411 518.528919191 227.527345411 512.173828125 200 c 0,51,52
 491.165039062 109 491.165039062 109 416.927734375 49.5 c 128,-1,53
 342.69140625 -10 342.69140625 -10 221.69140625 -10 c 0,0,1
EndSplineSet
Validated: 524289
Substitution2: "'onum' Oldstyle Figures lookup 33 subtable" three.osf
Substitution2: "'frac' Diagonal Fractions lookup 27 subtable" three.numr
Substitution2: "'dnom' Denominators lookup 25 subtable" three.dnom
Substitution2: "'numr' Numerators lookup 24 subtable" three.numr
Substitution2: "'sups' Superscript lookup 23 subtable" uni00B3
Substitution2: "'subs' Subscript lookup 22 subtable" uni2083
AlternateSubs2: "'aalt' Access All Alternates lookup 1 subtable" uni00B3 three.osf three.dnom three.numr uni2083
EndChar

StartChar: four
Encoding: 52 52 23
Width: 530
Flags: W
LayerCount: 2
Fore
SplineSet
312 0 m 1,0,-1
 349.169921875 161 l 1,1,-1
 80.169921875 161 l 1,2,-1
 97.4853515625 236 l 1,3,-1
 461.763671875 718 l 1,4,-1
 563.763671875 718 l 1,5,-1
 453.177734375 239 l 1,6,-1
 542.177734375 239 l 1,7,-1
 524.169921875 161 l 1,8,-1
 435.169921875 161 l 1,9,-1
 398 0 l 1,10,-1
 312 0 l 1,0,-1
182.177734375 239 m 1,11,-1
 367.177734375 239 l 1,12,-1
 406.88671875 411 l 2,13,14
 415.428710938 448 415.428710938 448 425.779296875 488.5 c 128,-1,15
 436.12890625 529 436.12890625 529 445.825195312 564.5 c 128,-1,16
 455.520507812 600 455.520507812 600 461.831054688 623 c 1,17,-1
 457.831054688 623 l 1,18,19
 445.290039062 599 445.290039062 599 424.90234375 567 c 128,-1,20
 404.514648438 535 404.514648438 535 388.666015625 514 c 2,21,-1
 182.177734375 239 l 1,11,-1
EndSplineSet
Validated: 524289
Substitution2: "'onum' Oldstyle Figures lookup 33 subtable" four.osf
Substitution2: "'frac' Diagonal Fractions lookup 27 subtable" four.numr
Substitution2: "'dnom' Denominators lookup 25 subtable" four.dnom
Substitution2: "'numr' Numerators lookup 24 subtable" four.numr
Substitution2: "'sups' Superscript lookup 23 subtable" uni2074
Substitution2: "'subs' Subscript lookup 22 subtable" uni2084
AlternateSubs2: "'aalt' Access All Alternates lookup 1 subtable" uni2074 four.osf four.dnom four.numr uni2084
EndChar

StartChar: five
Encoding: 53 53 24
Width: 530
Flags: W
LayerCount: 2
Fore
SplineSet
222.69140625 -10 m 0,0,1
 177.69140625 -10 177.69140625 -10 139 0 c 128,-1,2
 100.30859375 10 100.30859375 10 74.6953125 29 c 1,3,-1
 93.857421875 112 l 1,4,5
 121.546875 89 121.546875 89 159.892578125 77.5 c 128,-1,6
 198.237304688 66 198.237304688 66 237.237304688 66 c 0,7,8
 308.237304688 66 308.237304688 66 355.279296875 103 c 128,-1,9
 402.321289062 140 402.321289062 140 420.329101562 218 c 0,10,11
 426.204120935 243.447566783 426.204120935 243.447566783 426.204120935 264.591645181 c 0,12,13
 426.204120935 302.440616258 426.204120935 302.440616258 407.37890625 326.5 c 0,14,15
 378.036132812 364 378.036132812 364 311.036132812 364 c 0,16,17
 285.036132812 364 285.036132812 364 254.997070312 359.5 c 128,-1,18
 224.958007812 355 224.958007812 355 204.03515625 351 c 1,19,-1
 169.499023438 379 l 1,20,-1
 270.83984375 714 l 1,21,-1
 583.83984375 714 l 1,22,-1
 565.6015625 635 l 1,23,-1
 328.6015625 635 l 1,24,-1
 263.581054688 427 l 1,25,26
 284.50390625 431 284.50390625 431 308.197265625 434 c 128,-1,27
 331.889648438 437 331.889648438 437 354.889648438 437 c 0,28,29
 414.889648438 437 414.889648438 437 455.963867188 413.5 c 128,-1,30
 497.0390625 390 497.0390625 390 512.6875 343 c 0,31,32
 520.386335278 319.878031559 520.386335278 319.878031559 520.386335278 291.189569335 c 0,33,34
 520.386335278 261.563025726 520.386335278 261.563025726 512.17578125 226 c 0,35,36
 487.01171875 117 487.01171875 117 410.8515625 53.5 c 128,-1,37
 334.69140625 -10 334.69140625 -10 222.69140625 -10 c 0,0,1
EndSplineSet
Validated: 524289
Substitution2: "'onum' Oldstyle Figures lookup 33 subtable" five.osf
Substitution2: "'frac' Diagonal Fractions lookup 27 subtable" five.numr
Substitution2: "'dnom' Denominators lookup 25 subtable" five.dnom
Substitution2: "'numr' Numerators lookup 24 subtable" five.numr
Substitution2: "'sups' Superscript lookup 23 subtable" uni2075
Substitution2: "'subs' Subscript lookup 22 subtable" uni2085
AlternateSubs2: "'aalt' Access All Alternates lookup 1 subtable" uni2075 five.osf five.dnom five.numr uni2085
EndChar

StartChar: six
Encoding: 54 54 25
Width: 530
Flags: W
LayerCount: 2
Fore
SplineSet
269.69140625 -10 m 0,0,1
 171.69140625 -10 171.69140625 -10 130.583984375 67.5 c 0,2,3
 109.309343278 107.608219919 109.309343278 107.608219919 109.309343278 171.419621274 c 0,4,5
 109.309343278 230.90921944 109.309343278 230.90921944 127.799804688 311 c 128,-1,6
 146.26953125 391 146.26953125 391 177.853515625 465 c 128,-1,7
 209.4375 539 209.4375 539 256.443359375 597.5 c 128,-1,8
 303.44921875 656 303.44921875 656 367.798828125 690 c 128,-1,9
 432.1484375 724 432.1484375 724 515.1484375 724 c 0,10,11
 534.1484375 724 534.1484375 724 555.186523438 722 c 128,-1,12
 576.224609375 720 576.224609375 720 589.0703125 715 c 1,13,-1
 571.755859375 640 l 1,14,15
 542.526367188 652 542.526367188 652 500.526367188 652 c 0,16,17
 441.526367188 652 441.526367188 652 397.215820312 629 c 128,-1,18
 352.90625 606 352.90625 606 320.171875 566 c 128,-1,19
 287.436523438 526 287.436523438 526 264.431640625 474 c 128,-1,20
 241.426757812 422 241.426757812 422 225.8046875 363 c 1,21,-1
 230.8046875 363 l 1,22,23
 259.34765625 400 259.34765625 400 299.50390625 424.5 c 128,-1,24
 339.66015625 449 339.66015625 449 394.66015625 449 c 0,25,26
 478.66015625 449 478.66015625 449 514.26953125 391 c 0,27,28
 535.538331414 356.357706798 535.538331414 356.357706798 535.538331414 305.305166865 c 0,29,30
 535.538331414 270.882784603 535.538331414 270.882784603 525.869140625 229 c 0,31,32
 500.2421875 118 500.2421875 118 431.466796875 54 c 128,-1,33
 362.69140625 -10 362.69140625 -10 269.69140625 -10 c 0,0,1
287.775390625 64 m 0,34,35
 337.775390625 64 337.775390625 64 379.510742188 104 c 128,-1,36
 421.245117188 144 421.245117188 144 440.407226562 227 c 0,37,38
 448.246218926 260.954128935 448.246218926 260.954128935 448.246218926 287.660823792 c 0,39,40
 448.246218926 318.372439629 448.246218926 318.372439629 437.879882812 339.5 c 0,41,42
 418.499023438 379 418.499023438 379 362.499023438 379 c 0,43,44
 324.499023438 379 324.499023438 379 290.612304688 360 c 128,-1,45
 256.725585938 341 256.725585938 341 232.454101562 309.5 c 128,-1,46
 208.181640625 278 208.181640625 278 199.639648438 241 c 0,47,48
 192.807764872 211.408562919 192.807764872 211.408562919 192.807764872 182.07758186 c 0,49,50
 192.807764872 170.769434103 192.807764872 170.769434103 193.823242188 159.5 c 0,51,52
 197.473632812 119 197.473632812 119 219.624023438 91.5 c 128,-1,53
 241.775390625 64 241.775390625 64 287.775390625 64 c 0,34,35
EndSplineSet
Validated: 524289
Substitution2: "'onum' Oldstyle Figures lookup 33 subtable" six.osf
Substitution2: "'frac' Diagonal Fractions lookup 27 subtable" six.numr
Substitution2: "'dnom' Denominators lookup 25 subtable" six.dnom
Substitution2: "'numr' Numerators lookup 24 subtable" six.numr
Substitution2: "'sups' Superscript lookup 23 subtable" uni2076
Substitution2: "'subs' Subscript lookup 22 subtable" uni2086
AlternateSubs2: "'aalt' Access All Alternates lookup 1 subtable" uni2076 six.osf six.dnom six.numr uni2086
EndChar

StartChar: seven
Encoding: 55 55 26
Width: 530
Flags: W
LayerCount: 2
Fore
SplineSet
140 0 m 1,0,-1
 529.6015625 635 l 1,1,-1
 199.6015625 635 l 1,2,-1
 217.83984375 714 l 1,3,-1
 639.83984375 714 l 1,4,-1
 623.678710938 644 l 1,5,-1
 234 0 l 1,6,-1
 140 0 l 1,0,-1
EndSplineSet
Validated: 524289
Substitution2: "'onum' Oldstyle Figures lookup 33 subtable" seven.osf
Substitution2: "'frac' Diagonal Fractions lookup 27 subtable" seven.numr
Substitution2: "'dnom' Denominators lookup 25 subtable" seven.dnom
Substitution2: "'numr' Numerators lookup 24 subtable" seven.numr
Substitution2: "'sups' Superscript lookup 23 subtable" uni2077
Substitution2: "'subs' Subscript lookup 22 subtable" uni2087
AlternateSubs2: "'aalt' Access All Alternates lookup 1 subtable" uni2077 seven.osf seven.dnom seven.numr uni2087
EndChar

StartChar: eight
Encoding: 56 56 27
Width: 530
Flags: W
LayerCount: 2
Fore
SplineSet
256.69140625 -10 m 0,0,1
 168.69140625 -10 168.69140625 -10 123.888671875 38.5 c 0,2,3
 93.8099454694 71.0609195739 93.8099454694 71.0609195739 93.8099454694 124.580464712 c 0,4,5
 93.8099454694 150.779120815 93.8099454694 150.779120815 101.017578125 182 c 0,6,7
 117.87109375 255 117.87109375 255 162.875976562 300.5 c 128,-1,8
 207.880859375 346 207.880859375 346 271.344726562 374 c 1,9,10
 232.040039062 403 232.040039062 403 211.966796875 446 c 0,11,12
 200.249851953 471.100735566 200.249851953 471.100735566 200.249851953 502.675722939 c 0,13,14
 200.249851953 525.191758257 200.249851953 525.191758257 206.208007812 551 c 0,15,16
 219.830078125 610 219.830078125 610 254.717773438 648.5 c 128,-1,17
 289.606445312 687 289.606445312 687 336.493164062 706 c 128,-1,18
 383.379882812 725 383.379882812 725 432.379882812 725 c 0,19,20
 482.379882812 725 482.379882812 725 519.993164062 706 c 128,-1,21
 557.606445312 687 557.606445312 687 573.717773438 648.5 c 0,22,23
 582.517115235 627.474165039 582.517115235 627.474165039 582.517115235 600.632393598 c 0,24,25
 582.517115235 578.324716163 582.517115235 578.324716163 576.439453125 552 c 0,26,27
 561.6640625 488 561.6640625 488 520.466796875 446 c 128,-1,28
 479.270507812 404 479.270507812 404 420.268554688 378 c 1,29,30
 473.111328125 347 473.111328125 347 500.606445312 301.5 c 0,31,32
 517.833031628 272.993780735 517.833031628 272.993780735 517.833031628 234.478424559 c 0,33,34
 517.833031628 211.51776774 517.833031628 211.51776774 511.7109375 185 c 0,35,36
 498.08984375 126 498.08984375 126 461.931640625 82 c 128,-1,37
 425.7734375 38 425.7734375 38 372.732421875 14 c 128,-1,38
 319.69140625 -10 319.69140625 -10 256.69140625 -10 c 0,0,1
360.348632812 413 m 1,39,40
 411.427734375 435 411.427734375 435 445.200195312 466.5 c 128,-1,41
 478.97265625 498 478.97265625 498 490.515625 548 c 0,42,43
 494.746035345 566.323708207 494.746035345 566.323708207 494.746035345 581.420212622 c 0,44,45
 494.746035345 608.341498301 494.746035345 608.341498301 481.29296875 625 c 0,46,47
 460.294921875 651 460.294921875 651 414.294921875 651 c 0,48,49
 369.294921875 651 369.294921875 651 335.79296875 625 c 128,-1,50
 302.290039062 599 302.290039062 599 290.515625 548 c 0,51,52
 285.989143105 528.392904146 285.989143105 528.392904146 285.989143105 512.153614079 c 0,53,54
 285.989143105 482.839959421 285.989143105 482.839959421 300.73828125 464.5 c 0,55,56
 323.658203125 436 323.658203125 436 360.348632812 413 c 1,39,40
277.544921875 63 m 0,57,58
 337.544921875 63 337.544921875 63 376.278320312 96.5 c 128,-1,59
 415.012695312 130 415.012695312 130 428.171875 187 c 0,60,61
 432.277138305 204.781643099 432.277138305 204.781643099 432.277138305 220.314360254 c 0,62,63
 432.277138305 249.33143923 432.277138305 249.33143923 417.950195312 270.5 c 0,64,65
 395.953125 303 395.953125 303 333.725585938 341 c 1,66,67
 273.03125 312 273.03125 312 235.7578125 274 c 128,-1,68
 198.485351562 236 198.485351562 236 186.017578125 182 c 256,69,70
 181.441508402 162.178728543 181.441508402 162.178728543 181.441508402 145.254226718 c 0,71,72
 181.441508402 116.070531068 181.441508402 116.070531068 195.047851562 95.5 c 0,73,74
 216.544921875 63 216.544921875 63 277.544921875 63 c 0,57,58
EndSplineSet
Validated: 524289
Substitution2: "'onum' Oldstyle Figures lookup 33 subtable" eight.osf
Substitution2: "'frac' Diagonal Fractions lookup 27 subtable" eight.numr
Substitution2: "'dnom' Denominators lookup 25 subtable" eight.dnom
Substitution2: "'numr' Numerators lookup 24 subtable" eight.numr
Substitution2: "'sups' Superscript lookup 23 subtable" uni2078
Substitution2: "'subs' Subscript lookup 22 subtable" uni2088
AlternateSubs2: "'aalt' Access All Alternates lookup 1 subtable" uni2078 eight.osf eight.dnom eight.numr uni2088
EndChar

StartChar: nine
Encoding: 57 57 28
Width: 530
Flags: W
LayerCount: 2
Fore
SplineSet
179.69140625 -10 m 0,0,1
 159.69140625 -10 159.69140625 -10 139.768554688 -7.5 c 128,-1,2
 119.845703125 -5 119.845703125 -5 106.76953125 -1 c 1,3,-1
 124.315429688 75 l 1,4,5
 137.9296875 69 137.9296875 69 156.237304688 66 c 128,-1,6
 174.544921875 63 174.544921875 63 193.544921875 63 c 0,7,8
 266.544921875 63 266.544921875 63 320.1640625 102.5 c 128,-1,9
 373.783203125 142 373.783203125 142 409.905273438 207.5 c 128,-1,10
 446.02734375 273 446.02734375 273 467.03515625 351 c 1,11,-1
 462.03515625 351 l 1,12,13
 431.26171875 313 431.26171875 313 391.3359375 289.5 c 128,-1,14
 351.411132812 266 351.411132812 266 298.411132812 266 c 0,15,16
 214.411132812 266 214.411132812 266 179.0703125 323 c 0,17,18
 158.18917246 356.678476383 158.18917246 356.678476383 158.18917246 407.46306197 c 0,19,20
 158.18917246 442.630149064 158.18917246 442.630149064 168.202148438 486 c 0,21,22
 193.59765625 596 193.59765625 596 262.373046875 660 c 128,-1,23
 331.1484375 724 331.1484375 724 425.1484375 724 c 0,24,25
 522.1484375 724 522.1484375 724 562.755859375 646.5 c 0,26,27
 583.708807374 606.511880979 583.708807374 606.511880979 583.708807374 543.228553551 c 0,28,29
 583.708807374 483.864004666 583.708807374 483.864004666 565.270507812 404 c 0,30,31
 548.186523438 330 548.186523438 330 516.717773438 256.5 c 128,-1,32
 485.249023438 183 485.249023438 183 438.28125 122.5 c 128,-1,33
 391.313476562 62 391.313476562 62 327.002929688 26 c 128,-1,34
 262.69140625 -10 262.69140625 -10 179.69140625 -10 c 0,0,1
329.340820312 335 m 0,35,36
 364.340820312 335 364.340820312 335 398.150390625 351.5 c 128,-1,37
 431.959960938 368 431.959960938 368 458.462890625 400.5 c 128,-1,38
 484.965820312 433 484.965820312 433 495.81640625 480 c 0,39,40
 501.20091067 503.321465052 501.20091067 503.321465052 501.20091067 529.458932415 c 0,41,42
 501.20091067 532.46089304 501.20091067 532.46089304 501.129882812 535.5 c 0,43,44
 500.440429688 565 500.440429688 565 491.443359375 591 c 128,-1,45
 482.4453125 617 482.4453125 617 461.754882812 633.5 c 128,-1,46
 441.064453125 650 441.064453125 650 407.064453125 650 c 0,47,48
 354.064453125 650 354.064453125 650 312.598632812 609 c 128,-1,49
 271.1328125 568 271.1328125 568 252.6640625 488 c 0,50,51
 244.734625175 453.654459051 244.734625175 453.654459051 244.734625175 426.858461674 c 0,52,53
 244.734625175 395.140318707 244.734625175 395.140318707 255.844726562 374 c 0,54,55
 276.340820312 335 276.340820312 335 329.340820312 335 c 0,35,36
EndSplineSet
Validated: 524289
Substitution2: "'onum' Oldstyle Figures lookup 33 subtable" nine.osf
Substitution2: "'frac' Diagonal Fractions lookup 27 subtable" nine.numr
Substitution2: "'dnom' Denominators lookup 25 subtable" nine.dnom
Substitution2: "'numr' Numerators lookup 24 subtable" nine.numr
Substitution2: "'sups' Superscript lookup 23 subtable" uni2079
Substitution2: "'subs' Subscript lookup 22 subtable" uni2089
AlternateSubs2: "'aalt' Access All Alternates lookup 1 subtable" uni2079 nine.osf nine.dnom nine.numr uni2089
EndChar

StartChar: colon
Encoding: 58 58 29
Width: 530
Flags: W
LayerCount: 2
Fore
SplineSet
360.118164062 412 m 0,0,1
 334.118164062 412 334.118164062 412 321.311523438 428 c 0,2,3
 313.459993403 437.810071539 313.459993403 437.810071539 313.459993403 454.762770298 c 0,4,5
 313.459993403 465.459531491 313.459993403 465.459531491 316.5859375 479 c 256,6,7
 324.666015625 514 324.666015625 514 344.745117188 529.5 c 128,-1,8
 364.823242188 545 364.823242188 545 390.823242188 545 c 256,9,10
 416.823242188 545 416.823242188 545 429.745117188 529.5 c 0,11,12
 437.694729242 519.963589863 437.694729242 519.963589863 437.694729242 503.045740363 c 0,13,14
 437.694729242 492.466170658 437.694729242 492.466170658 434.5859375 479 c 256,15,16
 426.505859375 444 426.505859375 444 405.811523438 428 c 128,-1,17
 385.118164062 412 385.118164062 412 360.118164062 412 c 0,0,1
262.4609375 -11 m 0,18,19
 236.4609375 -11 236.4609375 -11 223.654296875 5 c 0,20,21
 215.80276684 14.8100715388 215.80276684 14.8100715388 215.80276684 31.7627702976 c 0,22,23
 215.80276684 42.4595314911 215.80276684 42.4595314911 218.928710938 56 c 256,24,25
 227.008789062 91 227.008789062 91 247.087890625 106.5 c 128,-1,26
 267.166015625 122 267.166015625 122 293.166015625 122 c 0,27,28
 318.166015625 122 318.166015625 122 331.703125 107 c 0,29,30
 340.090529915 97.7062083762 340.090529915 97.7062083762 340.090529915 80.3507908959 c 0,31,32
 340.090529915 69.6949001028 340.090529915 69.6949001028 336.928710938 56 c 0,33,34
 328.848632812 21 328.848632812 21 307.654296875 5 c 128,-1,35
 286.4609375 -11 286.4609375 -11 262.4609375 -11 c 0,18,19
EndSplineSet
Validated: 524289
EndChar

StartChar: semicolon
Encoding: 59 59 30
Width: 530
Flags: W
LayerCount: 2
Fore
SplineSet
362.118164062 412 m 0,0,1
 336.118164062 412 336.118164062 412 323.311523438 428 c 0,2,3
 315.459993403 437.810071539 315.459993403 437.810071539 315.459993403 454.762770298 c 0,4,5
 315.459993403 465.459531491 315.459993403 465.459531491 318.5859375 479 c 256,6,7
 326.666015625 514 326.666015625 514 346.745117188 529.5 c 128,-1,8
 366.823242188 545 366.823242188 545 392.823242188 545 c 256,9,10
 418.823242188 545 418.823242188 545 431.745117188 529.5 c 0,11,12
 439.694729242 519.963589863 439.694729242 519.963589863 439.694729242 503.045740363 c 0,13,14
 439.694729242 492.466170658 439.694729242 492.466170658 436.5859375 479 c 256,15,16
 428.505859375 444 428.505859375 444 407.811523438 428 c 128,-1,17
 387.118164062 412 387.118164062 412 362.118164062 412 c 0,0,1
140.063476562 -134 m 1,18,19
 169.146484375 -73 169.146484375 -73 199.076171875 -4 c 128,-1,20
 229.006835938 65 229.006835938 65 248.473632812 119 c 1,21,-1
 343.473632812 119 l 1,22,-1
 347.93359375 108 l 1,23,24
 320.54296875 50 320.54296875 50 282.767578125 -14 c 128,-1,25
 244.9921875 -78 244.9921875 -78 207.063476562 -134 c 1,26,-1
 140.063476562 -134 l 1,18,19
EndSplineSet
Validated: 524289
EndChar

StartChar: less
Encoding: 60 60 31
Width: 530
Flags: W
LayerCount: 2
Fore
SplineSet
481.3203125 127 m 1,0,-1
 141.956054688 329 l 1,1,-1
 153.268554688 378 l 1,2,-1
 587.51953125 587 l 1,3,-1
 569.51171875 509 l 1,4,-1
 240.727539062 354 l 1,5,-1
 499.328125 205 l 1,6,-1
 481.3203125 127 l 1,0,-1
EndSplineSet
Validated: 524289
EndChar

StartChar: equal
Encoding: 61 61 32
Width: 530
Flags: W
LayerCount: 2
Fore
SplineSet
151.348632812 413 m 1,0,-1
 169.356445312 491 l 1,1,-1
 587.356445312 491 l 1,2,-1
 569.348632812 413 l 1,3,-1
 151.348632812 413 l 1,0,-1
105.174804688 213 m 1,4,-1
 123.182617188 291 l 1,5,-1
 541.182617188 291 l 1,6,-1
 523.174804688 213 l 1,7,-1
 105.174804688 213 l 1,4,-1
EndSplineSet
Validated: 524289
Substitution2: "'sups' Superscript lookup 23 subtable" uni207C
Substitution2: "'subs' Subscript lookup 22 subtable" uni208C
AlternateSubs2: "'aalt' Access All Alternates lookup 1 subtable" uni208C uni207C
EndChar

StartChar: greater
Encoding: 62 62 33
Width: 530
Flags: W
LayerCount: 2
Fore
SplineSet
101.3203125 127 m 1,0,-1
 119.328125 205 l 1,1,-1
 446.727539062 354 l 1,2,-1
 189.51171875 509 l 1,3,-1
 207.51953125 587 l 1,4,-1
 545.268554688 378 l 1,5,-1
 533.956054688 329 l 1,6,-1
 101.3203125 127 l 1,0,-1
EndSplineSet
Validated: 524289
EndChar

StartChar: question
Encoding: 63 63 34
Width: 530
Flags: W
LayerCount: 2
Fore
SplineSet
251.17578125 226 m 2,0,1
 263.874023438 281 263.874023438 281 289.416015625 318 c 128,-1,2
 314.958007812 355 314.958007812 355 369.193359375 395 c 0,3,4
 407.887695312 424 407.887695312 424 431.698242188 447 c 128,-1,5
 455.5078125 470 455.5078125 470 468.93359375 493.5 c 128,-1,6
 482.358398438 517 482.358398438 517 489.747070312 549 c 0,7,8
 493.270904887 564.264548811 493.270904887 564.264548811 493.270904887 577.381826459 c 0,9,10
 493.270904887 603.793707467 493.270904887 603.793707467 478.984375 621.5 c 0,11,12
 457.602539062 648 457.602539062 648 406.602539062 648 c 0,13,14
 363.602539062 648 363.602539062 648 327.447265625 636.5 c 128,-1,15
 291.29296875 625 291.29296875 625 254.368164062 608 c 1,16,-1
 238.297851562 677 l 1,17,18
 281.146484375 698 281.146484375 698 327.147460938 711 c 128,-1,19
 373.1484375 724 373.1484375 724 426.1484375 724 c 0,20,21
 515.1484375 724 515.1484375 724 554.14453125 678.5 c 0,22,23
 580.606260983 647.624116308 580.606260983 647.624116308 580.606260983 600.861481408 c 0,24,25
 580.606260983 578.712731969 580.606260983 578.712731969 574.669921875 553 c 0,26,27
 564.28125 508 564.28125 508 545.393554688 476 c 128,-1,28
 526.505859375 444 526.505859375 444 497.041015625 416 c 128,-1,29
 467.577148438 388 467.577148438 388 425.189453125 356 c 0,30,31
 388.724609375 328 388.724609375 328 367.876953125 307 c 128,-1,32
 347.028320312 286 347.028320312 286 336.795898438 265.5 c 128,-1,33
 326.5625 245 326.5625 245 320.098632812 217 c 2,34,-1
 316.404296875 201 l 1,35,-1
 245.404296875 201 l 1,36,-1
 251.17578125 226 l 2,0,1
235.4609375 -11 m 0,37,38
 209.4609375 -11 209.4609375 -11 196.654296875 5 c 0,39,40
 188.80276684 14.8100715388 188.80276684 14.8100715388 188.80276684 31.7627702976 c 0,41,42
 188.80276684 42.4595314911 188.80276684 42.4595314911 191.928710938 56 c 256,43,44
 200.008789062 91 200.008789062 91 219.587890625 106.5 c 128,-1,45
 239.166015625 122 239.166015625 122 266.166015625 122 c 0,46,47
 291.166015625 122 291.166015625 122 304.703125 107 c 0,48,49
 313.090529915 97.7062083762 313.090529915 97.7062083762 313.090529915 80.3507908959 c 0,50,51
 313.090529915 69.6949001028 313.090529915 69.6949001028 309.928710938 56 c 0,52,53
 301.848632812 21 301.848632812 21 280.654296875 5 c 128,-1,54
 259.4609375 -11 259.4609375 -11 235.4609375 -11 c 0,37,38
EndSplineSet
Validated: 524289
Substitution2: "'smcp' Lowercase to Small Capitals lookup 35 subtable" question.sc
Substitution2: "'c2sc' Capitals to Small Capitals lookup 34 subtable" question.sc
Substitution2: "'aalt' Access All Alternates lookup 0 subtable" question.sc
EndChar

StartChar: at
Encoding: 64 64 35
Width: 530
Flags: W
LayerCount: 2
Fore
SplineSet
266.453125 -89 m 0,0,1
 126.453125 -89 126.453125 -89 79.0009765625 13 c 0,2,3
 53.6382163635 67.5192339424 53.6382163635 67.5192339424 53.6382163635 144.036805924 c 0,4,5
 53.6382163635 210.675910546 53.6382163635 210.675910546 72.875 294 c 0,6,7
 102.426757812 422 102.426757812 422 156.627929688 516 c 128,-1,8
 210.830078125 610 210.830078125 610 284.834960938 662 c 128,-1,9
 358.83984375 714 358.83984375 714 447.83984375 714 c 0,10,11
 523.83984375 714 523.83984375 714 568.296875 670.5 c 128,-1,12
 612.75390625 627 612.75390625 627 623.28515625 547 c 0,13,14
 626.37170454 523.551049255 626.37170454 523.551049255 626.37170454 497.524661209 c 0,15,16
 626.37170454 434.757692726 626.37170454 434.757692726 608.419921875 357 c 0,17,18
 597.799804688 311 597.799804688 311 581.526367188 266.5 c 128,-1,19
 565.252929688 222 565.252929688 222 544.556640625 186.5 c 128,-1,20
 523.861328125 151 523.861328125 151 497.897460938 129.5 c 128,-1,21
 471.93359375 108 471.93359375 108 441.93359375 108 c 0,22,23
 412.93359375 108 412.93359375 108 399.359375 131.5 c 0,24,25
 388.921941923 149.568224558 388.921941923 149.568224558 388.921941923 174.434635615 c 0,26,27
 388.921941923 181.910121681 388.921941923 181.910121681 389.865234375 190 c 1,28,-1
 388.095703125 191 l 1,29,30
 365.323242188 153 365.323242188 153 334.127929688 130.5 c 128,-1,31
 302.93359375 108 302.93359375 108 267.93359375 108 c 0,32,33
 213.93359375 108 213.93359375 108 194.708007812 159 c 0,34,35
 185.249911197 184.089634664 185.249911197 184.089634664 185.249911197 217.649912107 c 0,36,37
 185.249911197 252.308011395 185.249911197 252.308011395 195.336914062 296 c 0,38,39
 210.8046875 363 210.8046875 363 242.963867188 413.5 c 128,-1,40
 275.123046875 464 275.123046875 464 318.586914062 492 c 128,-1,41
 362.051757812 520 362.051757812 520 412.051757812 520 c 0,42,43
 443.051757812 520 443.051757812 520 470.8203125 512.5 c 128,-1,44
 498.588867188 505 498.588867188 505 512.741210938 497 c 1,45,-1
 456.64453125 293 l 2,46,47
 453.797851562 285 453.797851562 285 451.373046875 274.5 c 128,-1,48
 448.94921875 264 448.94921875 264 447.102539062 256 c 0,49,50
 438.332130343 218.012413697 438.332130343 218.012413697 438.332130343 196.309321552 c 0,51,52
 438.332130343 190.589022944 438.332130343 190.589022944 438.94140625 186 c 0,53,54
 441.862304688 164 441.862304688 164 456.862304688 164 c 0,55,56
 480.862304688 164 480.862304688 164 503.3671875 216 c 128,-1,57
 525.873046875 268 525.873046875 268 546.650390625 358 c 0,58,59
 563.289214555 430.06944022 563.289214555 430.06944022 563.289214555 486.183763527 c 0,60,61
 563.289214555 537.518264475 563.289214555 537.518264475 549.364257812 575.5 c 0,62,63
 520.21875 655 520.21875 655 433.21875 655 c 0,64,65
 328.21875 655 328.21875 655 251.555664062 559 c 128,-1,66
 174.891601562 463 174.891601562 463 136.567382812 297 c 0,67,68
 118.415721688 218.375661009 118.415721688 218.375661009 118.415721688 157.634118039 c 0,69,70
 118.415721688 98.6298001052 118.415721688 98.6298001052 135.543945312 56.5 c 0,71,72
 170.3046875 -29 170.3046875 -29 283.3046875 -29 c 0,73,74
 325.3046875 -29 325.3046875 -29 365.61328125 -19 c 128,-1,75
 405.921875 -9 405.921875 -9 445.846679688 8 c 1,76,-1
 432.6875 -49 l 1,77,78
 392.0703125 -69 392.0703125 -69 352.26171875 -79 c 128,-1,79
 312.453125 -89 312.453125 -89 266.453125 -89 c 0,0,1
295.862304688 164 m 0,80,81
 325.862304688 164 325.862304688 164 349.828125 205 c 128,-1,82
 373.793945312 246 373.793945312 246 395.5703125 323 c 2,83,-1
 432.814453125 454 l 1,84,85
 418.123046875 464 418.123046875 464 397.123046875 464 c 0,86,87
 352.123046875 464 352.123046875 464 318.541015625 416 c 128,-1,88
 284.959960938 368 284.959960938 368 267.875 294 c 0,89,90
 257.640546019 249.669459085 257.640546019 249.669459085 257.640546019 220.455817076 c 0,91,92
 257.640546019 164 257.640546019 164 295.862304688 164 c 0,80,81
EndSplineSet
Validated: 524289
EndChar

StartChar: A
Encoding: 65 65 36
Width: 530
GlyphClass: 2
Flags: W
AnchorPoint: "Anchor-2" 674.84 714 basechar 0
AnchorPoint: "Anchor-1" 429.84 714 basechar 0
AnchorPoint: "Anchor-0" 265 0 basechar 0
LayerCount: 2
Fore
SplineSet
20 0 m 1,0,-1
 377.0703125 715 l 1,1,-1
 481.0703125 715 l 1,2,-1
 510 0 l 1,3,-1
 423 0 l 1,4,-1
 417.71484375 224 l 1,5,-1
 214.71484375 224 l 1,6,-1
 108 0 l 1,7,-1
 20 0 l 1,0,-1
361.12890625 529 m 2,8,-1
 251.260742188 300 l 1,9,-1
 415.260742188 300 l 1,10,-1
 410.12890625 529 l 2,11,12
 410.421890274 541.997067449 410.421890274 541.997067449 410.421890274 556.900392631 c 0,13,14
 410.421890274 569.517106549 410.421890274 569.517106549 410.211914062 583.5 c 0,15,16
 410.067810752 593.075818303 410.067810752 593.075818303 410.067810752 602.208064091 c 0,17,18
 410.067810752 622.162992652 410.067810752 622.162992652 410.755859375 640 c 1,19,20
 400.752929688 614 400.752929688 614 386.595703125 583 c 128,-1,21
 372.439453125 552 372.439453125 552 361.12890625 529 c 2,8,-1
EndSplineSet
Validated: 1572865
Substitution2: "'c2sc' Capitals to Small Capitals lookup 34 subtable" a.sc
Substitution2: "Single Substitution lookup 32 subtable" ordfeminine
AlternateSubs2: "'aalt' Access All Alternates lookup 1 subtable" ordfeminine a.sc
EndChar

StartChar: B
Encoding: 66 66 37
Width: 530
GlyphClass: 2
Flags: W
AnchorPoint: "Anchor-2" 674.84 714 basechar 0
AnchorPoint: "Anchor-1" 429.84 714 basechar 0
AnchorPoint: "Anchor-0" 265 0 basechar 0
LayerCount: 2
Fore
SplineSet
74 0 m 1,0,-1
 238.83984375 714 l 1,1,-1
 404.83984375 714 l 2,2,3
 509.83984375 714 509.83984375 714 559.489257812 673.5 c 0,4,5
 594.150722636 645.22652002 594.150722636 645.22652002 594.150722636 591.366722292 c 0,6,7
 594.150722636 568.075712638 594.150722636 568.075712638 587.668945312 540 c 0,8,9
 572.200195312 473 572.200195312 473 532.119140625 431.5 c 128,-1,10
 492.0390625 390 492.0390625 390 432.499023438 379 c 1,11,-1
 431.344726562 374 l 1,12,13
 488.57421875 362 488.57421875 362 518.301757812 324 c 0,14,15
 536.636541159 300.562316374 536.636541159 300.562316374 536.636541159 261.147035395 c 0,16,17
 536.636541159 236.657508156 536.636541159 236.657508156 529.55859375 206 c 0,18,19
 507.165039062 109 507.165039062 109 436.58203125 54.5 c 128,-1,20
 366 0 366 0 265 0 c 2,21,-1
 74 0 l 1,0,-1
333.88671875 411 m 2,22,23
 406.88671875 411 406.88671875 411 445.58203125 440 c 128,-1,24
 484.27734375 469 484.27734375 469 497.436523438 526 c 0,25,26
 501.906911344 545.363561496 501.906911344 545.363561496 501.906911344 561.226463928 c 0,27,28
 501.906911344 593.697192875 501.906911344 593.697192875 483.17578125 611.5 c 0,29,30
 455.293945312 638 455.293945312 638 377.293945312 638 c 2,31,-1
 303.293945312 638 l 1,32,-1
 250.88671875 411 l 1,33,-1
 333.88671875 411 l 2,22,23
268.545898438 76 m 2,34,35
 344.545898438 76 344.545898438 76 386.125976562 111 c 128,-1,36
 427.70703125 146 427.70703125 146 441.790039062 207 c 0,37,38
 446.527237367 227.519843758 446.527237367 227.519843758 446.527237367 244.998669825 c 0,39,40
 446.527237367 278.627911463 446.527237367 278.627911463 428.991210938 301 c 0,41,42
 402.340820312 335 402.340820312 335 320.340820312 335 c 2,43,-1
 233.340820312 335 l 1,44,-1
 173.545898438 76 l 1,45,-1
 268.545898438 76 l 2,34,35
EndSplineSet
Validated: 1572865
Substitution2: "'c2sc' Capitals to Small Capitals lookup 34 subtable" b.sc
Substitution2: "'aalt' Access All Alternates lookup 0 subtable" b.sc
EndChar

StartChar: C
Encoding: 67 67 38
Width: 530
GlyphClass: 2
Flags: W
AnchorPoint: "Anchor-2" 674.84 714 basechar 0
AnchorPoint: "Anchor-1" 487.84 714 basechar 0
AnchorPoint: "Anchor-0" 306 0 basechar 0
LayerCount: 2
Fore
SplineSet
321.69140625 -10 m 0,0,1
 230.69140625 -10 230.69140625 -10 179.580078125 35 c 128,-1,2
 128.469726562 80 128.469726562 80 116.631835938 163 c 0,3,4
 112.914151278 189.066115702 112.914151278 189.066115702 112.914151278 217.992418551 c 0,5,6
 112.914151278 281.173553719 112.914151278 281.173553719 130.650390625 358 c 0,7,8
 155.353515625 465 155.353515625 465 207.015625 548 c 128,-1,9
 258.677734375 631 258.677734375 631 332.528320312 678 c 128,-1,10
 406.379882812 725 406.379882812 725 499.379882812 725 c 0,11,12
 545.379882812 725 545.379882812 725 584.5703125 715 c 128,-1,13
 623.76171875 705 623.76171875 705 656.375976562 686 c 1,14,-1
 605.984375 615 l 1,15,16
 582.677734375 631 582.677734375 631 550.755859375 640 c 128,-1,17
 518.833007812 649 518.833007812 649 482.833007812 649 c 0,18,19
 415.833007812 649 415.833007812 649 363.67578125 611.5 c 128,-1,20
 311.518554688 574 311.518554688 574 274.396484375 508.5 c 128,-1,21
 237.274414062 443 237.274414062 443 217.419921875 357 c 0,22,23
 201.984910901 290.142770352 201.984910901 290.142770352 201.984910901 237.057317459 c 0,24,25
 201.984910901 184.53915393 201.984910901 184.53915393 217.091796875 145.5 c 0,26,27
 247.467773438 67 247.467773438 67 348.467773438 67 c 0,28,29
 384.467773438 67 384.467773438 67 420.69921875 74.5 c 128,-1,30
 456.931640625 82 456.931640625 82 493.932617188 95 c 1,31,-1
 475.924804688 17 l 1,32,33
 437.461914062 2 437.461914062 2 401.576171875 -4 c 128,-1,34
 365.69140625 -10 365.69140625 -10 321.69140625 -10 c 0,0,1
EndSplineSet
Validated: 1572865
Substitution2: "'c2sc' Capitals to Small Capitals lookup 34 subtable" c.sc
Substitution2: "'aalt' Access All Alternates lookup 0 subtable" c.sc
EndChar

StartChar: D
Encoding: 68 68 39
Width: 530
GlyphClass: 2
Flags: W
AnchorPoint: "Anchor-3" 354.42 357 basechar 0
AnchorPoint: "Anchor-2" 694.84 714 basechar 0
AnchorPoint: "Anchor-1" 411.84 714 basechar 0
AnchorPoint: "Anchor-0" 233 0 basechar 0
LayerCount: 2
Fore
SplineSet
53 0 m 1,0,-1
 217.83984375 714 l 1,1,-1
 401.83984375 714 l 2,2,3
 524.83984375 714 524.83984375 714 573.79296875 625 c 0,4,5
 600.891180236 575.732686935 600.891180236 575.732686935 600.891180236 501.337740085 c 0,6,7
 600.891180236 441.340331077 600.891180236 441.340331077 583.266601562 365 c 0,8,9
 541.7109375 185 541.7109375 185 448.85546875 92.5 c 128,-1,10
 356 0 356 0 220 0 c 2,11,-1
 53 0 l 1,0,-1
233.0078125 78 m 2,12,13
 334.0078125 78 334.0078125 78 398.24609375 150.5 c 128,-1,14
 462.483398438 223 462.483398438 223 495.266601562 365 c 0,15,16
 512.24806396 438.554578601 512.24806396 438.554578601 512.24806396 491.105722563 c 0,17,18
 512.24806396 541.43552598 512.24806396 541.43552598 496.671875 572.5 c 0,19,20
 464.83203125 636 464.83203125 636 366.83203125 636 c 2,21,-1
 283.83203125 636 l 1,22,-1
 155.0078125 78 l 1,23,-1
 233.0078125 78 l 2,12,13
EndSplineSet
Validated: 524289
Substitution2: "'c2sc' Capitals to Small Capitals lookup 34 subtable" d.sc
Substitution2: "'aalt' Access All Alternates lookup 0 subtable" d.sc
EndChar

StartChar: E
Encoding: 69 69 40
Width: 530
GlyphClass: 2
Flags: W
AnchorPoint: "Anchor-2" 674.84 714 basechar 0
AnchorPoint: "Anchor-1" 430.84 714 basechar 0
AnchorPoint: "Anchor-0" 269 0 basechar 0
LayerCount: 2
Fore
SplineSet
74 0 m 1,0,-1
 238.83984375 714 l 1,1,-1
 627.83984375 714 l 1,2,-1
 609.6015625 635 l 1,3,-1
 306.6015625 635 l 1,4,-1
 254.65625 410 l 1,5,-1
 538.65625 410 l 1,6,-1
 520.6484375 332 l 1,7,-1
 236.6484375 332 l 1,8,-1
 178.23828125 79 l 1,9,-1
 481.23828125 79 l 1,10,-1
 463 0 l 1,11,-1
 74 0 l 1,0,-1
EndSplineSet
Validated: 1572865
Substitution2: "'c2sc' Capitals to Small Capitals lookup 34 subtable" e.sc
Substitution2: "'aalt' Access All Alternates lookup 0 subtable" e.sc
EndChar

StartChar: F
Encoding: 70 70 41
Width: 530
GlyphClass: 2
Flags: W
AnchorPoint: "Anchor-2" 674.84 714 basechar 0
AnchorPoint: "Anchor-1" 440.84 714 basechar 0
AnchorPoint: "Anchor-0" 276 0 basechar 0
LayerCount: 2
Fore
SplineSet
74 0 m 1,0,-1
 238.83984375 714 l 1,1,-1
 627.83984375 714 l 1,2,-1
 609.6015625 635 l 1,3,-1
 306.6015625 635 l 1,4,-1
 248.422851562 383 l 1,5,-1
 536.422851562 383 l 1,6,-1
 518.18359375 304 l 1,7,-1
 230.18359375 304 l 1,8,-1
 160 0 l 1,9,-1
 74 0 l 1,0,-1
EndSplineSet
Validated: 1572865
Substitution2: "'c2sc' Capitals to Small Capitals lookup 34 subtable" f.sc
Substitution2: "'aalt' Access All Alternates lookup 0 subtable" f.sc
EndChar

StartChar: G
Encoding: 71 71 42
Width: 530
GlyphClass: 2
Flags: W
AnchorPoint: "Anchor-2" 674.84 714 basechar 0
AnchorPoint: "Anchor-1" 451.84 714 basechar 0
AnchorPoint: "Anchor-0" 296 0 basechar 0
LayerCount: 2
Fore
SplineSet
296.69140625 -10 m 0,0,1
 203.69140625 -10 203.69140625 -10 155.311523438 36 c 128,-1,2
 106.931640625 82 106.931640625 82 97.3623046875 164 c 0,3,4
 94.7263381701 186.590001687 94.7263381701 186.590001687 94.7263381701 211.229129007 c 0,5,6
 94.7263381701 276.028172974 94.7263381701 276.028172974 112.958007812 355 c 0,7,8
 138.584960938 466 138.584960938 466 188.247070312 549 c 128,-1,9
 237.909179688 632 237.909179688 632 309.64453125 678.5 c 128,-1,10
 381.379882812 725 381.379882812 725 474.379882812 725 c 0,11,12
 569.379882812 725 569.379882812 725 632.452148438 682 c 1,13,-1
 583.060546875 611 l 1,14,15
 556.677734375 631 556.677734375 631 527.255859375 640 c 128,-1,16
 497.833007812 649 497.833007812 649 458.833007812 649 c 0,17,18
 364.833007812 649 364.833007812 649 298.671875 572.5 c 128,-1,19
 232.510742188 496 232.510742188 496 199.958007812 355 c 0,20,21
 184.118922531 286.392914013 184.118922531 286.392914013 184.118922531 228.905695399 c 0,22,23
 184.118922531 218.521430467 184.118922531 218.521430467 184.635742188 208.5 c 0,24,25
 188.013671875 143 188.013671875 143 219.241210938 105 c 128,-1,26
 250.467773438 67 250.467773438 67 315.467773438 67 c 0,27,28
 343.467773438 67 343.467773438 67 365.891601562 71 c 128,-1,29
 388.315429688 75 388.315429688 75 410.931640625 82 c 1,30,-1
 460.798828125 298 l 1,31,-1
 350.798828125 298 l 1,32,-1
 369.037109375 377 l 1,33,-1
 562.037109375 377 l 1,34,-1
 481.002929688 26 l 1,35,36
 435.078125 9 435.078125 9 390.384765625 -0.5 c 128,-1,37
 345.69140625 -10 345.69140625 -10 296.69140625 -10 c 0,0,1
EndSplineSet
Validated: 1572865
Substitution2: "'c2sc' Capitals to Small Capitals lookup 34 subtable" g.sc
Substitution2: "'aalt' Access All Alternates lookup 0 subtable" g.sc
EndChar

StartChar: H
Encoding: 72 72 43
Width: 530
GlyphClass: 2
Flags: W
AnchorPoint: "Anchor-3" 350.883 372 basechar 0
AnchorPoint: "Anchor-2" 694.84 714 basechar 0
AnchorPoint: "Anchor-1" 429.84 714 basechar 0
AnchorPoint: "Anchor-0" 265 0 basechar 0
LayerCount: 2
Fore
SplineSet
53 0 m 1,0,-1
 217.83984375 714 l 1,1,-1
 302.83984375 714 l 1,2,-1
 232.65625 410 l 1,3,-1
 486.65625 410 l 1,4,-1
 556.83984375 714 l 1,5,-1
 642.83984375 714 l 1,6,-1
 478 0 l 1,7,-1
 392 0 l 1,8,-1
 468.416992188 331 l 1,9,-1
 214.416992188 331 l 1,10,-1
 138 0 l 1,11,-1
 53 0 l 1,0,-1
EndSplineSet
Validated: 524289
Substitution2: "'c2sc' Capitals to Small Capitals lookup 34 subtable" h.sc
Substitution2: "'aalt' Access All Alternates lookup 0 subtable" h.sc
EndChar

StartChar: I
Encoding: 73 73 44
Width: 530
GlyphClass: 2
Flags: W
AnchorPoint: "Anchor-2" 674.84 714 basechar 0
AnchorPoint: "Anchor-1" 429.84 714 basechar 0
AnchorPoint: "Anchor-0" 265 0 basechar 0
LayerCount: 2
Fore
SplineSet
86 0 m 1,0,-1
 99.8525390625 60 l 1,1,-1
 238.391601562 71 l 1,2,-1
 370.448242188 643 l 1,3,-1
 236.98828125 654 l 1,4,-1
 250.83984375 714 l 1,5,-1
 609.83984375 714 l 1,6,-1
 595.98828125 654 l 1,7,-1
 454.448242188 643 l 1,8,-1
 322.391601562 71 l 1,9,-1
 458.852539062 60 l 1,10,-1
 445 0 l 1,11,-1
 86 0 l 1,0,-1
EndSplineSet
Validated: 1572865
Substitution2: "'c2sc' Capitals to Small Capitals lookup 34 subtable" i.sc
Substitution2: "'aalt' Access All Alternates lookup 0 subtable" i.sc
EndChar

StartChar: J
Encoding: 74 74 45
Width: 530
GlyphClass: 2
Flags: W
AnchorPoint: "Anchor-2" 674.84 714 basechar 0
AnchorPoint: "Anchor-1" 534.84 714 basechar 0
AnchorPoint: "Anchor-0" 265 0 basechar 0
LayerCount: 2
Fore
SplineSet
197.69140625 -10 m 0,0,1
 159.69140625 -10 159.69140625 -10 125.538085938 -2 c 128,-1,2
 91.384765625 6 91.384765625 6 69.38671875 19 c 1,3,-1
 87.625 98 l 1,4,5
 110.624023438 85 110.624023438 85 143.045898438 76 c 128,-1,6
 175.467773438 67 175.467773438 67 208.467773438 67 c 0,7,8
 273.467773438 67 273.467773438 67 317.471679688 106 c 128,-1,9
 361.475585938 145 361.475585938 145 379.021484375 221 c 2,10,-1
 492.83984375 714 l 1,11,-1
 577.83984375 714 l 1,12,-1
 460.790039062 207 l 2,13,14
 438.165039062 109 438.165039062 109 370.427734375 49.5 c 128,-1,15
 302.69140625 -10 302.69140625 -10 197.69140625 -10 c 0,0,1
EndSplineSet
Validated: 1572865
Substitution2: "'c2sc' Capitals to Small Capitals lookup 34 subtable" j.sc
Substitution2: "'aalt' Access All Alternates lookup 0 subtable" j.sc
EndChar

StartChar: K
Encoding: 75 75 46
Width: 530
GlyphClass: 2
Flags: W
AnchorPoint: "Anchor-2" 674.84 714 basechar 0
AnchorPoint: "Anchor-1" 429.84 714 basechar 0
AnchorPoint: "Anchor-0" 274 0 basechar 0
LayerCount: 2
Fore
SplineSet
53 0 m 1,0,-1
 217.83984375 714 l 1,1,-1
 301.83984375 714 l 1,2,-1
 217.111328125 347 l 1,3,4
 240.8828125 372 240.8828125 372 266.462890625 400.5 c 128,-1,5
 292.041992188 429 292.041992188 429 324.123046875 464 c 2,6,-1
 554.83984375 714 l 1,7,-1
 652.83984375 714 l 1,8,-1
 357.731445312 393 l 1,9,-1
 498 0 l 1,10,-1
 401 0 l 1,11,-1
 285.87890625 333 l 1,12,-1
 196.102539062 256 l 1,13,-1
 137 0 l 1,14,-1
 53 0 l 1,0,-1
EndSplineSet
Validated: 1572865
Substitution2: "'c2sc' Capitals to Small Capitals lookup 34 subtable" k.sc
Substitution2: "'aalt' Access All Alternates lookup 0 subtable" k.sc
EndChar

StartChar: L
Encoding: 76 76 47
Width: 530
GlyphClass: 2
Flags: W
AnchorPoint: "Anchor-3" 347.42 357 basechar 0
AnchorPoint: "Anchor-2" 552.84 714 basechar 0
AnchorPoint: "Anchor-1" 296.84 714 basechar 0
AnchorPoint: "Anchor-0" 288 0 basechar 0
LayerCount: 2
Fore
SplineSet
87 0 m 1,0,-1
 251.83984375 714 l 1,1,-1
 337.83984375 714 l 1,2,-1
 191.700195312 81 l 1,3,-1
 481.700195312 81 l 1,4,-1
 463 0 l 1,5,-1
 87 0 l 1,0,-1
EndSplineSet
Validated: 524289
Substitution2: "'c2sc' Capitals to Small Capitals lookup 34 subtable" l.sc
Substitution2: "'aalt' Access All Alternates lookup 0 subtable" l.sc
EndChar

StartChar: M
Encoding: 77 77 48
Width: 530
GlyphClass: 2
Flags: W
AnchorPoint: "Anchor-2" 694.84 714 basechar 0
AnchorPoint: "Anchor-1" 433.84 714 basechar 0
AnchorPoint: "Anchor-0" 265 0 basechar 0
LayerCount: 2
Fore
SplineSet
36 0 m 1,0,-1
 200.83984375 714 l 1,1,-1
 323.83984375 714 l 1,2,-1
 329.875 294 l 1,3,-1
 332.875 294 l 1,4,-1
 534.83984375 714 l 1,5,-1
 658.83984375 714 l 1,6,-1
 494 0 l 1,7,-1
 414 0 l 1,8,-1
 503.577148438 388 l 2,9,10
 517.890625 450 517.890625 450 536.012695312 515.5 c 128,-1,11
 554.134765625 581 554.134765625 581 572.524414062 639 c 1,12,-1
 568.524414062 639 l 1,13,-1
 350.25 196 l 1,14,-1
 266.25 196 l 1,15,-1
 254.524414062 639 l 1,16,-1
 249.524414062 639 l 1,17,18
 246.598632812 609 246.598632812 609 239.90234375 567 c 128,-1,19
 233.206054688 525 233.206054688 525 224.470703125 478.5 c 128,-1,20
 215.735351562 432 215.735351562 432 205.345703125 387 c 2,21,-1
 116 0 l 1,22,-1
 36 0 l 1,0,-1
EndSplineSet
Validated: 1572865
Substitution2: "'c2sc' Capitals to Small Capitals lookup 34 subtable" m.sc
Substitution2: "'aalt' Access All Alternates lookup 0 subtable" m.sc
EndChar

StartChar: N
Encoding: 78 78 49
Width: 530
GlyphClass: 2
Flags: W
AnchorPoint: "Anchor-2" 694.84 714 basechar 0
AnchorPoint: "Anchor-1" 434.84 714 basechar 0
AnchorPoint: "Anchor-0" 265 0 basechar 0
LayerCount: 2
Fore
SplineSet
53 0 m 1,0,-1
 217.83984375 714 l 1,1,-1
 334.83984375 714 l 1,2,-1
 426.163085938 96 l 1,3,-1
 430.163085938 96 l 1,4,5
 435.08984375 126 435.08984375 126 442.748046875 176.5 c 128,-1,6
 450.407226562 227 450.407226562 227 462.643554688 280 c 2,7,-1
 562.83984375 714 l 1,8,-1
 642.83984375 714 l 1,9,-1
 478 0 l 1,10,-1
 367 0 l 1,11,-1
 270.985351562 628 l 1,12,-1
 265.985351562 628 l 1,13,14
 258.44140625 578 258.44140625 578 250.62890625 529 c 128,-1,15
 242.81640625 480 242.81640625 480 230.119140625 425 c 2,16,-1
 132 0 l 1,17,-1
 53 0 l 1,0,-1
EndSplineSet
Validated: 1572865
Substitution2: "'c2sc' Capitals to Small Capitals lookup 34 subtable" n.sc
Substitution2: "'aalt' Access All Alternates lookup 0 subtable" n.sc
EndChar

StartChar: O
Encoding: 79 79 50
Width: 530
GlyphClass: 2
Flags: W
AnchorPoint: "Anchor-3" 347.42 357 basechar 0
AnchorPoint: "Anchor-2" 694.84 714 basechar 0
AnchorPoint: "Anchor-1" 429.84 714 basechar 0
AnchorPoint: "Anchor-0" 265 0 basechar 0
LayerCount: 2
Fore
SplineSet
262.69140625 -10 m 256,0,1
 176.69140625 -10 176.69140625 -10 136.50390625 39 c 128,-1,2
 96.31640625 88 96.31640625 88 93.09375 171.5 c 0,3,4
 92.7091291817 181.465641953 92.7091291817 181.465641953 92.7091291817 191.709045515 c 0,5,6
 92.7091291817 267.292947559 92.7091291817 267.292947559 113.650390625 358 c 0,7,8
 154.052734375 533 154.052734375 533 233.331054688 629.5 c 128,-1,9
 312.610351562 726 312.610351562 726 432.610351562 726 c 0,10,11
 516.610351562 726 516.610351562 726 556.913085938 677.5 c 128,-1,12
 597.215820312 629 597.215820312 629 601.553710938 546 c 0,13,14
 602.212139441 533.401811037 602.212139441 533.401811037 602.212139441 520.296768244 c 0,15,16
 602.212139441 447.062532035 602.212139441 447.062532035 581.650390625 358 c 256,17,18
 557.409179688 253 557.409179688 253 515.131835938 169.5 c 128,-1,19
 472.854492188 86 472.854492188 86 410.7734375 38 c 128,-1,20
 348.69140625 -10 348.69140625 -10 262.69140625 -10 c 256,0,1
281.467773438 67 m 256,21,22
 357.467773438 67 357.467773438 67 409.66796875 141.5 c 128,-1,23
 461.8671875 216 461.8671875 216 494.650390625 358 c 0,24,25
 515.583562831 448.670640662 515.583562831 448.670640662 515.583562831 512.255807122 c 0,26,27
 515.583562831 547.550591277 515.583562831 547.550591277 509.133789062 574.5 c 0,28,29
 491.064453125 650 491.064453125 650 416.064453125 650 c 0,30,31
 336.064453125 650 336.064453125 650 284.518554688 574 c 128,-1,32
 232.97265625 498 232.97265625 498 200.650390625 358 c 256,33,34
 180.122725133 269.084203255 180.122725133 269.084203255 180.122725133 206.185662619 c 0,35,36
 180.122725133 170.048981041 180.122725133 170.048981041 186.8984375 142.5 c 0,37,38
 205.467773438 67 205.467773438 67 281.467773438 67 c 256,21,22
EndSplineSet
Validated: 524289
Substitution2: "'c2sc' Capitals to Small Capitals lookup 34 subtable" o.sc
Substitution2: "Single Substitution lookup 32 subtable" ordmasculine
AlternateSubs2: "'aalt' Access All Alternates lookup 1 subtable" ordmasculine o.sc
EndChar

StartChar: P
Encoding: 80 80 51
Width: 530
GlyphClass: 2
Flags: W
AnchorPoint: "Anchor-2" 694.84 714 basechar 0
AnchorPoint: "Anchor-1" 429.84 714 basechar 0
AnchorPoint: "Anchor-0" 265 0 basechar 0
LayerCount: 2
Fore
SplineSet
74 0 m 1,0,-1
 238.83984375 714 l 1,1,-1
 428.83984375 714 l 2,2,3
 541.83984375 714 541.83984375 714 581.7578125 659.5 c 0,4,5
 607.048164444 624.970239479 607.048164444 624.970239479 607.048164444 572.176074126 c 0,6,7
 607.048164444 541.642641246 607.048164444 541.642641246 598.588867188 505 c 0,8,9
 583.8125 441 583.8125 441 549.422851562 389.5 c 128,-1,10
 515.033203125 338 515.033203125 338 457.9921875 307.5 c 128,-1,11
 400.950195312 277 400.950195312 277 316.950195312 277 c 2,12,-1
 221.950195312 277 l 1,13,-1
 158 0 l 1,14,-1
 74 0 l 1,0,-1
326.727539062 354 m 2,15,16
 401.727539062 354 401.727539062 354 446.4609375 387.5 c 128,-1,17
 491.1953125 421 491.1953125 421 509.434570312 500 c 0,18,19
 515.944437628 528.197402044 515.944437628 528.197402044 515.944437628 550.401240844 c 0,20,21
 515.944437628 584.105834753 515.944437628 584.105834753 500.944335938 604 c 0,22,23
 476.063476562 637 476.063476562 637 407.063476562 637 c 2,24,-1
 305.063476562 637 l 1,25,-1
 239.727539062 354 l 1,26,-1
 326.727539062 354 l 2,15,16
EndSplineSet
Validated: 1572865
Substitution2: "'c2sc' Capitals to Small Capitals lookup 34 subtable" p.sc
Substitution2: "'aalt' Access All Alternates lookup 0 subtable" p.sc
EndChar

StartChar: Q
Encoding: 81 81 52
Width: 530
GlyphClass: 2
Flags: W
AnchorPoint: "Anchor-3" 347.42 357 basechar 0
AnchorPoint: "Anchor-2" 694.84 714 basechar 0
AnchorPoint: "Anchor-1" 429.84 714 basechar 0
AnchorPoint: "Anchor-0" 214.209 -220 basechar 0
LayerCount: 2
Fore
SplineSet
262.69140625 -10 m 0,0,1
 176.69140625 -10 176.69140625 -10 136.50390625 39 c 128,-1,2
 96.31640625 88 96.31640625 88 93.09375 171.5 c 0,3,4
 92.7091291817 181.465641953 92.7091291817 181.465641953 92.7091291817 191.709045515 c 0,5,6
 92.7091291817 267.292947559 92.7091291817 267.292947559 113.650390625 358 c 0,7,8
 154.052734375 533 154.052734375 533 233.331054688 629.5 c 128,-1,9
 312.610351562 726 312.610351562 726 432.610351562 726 c 0,10,11
 516.610351562 726 516.610351562 726 556.913085938 677.5 c 128,-1,12
 597.215820312 629 597.215820312 629 601.553710938 546 c 0,13,14
 602.212139441 533.401811037 602.212139441 533.401811037 602.212139441 520.296768244 c 0,15,16
 602.212139441 447.062532035 602.212139441 447.062532035 581.650390625 358 c 0,17,18
 556.254882812 248 556.254882812 248 511.28515625 161.5 c 128,-1,19
 466.315429688 75 466.315429688 75 397.92578125 30 c 1,20,-1
 449.443359375 -180 l 1,21,-1
 356.443359375 -180 l 1,22,-1
 317.076171875 -4 l 1,23,24
 290.69140625 -10 290.69140625 -10 262.69140625 -10 c 0,0,1
281.467773438 67 m 256,25,26
 357.467773438 67 357.467773438 67 409.66796875 141.5 c 128,-1,27
 461.8671875 216 461.8671875 216 494.650390625 358 c 0,28,29
 515.583562831 448.670640662 515.583562831 448.670640662 515.583562831 512.255807122 c 0,30,31
 515.583562831 547.550591277 515.583562831 547.550591277 509.133789062 574.5 c 0,32,33
 491.064453125 650 491.064453125 650 416.064453125 650 c 0,34,35
 336.064453125 650 336.064453125 650 284.518554688 574 c 128,-1,36
 232.97265625 498 232.97265625 498 200.650390625 358 c 256,37,38
 180.122725133 269.084203255 180.122725133 269.084203255 180.122725133 206.185662619 c 0,39,40
 180.122725133 170.048981041 180.122725133 170.048981041 186.8984375 142.5 c 0,41,42
 205.467773438 67 205.467773438 67 281.467773438 67 c 256,25,26
EndSplineSet
Validated: 524289
Substitution2: "'c2sc' Capitals to Small Capitals lookup 34 subtable" q.sc
Substitution2: "'aalt' Access All Alternates lookup 0 subtable" q.sc
EndChar

StartChar: R
Encoding: 82 82 53
Width: 530
GlyphClass: 2
Flags: W
AnchorPoint: "Anchor-2" 674.84 714 basechar 0
AnchorPoint: "Anchor-1" 429.84 714 basechar 0
AnchorPoint: "Anchor-0" 282 0 basechar 0
LayerCount: 2
Fore
SplineSet
74 0 m 1,0,-1
 238.83984375 714 l 1,1,-1
 398.83984375 714 l 2,2,3
 585.210752057 714 585.210752057 714 585.210752057 575.40659114 c 0,4,5
 585.210752057 546.680340098 585.210752057 546.680340098 577.204101562 512 c 0,6,7
 557.581054688 427 557.581054688 427 512.576171875 381.5 c 128,-1,8
 467.571289062 336 467.571289062 336 414.185546875 317 c 1,9,-1
 507 0 l 1,10,-1
 412 0 l 1,11,-1
 330.64453125 293 l 1,12,-1
 225.64453125 293 l 1,13,-1
 158 0 l 1,14,-1
 74 0 l 1,0,-1
317.190429688 369 m 2,15,16
 389.190429688 369 389.190429688 369 430.270507812 404 c 128,-1,17
 471.3515625 439 471.3515625 439 487.049804688 507 c 0,18,19
 492.96960342 532.640895106 492.96960342 532.640895106 492.96960342 552.98189382 c 0,20,21
 492.96960342 588.172104296 492.96960342 588.172104296 475.251953125 607.5 c 0,22,23
 447.293945312 638 447.293945312 638 376.293945312 638 c 2,24,-1
 305.293945312 638 l 1,25,-1
 243.190429688 369 l 1,26,-1
 317.190429688 369 l 2,15,16
EndSplineSet
Validated: 1572865
Substitution2: "'c2sc' Capitals to Small Capitals lookup 34 subtable" r.sc
Substitution2: "'aalt' Access All Alternates lookup 0 subtable" r.sc
EndChar

StartChar: S
Encoding: 83 83 54
Width: 530
GlyphClass: 2
Flags: W
AnchorPoint: "Anchor-2" 674.84 714 basechar 0
AnchorPoint: "Anchor-1" 442.84 714 basechar 0
AnchorPoint: "Anchor-0" 265 0 basechar 0
LayerCount: 2
Fore
SplineSet
235.69140625 -10 m 0,0,1
 188.69140625 -10 188.69140625 -10 144.884765625 -0.5 c 128,-1,2
 101.078125 9 101.078125 9 73.771484375 25 c 1,3,-1
 92.0107421875 104 l 1,4,5
 125.0859375 87 125.0859375 87 167.161132812 76.5 c 128,-1,6
 209.237304688 66 209.237304688 66 252.237304688 66 c 0,7,8
 327.237304688 66 327.237304688 66 369.317382812 101 c 128,-1,9
 411.3984375 136 411.3984375 136 423.633789062 189 c 0,10,11
 427.505326741 205.769729002 427.505326741 205.769729002 427.505326741 219.560827429 c 0,12,13
 427.505326741 236.197808177 427.505326741 236.197808177 421.87109375 248.5 c 0,14,15
 411.565429688 271 411.565429688 271 383.952148438 290 c 128,-1,16
 356.337890625 309 356.337890625 309 312.87890625 333 c 0,17,18
 275.49609375 353 275.49609375 353 245.383789062 378.5 c 128,-1,19
 215.270507812 404 215.270507812 404 201.543945312 442 c 0,20,21
 194.594900817 461.236054593 194.594900817 461.236054593 194.594900817 485.597120216 c 0,22,23
 194.594900817 509.360293853 194.594900817 509.360293853 201.20703125 538 c 0,24,25
 223.139648438 633 223.139648438 633 290.759765625 679 c 128,-1,26
 358.379882812 725 358.379882812 725 451.379882812 725 c 0,27,28
 497.379882812 725 497.379882812 725 538.5703125 715 c 128,-1,29
 579.76171875 705 579.76171875 705 614.606445312 687 c 1,30,-1
 567.984375 615 l 1,31,32
 539.447265625 630 539.447265625 630 505.140625 639.5 c 128,-1,33
 470.833007812 649 470.833007812 649 434.833007812 649 c 0,34,35
 373.833007812 649 373.833007812 649 336.75390625 620.5 c 128,-1,36
 299.673828125 592 299.673828125 592 287.668945312 540 c 0,37,38
 283.749477985 523.022661701 283.749477985 523.022661701 283.749477985 508.887620854 c 0,39,40
 283.749477985 492.217095945 283.749477985 492.217095945 289.201171875 479.5 c 0,41,42
 299.276367188 456 299.276367188 456 325.120117188 438 c 128,-1,43
 350.96484375 420 350.96484375 420 389.885742188 398 c 0,44,45
 433.344726562 374 433.344726562 374 465.688476562 349.5 c 128,-1,46
 498.032226562 325 498.032226562 325 511.60546875 288.5 c 0,47,48
 518.380148003 270.282112974 518.380148003 270.282112974 518.380148003 246.459004202 c 128,-1,49
 518.380148003 222.551908644 518.380148003 222.551908644 511.557617188 193 c 0,50,51
 488.932617188 95 488.932617188 95 416.311523438 42.5 c 128,-1,52
 343.69140625 -10 343.69140625 -10 235.69140625 -10 c 0,0,1
EndSplineSet
Validated: 1572865
Substitution2: "'c2sc' Capitals to Small Capitals lookup 34 subtable" s.sc
Substitution2: "'aalt' Access All Alternates lookup 0 subtable" s.sc
EndChar

StartChar: T
Encoding: 84 84 55
Width: 530
GlyphClass: 2
Flags: W
AnchorPoint: "Anchor-3" 347.42 357 basechar 0
AnchorPoint: "Anchor-2" 674.84 714 basechar 0
AnchorPoint: "Anchor-1" 429.84 714 basechar 0
AnchorPoint: "Anchor-0" 265 0 basechar 0
LayerCount: 2
Fore
SplineSet
221 0 m 1,0,-1
 367.6015625 635 l 1,1,-1
 184.6015625 635 l 1,2,-1
 202.83984375 714 l 1,3,-1
 656.83984375 714 l 1,4,-1
 638.6015625 635 l 1,5,-1
 453.6015625 635 l 1,6,-1
 307 0 l 1,7,-1
 221 0 l 1,0,-1
EndSplineSet
Validated: 524289
Substitution2: "'c2sc' Capitals to Small Capitals lookup 34 subtable" t.sc
Substitution2: "'aalt' Access All Alternates lookup 0 subtable" t.sc
EndChar

StartChar: U
Encoding: 85 85 56
Width: 530
GlyphClass: 2
Flags: W
AnchorPoint: "Anchor-2" 674.84 714 basechar 0
AnchorPoint: "Anchor-1" 429.84 714 basechar 0
AnchorPoint: "Anchor-0" 265 0 basechar 0
LayerCount: 2
Fore
SplineSet
262.69140625 -10 m 0,0,1
 154.69140625 -10 154.69140625 -10 116.774414062 51 c 0,2,3
 94.7100126467 86.4967102798 94.7100126467 86.4967102798 94.7100126467 141.294935507 c 0,4,5
 94.7100126467 180.665767427 94.7100126467 180.665767427 106.099609375 230 c 2,6,-1
 217.83984375 714 l 1,7,-1
 302.83984375 714 l 1,8,-1
 191.791992188 233 l 2,9,10
 182.603087265 193.197761817 182.603087265 193.197761817 182.603087265 163.049914375 c 0,11,12
 182.603087265 129.572717077 182.603087265 129.572717077 193.93359375 108 c 0,13,14
 215.467773438 67 215.467773438 67 281.467773438 67 c 0,15,16
 348.467773438 67 348.467773438 67 387.665039062 109 c 128,-1,17
 426.861328125 151 426.861328125 151 446.0234375 234 c 2,18,-1
 556.83984375 714 l 1,19,-1
 642.83984375 714 l 1,20,-1
 530.869140625 229 l 2,21,22
 504.087890625 113 504.087890625 113 438.389648438 51.5 c 128,-1,23
 372.69140625 -10 372.69140625 -10 262.69140625 -10 c 0,0,1
EndSplineSet
Validated: 1572865
Substitution2: "'c2sc' Capitals to Small Capitals lookup 34 subtable" u.sc
Substitution2: "'aalt' Access All Alternates lookup 0 subtable" u.sc
EndChar

StartChar: V
Encoding: 86 86 57
Width: 530
GlyphClass: 2
Flags: W
AnchorPoint: "Anchor-2" 674.84 714 basechar 0
AnchorPoint: "Anchor-1" 429.84 714 basechar 0
AnchorPoint: "Anchor-0" 265 0 basechar 0
LayerCount: 2
Fore
SplineSet
220 0 m 1,0,-1
 182.83984375 714 l 1,1,-1
 266.83984375 714 l 1,2,-1
 284.948242188 251 l 2,3,4
 285.432955944 215.263024142 285.432955944 215.263024142 285.432955944 180.156730479 c 0,5,6
 285.432955944 171.057179161 285.432955944 171.057179161 285.400390625 162 c 0,7,8
 285.2421875 118 285.2421875 118 283.162109375 83 c 1,9,-1
 285.162109375 83 l 1,10,11
 299.2421875 118 299.2421875 118 319.015625 162.5 c 128,-1,12
 338.790039062 207 338.790039062 207 361.640625 254 c 2,13,-1
 592.83984375 714 l 1,14,-1
 676.83984375 714 l 1,15,-1
 309 0 l 1,16,-1
 220 0 l 1,0,-1
EndSplineSet
Validated: 1572865
Substitution2: "'c2sc' Capitals to Small Capitals lookup 34 subtable" v.sc
Substitution2: "'aalt' Access All Alternates lookup 0 subtable" v.sc
EndChar

StartChar: W
Encoding: 87 87 58
Width: 530
GlyphClass: 2
Flags: W
AnchorPoint: "Anchor-2" 674.84 714 basechar 0
AnchorPoint: "Anchor-1" 429.84 714 basechar 0
AnchorPoint: "Anchor-0" 265 0 basechar 0
LayerCount: 2
Fore
SplineSet
85 0 m 1,0,-1
 182.83984375 714 l 1,1,-1
 255.83984375 714 l 1,2,3
 244.6015625 635 244.6015625 635 233.747070312 555.5 c 128,-1,4
 222.893554688 476 222.893554688 476 211.654296875 397 c 0,5,6
 207.190429688 369 207.190429688 369 200.301757812 324 c 128,-1,7
 193.412109375 279 193.412109375 279 185.21484375 230.5 c 128,-1,8
 177.017578125 182 177.017578125 182 169.783203125 142 c 128,-1,9
 162.548828125 102 162.548828125 102 158.624023438 85 c 1,10,-1
 161.624023438 85 l 1,11,12
 169.703125 107 169.703125 107 184.9375 147 c 128,-1,13
 200.171875 187 200.171875 187 216.984375 229.5 c 128,-1,14
 233.795898438 272 233.795898438 272 246.953125 303 c 2,15,-1
 345.745117188 536 l 1,16,-1
 431.745117188 536 l 1,17,-1
 425.491210938 301 l 2,18,19
 424.641601562 267 424.641601562 267 422.4453125 225 c 128,-1,20
 420.249023438 183 420.249023438 183 417.091796875 145.5 c 128,-1,21
 413.93359375 108 413.93359375 108 411.624023438 85 c 1,22,-1
 415.624023438 85 l 1,23,24
 419.548828125 102 419.548828125 102 430.283203125 142 c 128,-1,25
 441.017578125 182 441.017578125 182 454.21484375 230.5 c 128,-1,26
 467.412109375 279 467.412109375 279 479.916992188 324.5 c 128,-1,27
 492.420898438 370 492.420898438 370 502.116210938 399 c 0,28,29
 526.35546875 478 526.35546875 478 550.478515625 556.5 c 128,-1,30
 574.6015625 635 574.6015625 635 599.83984375 714 c 1,31,-1
 676.83984375 714 l 1,32,-1
 450 0 l 1,33,-1
 351 0 l 1,34,-1
 364.494140625 327 l 2,35,36
 366.8828125 372 366.8828125 372 367.84765625 400 c 128,-1,37
 368.811523438 428 368.811523438 428 369.966796875 446 c 1,38,-1
 366.966796875 446 l 1,39,40
 359.811523438 428 359.811523438 428 348.84765625 400 c 128,-1,41
 337.8828125 372 337.8828125 372 318.494140625 327 c 2,42,-1
 183 0 l 1,43,-1
 85 0 l 1,0,-1
EndSplineSet
Validated: 1572865
Substitution2: "'c2sc' Capitals to Small Capitals lookup 34 subtable" w.sc
Substitution2: "'aalt' Access All Alternates lookup 0 subtable" w.sc
EndChar

StartChar: X
Encoding: 88 88 59
Width: 530
GlyphClass: 2
Flags: W
AnchorPoint: "Anchor-2" 674.84 714 basechar 0
AnchorPoint: "Anchor-1" 429.84 714 basechar 0
AnchorPoint: "Anchor-0" 265 0 basechar 0
LayerCount: 2
Fore
SplineSet
25 0 m 1,0,-1
 302.8828125 372 l 1,1,-1
 202.83984375 714 l 1,2,-1
 295.83984375 714 l 1,3,-1
 367.274414062 443 l 1,4,-1
 564.83984375 714 l 1,5,-1
 656.83984375 714 l 1,6,-1
 394.190429688 369 l 1,7,-1
 506 0 l 1,8,-1
 413 0 l 1,9,-1
 331.260742188 300 l 1,10,-1
 116 0 l 1,11,-1
 25 0 l 1,0,-1
EndSplineSet
Validated: 1572865
Substitution2: "'c2sc' Capitals to Small Capitals lookup 34 subtable" x.sc
Substitution2: "'aalt' Access All Alternates lookup 0 subtable" x.sc
EndChar

StartChar: Y
Encoding: 89 89 60
Width: 530
GlyphClass: 2
Flags: W
AnchorPoint: "Anchor-2" 674.84 714 basechar 0
AnchorPoint: "Anchor-1" 429.84 714 basechar 0
AnchorPoint: "Anchor-0" 265 0 basechar 0
LayerCount: 2
Fore
SplineSet
223 0 m 1,0,-1
 286.48828125 275 l 1,1,-1
 189.83984375 714 l 1,2,-1
 282.83984375 714 l 1,3,-1
 346.265625 352 l 1,4,-1
 578.83984375 714 l 1,5,-1
 670.83984375 714 l 1,6,-1
 369.48828125 275 l 1,7,-1
 306 0 l 1,8,-1
 223 0 l 1,0,-1
EndSplineSet
Validated: 1572865
Substitution2: "'c2sc' Capitals to Small Capitals lookup 34 subtable" y.sc
Substitution2: "'aalt' Access All Alternates lookup 0 subtable" y.sc
EndChar

StartChar: Z
Encoding: 90 90 61
Width: 530
GlyphClass: 2
Flags: W
AnchorPoint: "Anchor-2" 674.84 714 basechar 0
AnchorPoint: "Anchor-1" 440.84 714 basechar 0
AnchorPoint: "Anchor-0" 283 0 basechar 0
LayerCount: 2
Fore
SplineSet
74 0 m 1,0,-1
 90.1611328125 70 l 1,1,-1
 513.83203125 636 l 1,2,-1
 235.83203125 636 l 1,3,-1
 253.83984375 714 l 1,4,-1
 622.83984375 714 l 1,5,-1
 606.678710938 644 l 1,6,-1
 186.23828125 79 l 1,7,-1
 481.23828125 79 l 1,8,-1
 463 0 l 1,9,-1
 74 0 l 1,0,-1
EndSplineSet
Validated: 1572865
Substitution2: "'c2sc' Capitals to Small Capitals lookup 34 subtable" z.sc
Substitution2: "'aalt' Access All Alternates lookup 0 subtable" z.sc
EndChar

StartChar: bracketleft
Encoding: 91 91 62
Width: 530
Flags: W
LayerCount: 2
Fore
SplineSet
162.061523438 -160 m 1,0,-1
 364.763671875 718 l 1,1,-1
 578.763671875 718 l 1,2,-1
 562.833007812 649 l 1,3,-1
 427.833007812 649 l 1,4,-1
 256.991210938 -91 l 1,5,-1
 391.991210938 -91 l 1,6,-1
 376.061523438 -160 l 1,7,-1
 162.061523438 -160 l 1,0,-1
EndSplineSet
Validated: 524289
Substitution2: "'smcp' Lowercase to Small Capitals lookup 35 subtable" bracketleft.sc
Substitution2: "'c2sc' Capitals to Small Capitals lookup 34 subtable" bracketleft.sc
Substitution2: "'aalt' Access All Alternates lookup 0 subtable" bracketleft.sc
EndChar

StartChar: backslash
Encoding: 92 92 63
Width: 530
Flags: W
LayerCount: 2
Fore
SplineSet
437.538085938 -2 m 1,0,-1
 357.538085938 -2 l 1,1,-1
 257.301757812 716 l 1,2,-1
 336.301757812 716 l 1,3,-1
 437.538085938 -2 l 1,0,-1
EndSplineSet
Validated: 524289
EndChar

StartChar: asciicircum
Encoding: 94 94 65
Width: 530
Flags: W
LayerCount: 2
Fore
SplineSet
117.26171875 313 m 1,0,-1
 402.0703125 715 l 1,1,-1
 450.0703125 715 l 1,2,-1
 556.26171875 313 l 1,3,-1
 478.26171875 313 l 1,4,-1
 402.752929688 614 l 1,5,-1
 195.26171875 313 l 1,6,-1
 117.26171875 313 l 1,0,-1
EndSplineSet
Validated: 524289
EndChar

StartChar: underscore
Encoding: 95 95 66
Width: 530
Flags: W
LayerCount: 2
Fore
SplineSet
-36.015625 -156 m 1,0,-1
 -17.7763671875 -77 l 1,1,-1
 512.223632812 -77 l 1,2,-1
 493.984375 -156 l 1,3,-1
 -36.015625 -156 l 1,0,-1
EndSplineSet
Validated: 524289
EndChar

StartChar: grave
Encoding: 96 96 67
Width: 530
Flags: W
LayerCount: 2
Fore
SplineSet
406.90625 606 m 1,0,1
 389.831054688 623 389.831054688 623 369.294921875 651 c 128,-1,2
 348.759765625 679 348.759765625 679 330.838867188 707.5 c 128,-1,3
 312.918945312 736 312.918945312 736 305.767578125 757 c 1,4,-1
 307.844726562 766 l 1,5,-1
 406.844726562 766 l 1,6,7
 412.53515625 743 412.53515625 743 422.186523438 715.5 c 128,-1,8
 431.836914062 688 431.836914062 688 442.834960938 662 c 128,-1,9
 453.83203125 636 453.83203125 636 463.4453125 617 c 1,10,-1
 460.90625 606 l 1,11,-1
 406.90625 606 l 1,0,1
EndSplineSet
Validated: 524289
EndChar

StartChar: a
Encoding: 97 97 68
Width: 530
GlyphClass: 2
Flags: W
AnchorPoint: "Anchor-2" 633.745 536 basechar 0
AnchorPoint: "Anchor-1" 400.745 536 basechar 0
AnchorPoint: "Anchor-0" 266 0 basechar 0
LayerCount: 2
Fore
SplineSet
217.69140625 -10 m 0,0,1
 149.69140625 -10 149.69140625 -10 114.1953125 29 c 0,2,3
 90.9469924895 54.5432185524 90.9469924895 54.5432185524 90.9469924895 98.1029739808 c 0,4,5
 90.9469924895 121.05130007 90.9469924895 121.05130007 97.3994140625 149 c 0,6,7
 117.0234375 234 117.0234375 234 181.604492188 275.5 c 128,-1,8
 246.185546875 317 246.185546875 317 352.877929688 320 c 2,9,-1
 454.5703125 323 l 1,10,-1
 461.727539062 354 l 2,11,12
 467.444486453 378.763452653 467.444486453 378.763452653 467.444486453 397.994323933 c 0,13,14
 467.444486453 430.79449993 467.444486453 430.79449993 450.813476562 447.5 c 0,15,16
 424.431640625 474 424.431640625 474 373.431640625 474 c 0,17,18
 335.431640625 474 335.431640625 474 296.661132812 462 c 128,-1,19
 257.890625 450 257.890625 450 222.735351562 432 c 1,20,-1
 208.203125 499 l 1,21,22
 252.051757812 520 252.051757812 520 297.16796875 533.5 c 128,-1,23
 342.28515625 547 342.28515625 547 395.28515625 547 c 0,24,25
 487.28515625 547 487.28515625 547 527.01171875 502.5 c 0,26,27
 552.799592529 473.612814171 552.799592529 473.612814171 552.799592529 424.287920476 c 0,28,29
 552.799592529 397.629027368 552.799592529 397.629027368 545.266601562 365 c 2,30,-1
 461 0 l 1,31,-1
 396 0 l 1,32,-1
 397.315429688 75 l 1,33,-1
 394.315429688 75 l 1,34,35
 355.849609375 34 355.849609375 34 312.770507812 12 c 128,-1,36
 269.69140625 -10 269.69140625 -10 217.69140625 -10 c 0,0,1
254.544921875 63 m 0,37,38
 290.544921875 63 290.544921875 63 325.73828125 79 c 128,-1,39
 360.932617188 95 360.932617188 95 388.666992188 128.5 c 128,-1,40
 416.400390625 162 416.400390625 162 428.40625 214 c 2,41,-1
 439.487304688 262 l 1,42,-1
 358.794921875 259 l 2,43,44
 279.102539062 256 279.102539062 256 237.369140625 229 c 128,-1,45
 195.635742188 202 195.635742188 202 183.861328125 151 c 0,46,47
 180.195527214 135.121351253 180.195527214 135.121351253 180.195527214 122.267367232 c 0,48,49
 180.195527214 97.0742063975 180.195527214 97.0742063975 194.27734375 83.5 c 0,50,51
 215.544921875 63 215.544921875 63 254.544921875 63 c 0,37,38
EndSplineSet
Validated: 1572865
Substitution2: "'smcp' Lowercase to Small Capitals lookup 35 subtable" a.sc
Substitution2: "Single Substitution lookup 32 subtable" ordfeminine
AlternateSubs2: "'aalt' Access All Alternates lookup 1 subtable" ordfeminine a.sc
EndChar

StartChar: b
Encoding: 98 98 69
Width: 530
GlyphClass: 2
Flags: W
AnchorPoint: "Anchor-2" 685.46 760 basechar 0
AnchorPoint: "Anchor-1" 440.46 760 basechar 0
AnchorPoint: "Anchor-0" 265 0 basechar 0
LayerCount: 2
Fore
SplineSet
293.69140625 -10 m 0,0,1
 243.69140625 -10 243.69140625 -10 212.655273438 11.5 c 128,-1,2
 181.618164062 33 181.618164062 33 164.69921875 68 c 1,3,-1
 158.69921875 68 l 1,4,-1
 130 0 l 1,5,-1
 66 0 l 1,6,-1
 241.459960938 760 l 1,7,-1
 325.459960938 760 l 1,8,-1
 282.98046875 576 l 2,9,10
 276.515625 548 276.515625 548 269.666992188 520.5 c 128,-1,11
 262.818359375 493 262.818359375 493 253.353515625 465 c 1,12,-1
 257.353515625 465 l 1,13,14
 287.203125 499 287.203125 499 328.244140625 523 c 128,-1,15
 369.28515625 547 369.28515625 547 423.28515625 547 c 0,16,17
 510.28515625 547 510.28515625 547 545.008789062 476.5 c 0,18,19
 563.180372136 439.60591655 563.180372136 439.60591655 563.180372136 384.49986576 c 0,20,21
 563.180372136 334.305114431 563.180372136 334.305114431 548.103515625 269 c 256,22,23
 516.474609375 132 516.474609375 132 448.583007812 61 c 128,-1,24
 380.69140625 -10 380.69140625 -10 293.69140625 -10 c 0,0,1
288.544921875 63 m 0,25,26
 350.544921875 63 350.544921875 63 393.665039062 115.5 c 128,-1,27
 436.786132812 168 436.786132812 168 459.873046875 268 c 0,28,29
 472.980593653 324.77532541 472.980593653 324.77532541 472.980593653 365.9028956 c 0,30,31
 472.980593653 474 472.980593653 474 382.431640625 474 c 0,32,33
 322.431640625 474 322.431640625 474 279.272460938 423.5 c 128,-1,34
 236.114257812 373 236.114257812 373 213.02734375 273 c 0,35,36
 199.399605889 213.971906105 199.399605889 213.971906105 199.399605889 171.535792537 c 0,37,38
 199.399605889 63 199.399605889 63 288.544921875 63 c 0,25,26
EndSplineSet
Validated: 1572865
Substitution2: "'smcp' Lowercase to Small Capitals lookup 35 subtable" b.sc
Substitution2: "'aalt' Access All Alternates lookup 0 subtable" b.sc
EndChar

StartChar: c
Encoding: 99 99 70
Width: 530
GlyphClass: 2
Flags: W
AnchorPoint: "Anchor-2" 633.745 536 basechar 0
AnchorPoint: "Anchor-1" 421.745 536 basechar 0
AnchorPoint: "Anchor-0" 303 0 basechar 0
LayerCount: 2
Fore
SplineSet
308.69140625 -10 m 0,0,1
 200.69140625 -10 200.69140625 -10 151.58203125 54.5 c 0,2,3
 122.461090326 92.7480542912 122.461090326 92.7480542912 122.461090326 159.654834152 c 0,4,5
 122.461090326 205.576991109 122.461090326 205.576991109 136.1796875 265 c 0,6,7
 159.728515625 367 159.728515625 367 205.041992188 429 c 128,-1,8
 250.356445312 491 250.356445312 491 311.3203125 519 c 128,-1,9
 372.28515625 547 372.28515625 547 441.28515625 547 c 0,10,11
 520.28515625 547 520.28515625 547 578.897460938 515 c 1,12,-1
 535.505859375 444 l 1,13,14
 510.19921875 460 510.19921875 460 485.084960938 466 c 128,-1,15
 459.969726562 472 459.969726562 472 428.969726562 472 c 0,16,17
 348.969726562 472 348.969726562 472 298.310546875 421.5 c 128,-1,18
 247.65234375 371 247.65234375 371 223.411132812 266 c 0,19,20
 212.087767926 216.954376766 212.087767926 216.954376766 212.087767926 180.325756307 c 0,21,22
 212.087767926 137.790661177 212.087767926 137.790661177 227.357421875 112 c 0,23,24
 255.775390625 64 255.775390625 64 331.775390625 64 c 0,25,26
 368.775390625 64 368.775390625 64 404.853515625 73 c 128,-1,27
 440.931640625 82 440.931640625 82 473.163085938 96 c 1,28,-1
 455.6171875 20 l 1,29,30
 423.384765625 6 423.384765625 6 385.538085938 -2 c 128,-1,31
 347.69140625 -10 347.69140625 -10 308.69140625 -10 c 0,0,1
EndSplineSet
Validated: 1572865
Substitution2: "'smcp' Lowercase to Small Capitals lookup 35 subtable" c.sc
Substitution2: "'aalt' Access All Alternates lookup 0 subtable" c.sc
EndChar

StartChar: d
Encoding: 100 100 71
Width: 530
GlyphClass: 2
Flags: W
AnchorPoint: "Anchor-3" 326.873 268 basechar 0
AnchorPoint: "Anchor-2" 685.46 760 basechar 0
AnchorPoint: "Anchor-1" 440.46 760 basechar 0
AnchorPoint: "Anchor-0" 265 0 basechar 0
LayerCount: 2
Fore
SplineSet
234.69140625 -10 m 0,0,1
 146.69140625 -10 146.69140625 -10 110.852539062 60 c 0,2,3
 91.8792644051 97.0573386224 91.8792644051 97.0573386224 91.8792644051 153.171973472 c 0,4,5
 91.8792644051 203.055896141 91.8792644051 203.055896141 106.873046875 268 c 0,6,7
 138.270507812 404 138.270507812 404 206.27734375 475.5 c 128,-1,8
 274.28515625 547 274.28515625 547 367.28515625 547 c 0,9,10
 418.28515625 547 418.28515625 547 447.474609375 524 c 128,-1,11
 476.665039062 501 476.665039062 501 488.815429688 467 c 1,12,-1
 493.815429688 467 l 1,13,14
 497.28125 508 497.28125 508 506.28515625 547 c 2,15,-1
 555.459960938 760 l 1,16,-1
 639.459960938 760 l 1,17,-1
 464 0 l 1,18,-1
 398 0 l 1,19,-1
 400.622070312 72 l 1,20,-1
 396.622070312 72 l 1,21,22
 368.7734375 38 368.7734375 38 328.732421875 14 c 128,-1,23
 288.69140625 -10 288.69140625 -10 234.69140625 -10 c 0,0,1
274.544921875 63 m 0,24,25
 340.544921875 63 340.544921875 63 379.47265625 112.5 c 128,-1,26
 418.400390625 162 418.400390625 162 438.024414062 247 c 2,27,-1
 442.641601562 267 l 2,28,29
 456.788202637 328.275272832 456.788202637 328.275272832 456.788202637 373.325426177 c 0,30,31
 456.788202637 398.120160827 456.788202637 398.120160827 452.502929688 418 c 0,32,33
 440.431640625 474 440.431640625 474 372.431640625 474 c 0,34,35
 241.431640625 474 241.431640625 474 192.025390625 260 c 0,36,37
 179.447380355 205.518452752 179.447380355 205.518452752 179.447380355 166.026450594 c 0,38,39
 179.447380355 134.481259298 179.447380355 134.481259298 187.47265625 112.5 c 0,40,41
 205.544921875 63 205.544921875 63 274.544921875 63 c 0,24,25
EndSplineSet
Validated: 524289
Substitution2: "'smcp' Lowercase to Small Capitals lookup 35 subtable" d.sc
Substitution2: "'aalt' Access All Alternates lookup 0 subtable" d.sc
EndChar

StartChar: e
Encoding: 101 101 72
Width: 530
GlyphClass: 2
Flags: W
AnchorPoint: "Anchor-2" 633.745 536 basechar 0
AnchorPoint: "Anchor-1" 392.745 536 basechar 0
AnchorPoint: "Anchor-0" 275 0 basechar 0
LayerCount: 2
Fore
SplineSet
298.69140625 -10 m 0,0,1
 181.69140625 -10 181.69140625 -10 131.083007812 61 c 0,2,3
 99.5850310849 105.189431334 99.5850310849 105.189431334 99.5850310849 173.39547885 c 0,4,5
 99.5850310849 214.777385456 99.5850310849 214.777385456 111.1796875 265 c 0,6,7
 141.654296875 397 141.654296875 397 218.969726562 472 c 128,-1,8
 296.28515625 547 296.28515625 547 399.28515625 547 c 0,9,10
 465.28515625 547 465.28515625 547 504.127929688 516 c 128,-1,11
 542.970703125 485 542.970703125 485 555.158203125 429.5 c 0,12,13
 560.231957036 406.393053748 560.231957036 406.393053748 560.231957036 380.079314914 c 0,14,15
 560.231957036 343.190738331 560.231957036 343.190738331 550.260742188 300 c 2,16,-1
 538.716796875 250 l 1,17,-1
 193.716796875 250 l 1,18,19
 186.484456258 213.826278825 186.484456258 213.826278825 186.484456258 184.884355013 c 0,20,21
 186.484456258 136.218376775 186.484456258 136.218376775 206.93359375 108 c 0,22,23
 239.544921875 63 239.544921875 63 318.544921875 63 c 0,24,25
 359.544921875 63 359.544921875 63 399.19921875 74.5 c 128,-1,26
 438.854492188 86 438.854492188 86 483.241210938 105 c 1,27,-1
 465.233398438 27 l 1,28,29
 380.69140625 -10 380.69140625 -10 298.69140625 -10 c 0,0,1
470.108398438 321 m 1,30,31
 476.046313164 348.469364751 476.046313164 348.469364751 476.046313164 371.777519945 c 0,32,33
 476.046313164 406.16835297 476.046313164 406.16835297 463.119140625 431.5 c 0,34,35
 441.431640625 474 441.431640625 474 381.431640625 474 c 0,36,37
 323.431640625 474 323.431640625 474 279.581054688 433.5 c 128,-1,38
 235.731445312 393 235.731445312 393 212.108398438 321 c 1,39,-1
 470.108398438 321 l 1,30,31
EndSplineSet
Validated: 1572865
Substitution2: "'smcp' Lowercase to Small Capitals lookup 35 subtable" e.sc
Substitution2: "'aalt' Access All Alternates lookup 0 subtable" e.sc
EndChar

StartChar: f
Encoding: 102 102 73
Width: 530
GlyphClass: 2
Flags: W
AnchorPoint: "Anchor-2" 713.614 765 basechar 0
AnchorPoint: "Anchor-1" 524.383 764 basechar 0
AnchorPoint: "Anchor-0" 265 0 basechar 0
LayerCount: 2
Fore
SplineSet
205 0 m 1,0,-1
 311.891601562 463 l 1,1,-1
 161.891601562 463 l 1,2,-1
 175.744140625 523 l 1,3,-1
 329.20703125 538 l 1,4,-1
 340.981445312 589 l 2,5,6
 356.680664062 657 356.680664062 657 384.953125 695 c 128,-1,7
 413.2265625 733 413.2265625 733 454.919921875 749 c 128,-1,8
 496.614257812 765 496.614257812 765 550.614257812 765 c 0,9,10
 585.614257812 765 585.614257812 765 614.959960938 760 c 128,-1,11
 644.305664062 755 644.305664062 755 665.458984375 747 c 1,12,-1
 629.759765625 679 l 1,13,14
 610.375976562 686 610.375976562 686 587.68359375 689.5 c 128,-1,15
 564.991210938 693 564.991210938 693 542.991210938 693 c 0,16,17
 496.991210938 693 496.991210938 693 468.028320312 671.5 c 128,-1,18
 439.064453125 650 439.064453125 650 424.2890625 586 c 2,19,-1
 412.745117188 536 l 1,20,-1
 593.745117188 536 l 1,21,-1
 576.891601562 463 l 1,22,-1
 395.891601562 463 l 1,23,-1
 289 0 l 1,24,-1
 205 0 l 1,0,-1
EndSplineSet
Validated: 1572865
Substitution2: "'smcp' Lowercase to Small Capitals lookup 35 subtable" f.sc
Substitution2: "'aalt' Access All Alternates lookup 0 subtable" f.sc
EndChar

StartChar: g
Encoding: 103 103 74
Width: 530
GlyphClass: 2
Flags: W
AnchorPoint: "Anchor-2" 633.745 536 basechar 0
AnchorPoint: "Anchor-1" 388.745 536 basechar 0
AnchorPoint: "Anchor-0" 208.438 -245 basechar 0
LayerCount: 2
Fore
SplineSet
187.4375 -245 m 0,0,1
 95.4375 -245 95.4375 -245 29.517578125 -210 c 1,2,-1
 47.9873046875 -130 l 1,3,4
 80.3701171875 -150 80.3701171875 -150 123.830078125 -161 c 128,-1,5
 167.291015625 -172 167.291015625 -172 204.291015625 -172 c 0,6,7
 277.291015625 -172 277.291015625 -172 318.872070312 -130.5 c 128,-1,8
 360.453125 -89 360.453125 -89 376.61328125 -19 c 2,9,-1
 382.154296875 5 l 2,10,11
 384.924804688 17 384.924804688 17 390.311523438 36 c 128,-1,12
 395.697265625 55 395.697265625 55 399.69921875 68 c 1,13,-1
 396.69921875 68 l 1,14,15
 363.233398438 27 363.233398438 27 323.578125 9 c 128,-1,16
 283.921875 -9 283.921875 -9 238.921875 -9 c 0,17,18
 146.921875 -9 146.921875 -9 111.544921875 63 c 0,19,20
 92.4721022731 101.816375731 92.4721022731 101.816375731 92.4721022731 157.780890056 c 0,21,22
 92.4721022731 205.624239177 92.4721022731 205.624239177 106.411132812 266 c 0,23,24
 136.423828125 396 136.423828125 396 205.354492188 471.5 c 128,-1,25
 274.28515625 547 274.28515625 547 365.28515625 547 c 0,26,27
 458.28515625 547 458.28515625 547 488.815429688 467 c 1,28,-1
 493.815429688 467 l 1,29,-1
 519.745117188 536 l 1,30,-1
 587.745117188 536 l 1,31,-1
 460.767578125 -14 l 2,32,33
 407.4375 -245 407.4375 -245 187.4375 -245 c 0,0,1
279.544921875 63 m 0,34,35
 338.544921875 63 338.544921875 63 379.203125 107 c 128,-1,36
 419.861328125 151 419.861328125 151 441.793945312 246 c 2,37,-1
 446.641601562 267 l 2,38,39
 460.610497962 327.506352446 460.610497962 327.506352446 460.610497962 369.651114258 c 0,40,41
 460.610497962 402.732078204 460.610497962 402.732078204 452.00390625 424.5 c 0,42,43
 432.431640625 474 432.431640625 474 371.431640625 474 c 0,44,45
 305.431640625 474 305.431640625 474 260.96484375 420 c 128,-1,46
 216.498046875 366 216.498046875 366 193.641601562 267 c 0,47,48
 181.550380132 214.62738148 181.550380132 214.62738148 181.550380132 175.420640579 c 0,49,50
 181.550380132 139.76623837 181.550380132 139.76623837 191.549804688 115 c 0,51,52
 212.544921875 63 212.544921875 63 279.544921875 63 c 0,34,35
EndSplineSet
Validated: 1572865
Substitution2: "'smcp' Lowercase to Small Capitals lookup 35 subtable" g.sc
Substitution2: "'aalt' Access All Alternates lookup 0 subtable" g.sc
EndChar

StartChar: h
Encoding: 104 104 75
Width: 530
GlyphClass: 2
Flags: W
AnchorPoint: "Anchor-3" 326.873 268 basechar 0
AnchorPoint: "Anchor-2" 685.46 760 basechar 0
AnchorPoint: "Anchor-1" 283.46 760 basechar 0
AnchorPoint: "Anchor-0" 265 0 basechar 0
LayerCount: 2
Fore
SplineSet
66 0 m 1,0,-1
 241.459960938 760 l 1,1,-1
 325.459960938 760 l 1,2,-1
 273.745117188 536 l 2,3,4
 269.58984375 518 269.58984375 518 263.241210938 497 c 128,-1,5
 256.893554688 476 256.893554688 476 251.96875 459 c 1,6,-1
 256.96875 459 l 1,7,8
 288.434570312 500 288.434570312 500 329.859375 523.5 c 128,-1,9
 371.28515625 547 371.28515625 547 424.28515625 547 c 0,10,11
 499.28515625 547 499.28515625 547 536.434570312 500 c 0,12,13
 559.084459117 471.343484533 559.084459117 471.343484533 559.084459117 421.868965802 c 0,14,15
 559.084459117 390.19955121 559.084459117 390.19955121 549.803710938 350 c 2,16,-1
 469 0 l 1,17,-1
 385 0 l 1,18,-1
 461.87890625 333 l 2,19,20
 469.472311854 365.890330436 469.472311854 365.890330436 469.472311854 391.108506006 c 0,21,22
 469.472311854 474 469.472311854 474 387.431640625 474 c 0,23,24
 324.431640625 474 324.431640625 474 280.041992188 422.5 c 128,-1,25
 235.65234375 371 235.65234375 371 214.412109375 279 c 2,26,-1
 150 0 l 1,27,-1
 66 0 l 1,0,-1
EndSplineSet
Validated: 524289
Substitution2: "'smcp' Lowercase to Small Capitals lookup 35 subtable" h.sc
Substitution2: "'subs' Subscript lookup 22 subtable" uni2095
AlternateSubs2: "'aalt' Access All Alternates lookup 1 subtable" h.sc uni2095
EndChar

StartChar: i
Encoding: 105 105 76
Width: 530
GlyphClass: 2
Flags: W
AnchorPoint: "Anchor-3" 341.028 286 basechar 0
AnchorPoint: "Anchor-2" 612.383 764 basechar 0
AnchorPoint: "Anchor-1" 445.383 764 basechar 0
AnchorPoint: "Anchor-0" 279 0 basechar 0
LayerCount: 2
Fore
SplineSet
415.139648438 633 m 0,0,1
 388.139648438 633 388.139648438 633 375.833007812 649 c 0,2,3
 368.143645874 658.99781811 368.143645874 658.99781811 368.143645874 675.242909154 c 0,4,5
 368.143645874 684.995636219 368.143645874 684.995636219 370.915039062 697 c 0,6,7
 378.764648438 731 378.764648438 731 399.07421875 747.5 c 128,-1,8
 419.3828125 764 419.3828125 764 445.3828125 764 c 0,9,10
 470.3828125 764 470.3828125 764 483.07421875 747.5 c 0,11,12
 490.9148565 737.30566253 490.9148565 737.30566253 490.9148565 720.43114494 c 0,13,14
 490.9148565 709.993486426 490.9148565 709.993486426 487.915039062 697 c 0,15,16
 480.52734375 665 480.52734375 665 460.333007812 649 c 128,-1,17
 440.139648438 633 440.139648438 633 415.139648438 633 c 0,0,1
77 0 m 1,18,-1
 90.62109375 59 l 1,19,-1
 249.391601562 71 l 1,20,-1
 339.661132812 462 l 1,21,-1
 194.893554688 476 l 1,22,-1
 208.745117188 536 l 1,23,-1
 440.745117188 536 l 1,24,-1
 333.391601562 71 l 1,25,-1
 473.62109375 59 l 1,26,-1
 460 0 l 1,27,-1
 77 0 l 1,18,-1
EndSplineSet
Validated: 524289
Substitution2: "'smcp' Lowercase to Small Capitals lookup 35 subtable" i.sc
Substitution2: "Single Substitution lookup 5 subtable" dotlessi
Substitution2: "Single Substitution lookup 4 subtable" dotlessi
AlternateSubs2: "'aalt' Access All Alternates lookup 1 subtable" dotlessi i.sc
EndChar

StartChar: j
Encoding: 106 106 77
Width: 530
GlyphClass: 2
Flags: W
AnchorPoint: "Anchor-2" 633.383 764 basechar 0
AnchorPoint: "Anchor-1" 478.383 764 basechar 0
AnchorPoint: "Anchor-0" 136.438 -245 basechar 0
LayerCount: 2
Fore
SplineSet
449.139648438 633 m 0,0,1
 423.139648438 633 423.139648438 633 410.833007812 649 c 0,2,3
 403.232965032 658.881684066 403.232965032 658.881684066 403.232965032 675.247784381 c 0,4,5
 403.232965032 685.380973386 403.232965032 685.380973386 406.146484375 698 c 256,6,7
 413.764648438 731 413.764648438 731 433.57421875 747.5 c 128,-1,8
 453.3828125 764 453.3828125 764 479.3828125 764 c 0,9,10
 504.3828125 764 504.3828125 764 517.689453125 748 c 0,11,12
 526.058471353 737.936293971 526.058471353 737.936293971 526.058471353 720.751465978 c 0,13,14
 526.058471353 710.614624688 526.058471353 710.614624688 523.146484375 698 c 0,15,16
 515.52734375 665 515.52734375 665 494.833007812 649 c 128,-1,17
 474.139648438 633 474.139648438 633 449.139648438 633 c 0,0,1
113.4375 -245 m 0,18,19
 82.4375 -245 82.4375 -245 51.091796875 -240 c 128,-1,20
 19.74609375 -235 19.74609375 -235 -2.6376953125 -228 c 1,21,-1
 14.908203125 -152 l 1,22,23
 37.0615234375 -160 37.0615234375 -160 67.291015625 -165.5 c 128,-1,24
 97.521484375 -171 97.521484375 -171 123.521484375 -171 c 0,25,26
 231.521484375 -171 231.521484375 -171 257.37890625 -59 c 2,27,-1
 377.661132812 462 l 1,28,-1
 206.893554688 476 l 1,29,-1
 220.745117188 536 l 1,30,-1
 478.745117188 536 l 1,31,-1
 341.37890625 -59 l 2,32,33
 319.908203125 -152 319.908203125 -152 260.672851562 -198.5 c 128,-1,34
 201.4375 -245 201.4375 -245 113.4375 -245 c 0,18,19
EndSplineSet
Validated: 1572865
Substitution2: "'smcp' Lowercase to Small Capitals lookup 35 subtable" j.sc
Substitution2: "Single Substitution lookup 5 subtable" uni0237
Substitution2: "Single Substitution lookup 4 subtable" uni0237
AlternateSubs2: "'aalt' Access All Alternates lookup 1 subtable" uni0237 j.sc
EndChar

StartChar: k
Encoding: 107 107 78
Width: 530
GlyphClass: 2
Flags: W
AnchorPoint: "Anchor-2" 644.698 839 basechar 0
AnchorPoint: "Anchor-1" 473.46 760 basechar 0
AnchorPoint: "Anchor-0" 293 0 basechar 0
LayerCount: 2
Fore
SplineSet
77 0 m 1,0,-1
 252.459960938 760 l 1,1,-1
 336.459960938 760 l 1,2,-1
 254.501953125 405 l 2,3,4
 246.65234375 371 246.65234375 371 237.1875 336.5 c 128,-1,5
 227.72265625 302 227.72265625 302 216.1796875 265 c 1,6,-1
 217.1796875 265 l 1,7,8
 237.028320312 286 237.028320312 286 254.453125 303 c 128,-1,9
 271.877929688 320 271.877929688 320 293.264648438 339 c 2,10,-1
 511.745117188 536 l 1,11,-1
 615.745117188 536 l 1,12,-1
 354.18359375 304 l 1,13,-1
 505 0 l 1,14,-1
 404 0 l 1,15,-1
 282.5625 245 l 1,16,-1
 205.095703125 191 l 1,17,-1
 161 0 l 1,18,-1
 77 0 l 1,0,-1
EndSplineSet
Validated: 1572865
Substitution2: "'smcp' Lowercase to Small Capitals lookup 35 subtable" k.sc
Substitution2: "'subs' Subscript lookup 22 subtable" uni2096
AlternateSubs2: "'aalt' Access All Alternates lookup 1 subtable" k.sc uni2096
EndChar

StartChar: l
Encoding: 108 108 79
Width: 530
GlyphClass: 2
Flags: W
AnchorPoint: "Anchor-3" 359.575 375 basechar 0
AnchorPoint: "Anchor-2" 611.46 760 basechar 0
AnchorPoint: "Anchor-1" 440.46 760 basechar 0
AnchorPoint: "Anchor-0" 273 0 basechar 0
LayerCount: 2
Fore
SplineSet
77 0 m 1,0,-1
 90.62109375 59 l 1,1,-1
 246.391601562 71 l 1,2,-1
 389.068359375 689 l 1,3,-1
 241.607421875 700 l 1,4,-1
 255.459960938 760 l 1,5,-1
 489.459960938 760 l 1,6,-1
 330.391601562 71 l 1,7,-1
 473.62109375 59 l 1,8,-1
 460 0 l 1,9,-1
 77 0 l 1,0,-1
EndSplineSet
Validated: 524289
Substitution2: "'smcp' Lowercase to Small Capitals lookup 35 subtable" l.sc
Substitution2: "'subs' Subscript lookup 22 subtable" uni2097
AlternateSubs2: "'aalt' Access All Alternates lookup 1 subtable" l.sc uni2097
EndChar

StartChar: m
Encoding: 109 109 80
Width: 530
GlyphClass: 2
Flags: W
AnchorPoint: "Anchor-2" 633.745 536 basechar 0
AnchorPoint: "Anchor-1" 410.745 536 basechar 0
AnchorPoint: "Anchor-0" 269 0 basechar 0
LayerCount: 2
Fore
SplineSet
33 0 m 1,0,-1
 156.745117188 536 l 1,1,-1
 215.745117188 536 l 1,2,-1
 215.047851562 481 l 1,3,-1
 220.047851562 481 l 1,4,5
 243.127929688 516 243.127929688 516 270.206054688 531.5 c 128,-1,6
 297.28515625 547 297.28515625 547 328.28515625 547 c 0,7,8
 366.28515625 547 366.28515625 547 382.12890625 529 c 128,-1,9
 397.973632812 511 397.973632812 511 401.662109375 475 c 1,10,-1
 404.662109375 475 l 1,11,12
 429.204101562 512 429.204101562 512 457.245117188 529.5 c 128,-1,13
 485.28515625 547 485.28515625 547 521.28515625 547 c 0,14,15
 576.28515625 547 576.28515625 547 591.396484375 508.5 c 0,16,17
 598.014640477 491.638542964 598.014640477 491.638542964 598.014640477 466.049781243 c 0,18,19
 598.014640477 433.211366467 598.014640477 433.211366467 587.115234375 386 c 2,20,-1
 498 0 l 1,21,-1
 419 0 l 1,22,-1
 505.344726562 374 l 2,23,24
 513.77673526 410.52377955 513.77673526 410.52377955 513.77673526 434.063987727 c 0,25,26
 513.77673526 440.81609316 513.77673526 440.81609316 513.083007812 446.5 c 0,27,28
 509.969726562 472 509.969726562 472 479.969726562 472 c 0,29,30
 439.969726562 472 439.969726562 472 417.041992188 429 c 128,-1,31
 394.115234375 386 394.115234375 386 378.646484375 319 c 2,32,-1
 305 0 l 1,33,-1
 225 0 l 1,34,-1
 311.344726562 374 l 2,35,36
 319.636886039 409.916128181 319.636886039 409.916128181 319.636886039 432.95496901 c 0,37,38
 319.636886039 440.706316761 319.636886039 440.706316761 318.698242188 447 c 0,39,40
 314.969726562 472 314.969726562 472 285.969726562 472 c 0,41,42
 257.969726562 472 257.969726562 472 238.775390625 449.5 c 128,-1,43
 219.581054688 427 219.581054688 427 206.154296875 390.5 c 128,-1,44
 192.727539062 354 192.727539062 354 183.03125 312 c 2,45,-1
 111 0 l 1,46,-1
 33 0 l 1,0,-1
EndSplineSet
Validated: 1572865
Substitution2: "'smcp' Lowercase to Small Capitals lookup 35 subtable" m.sc
Substitution2: "'subs' Subscript lookup 22 subtable" uni2098
AlternateSubs2: "'aalt' Access All Alternates lookup 1 subtable" m.sc uni2098
EndChar

StartChar: n
Encoding: 110 110 81
Width: 530
GlyphClass: 2
Flags: W
AnchorPoint: "Anchor-2" 633.745 536 basechar 0
AnchorPoint: "Anchor-1" 399.745 536 basechar 0
AnchorPoint: "Anchor-0" 270 0 basechar 0
LayerCount: 2
Fore
SplineSet
66 0 m 1,0,-1
 189.745117188 536 l 1,1,-1
 258.745117188 536 l 1,2,-1
 253.661132812 462 l 1,3,-1
 258.661132812 462 l 1,4,5
 289.588867188 505 289.588867188 505 334.436523438 526 c 128,-1,6
 379.28515625 547 379.28515625 547 430.28515625 547 c 0,7,8
 507.28515625 547 507.28515625 547 540.434570312 500 c 0,9,10
 559.894464858 472.408502101 559.894464858 472.408502101 559.894464858 426.206908757 c 0,11,12
 559.894464858 393.707632175 559.894464858 393.707632175 550.265625 352 c 2,13,-1
 469 0 l 1,14,-1
 385 0 l 1,15,-1
 464.649414062 345 l 2,16,17
 471.52073822 374.763324522 471.52073822 374.763324522 471.52073822 397.714039711 c 0,18,19
 471.52073822 424.114188234 471.52073822 424.114188234 462.428710938 441.5 c 0,20,21
 445.431640625 474 445.431640625 474 393.431640625 474 c 0,22,23
 325.431640625 474 325.431640625 474 280.657226562 423 c 128,-1,24
 235.8828125 372 235.8828125 372 214.181640625 278 c 2,25,-1
 150 0 l 1,26,-1
 66 0 l 1,0,-1
EndSplineSet
Validated: 1572865
Substitution2: "'smcp' Lowercase to Small Capitals lookup 35 subtable" n.sc
Substitution2: "'sups' Superscript lookup 23 subtable" uni207F
Substitution2: "'subs' Subscript lookup 22 subtable" uni2099
AlternateSubs2: "'aalt' Access All Alternates lookup 1 subtable" uni207F n.sc uni2099
EndChar

StartChar: o
Encoding: 111 111 82
Width: 530
GlyphClass: 2
Flags: W
AnchorPoint: "Anchor-3" 326.873 268 basechar 0
AnchorPoint: "Anchor-2" 633.745 536 basechar 0
AnchorPoint: "Anchor-1" 388.745 536 basechar 0
AnchorPoint: "Anchor-0" 265 0 basechar 0
LayerCount: 2
Fore
SplineSet
263.69140625 -10 m 256,0,1
 163.69140625 -10 163.69140625 -10 119.813476562 62 c 0,2,3
 94.2378936834 103.968319041 94.2378936834 103.968319041 94.2378936834 167.681573923 c 0,4,5
 94.2378936834 213.273491522 94.2378936834 213.273491522 107.333984375 270 c 0,6,7
 138.270507812 404 138.270507812 404 213.77734375 475.5 c 128,-1,8
 289.28515625 547 289.28515625 547 389.28515625 547 c 256,9,10
 489.28515625 547 489.28515625 547 534.27734375 475.5 c 0,11,12
 560.697731559 433.514561374 560.697731559 433.514561374 560.697731559 368.943784159 c 0,13,14
 560.697731559 323.55237634 560.697731559 323.55237634 547.641601562 267 c 0,15,16
 516.705078125 133 516.705078125 133 440.198242188 61.5 c 128,-1,17
 363.69140625 -10 363.69140625 -10 263.69140625 -10 c 256,0,1
279.313476562 62 m 256,18,19
 344.313476562 62 344.313476562 62 390.549804688 115 c 128,-1,20
 436.786132812 168 436.786132812 168 459.873046875 268 c 0,21,22
 471.801255754 319.667423674 471.801255754 319.667423674 471.801255754 358.773619222 c 0,23,24
 471.801255754 396.112608463 471.801255754 396.112608463 460.926757812 422 c 0,25,26
 438.662109375 475 438.662109375 475 373.662109375 475 c 256,27,28
 308.662109375 475 308.662109375 475 262.541992188 422.5 c 128,-1,29
 216.420898438 370 216.420898438 370 193.103515625 269 c 0,30,31
 181.32057192 217.962673517 181.32057192 217.962673517 181.32057192 179.037707464 c 0,32,33
 181.32057192 141.695030332 181.32057192 141.695030332 192.165039062 115.5 c 0,34,35
 214.313476562 62 214.313476562 62 279.313476562 62 c 256,18,19
EndSplineSet
Validated: 524289
Substitution2: "'smcp' Lowercase to Small Capitals lookup 35 subtable" o.sc
Substitution2: "Single Substitution lookup 32 subtable" ordmasculine
AlternateSubs2: "'aalt' Access All Alternates lookup 1 subtable" ordmasculine o.sc
EndChar

StartChar: p
Encoding: 112 112 83
Width: 530
GlyphClass: 2
Flags: W
AnchorPoint: "Anchor-2" 633.745 536 basechar 0
AnchorPoint: "Anchor-1" 412.745 536 basechar 0
AnchorPoint: "Anchor-0" 233.592 -240 basechar 0
LayerCount: 2
Fore
SplineSet
10.591796875 -240 m 1,0,-1
 189.745117188 536 l 1,1,-1
 257.745117188 536 l 1,2,-1
 254.123046875 464 l 1,3,-1
 258.123046875 464 l 1,4,5
 287.203125 499 287.203125 499 328.244140625 523 c 128,-1,6
 369.28515625 547 369.28515625 547 422.28515625 547 c 0,7,8
 510.28515625 547 510.28515625 547 545.008789062 476.5 c 0,9,10
 563.180372136 439.60591655 563.180372136 439.60591655 563.180372136 384.49986576 c 0,11,12
 563.180372136 334.305114431 563.180372136 334.305114431 548.103515625 269 c 256,13,14
 516.474609375 132 516.474609375 132 447.583007812 61 c 128,-1,15
 378.69140625 -10 378.69140625 -10 292.69140625 -10 c 0,16,17
 240.69140625 -10 240.69140625 -10 211.1171875 13.5 c 128,-1,18
 181.541992188 37 181.541992188 37 165.69921875 68 c 1,19,-1
 160.69921875 68 l 1,20,21
 159.236328125 53 159.236328125 53 155.541015625 30.5 c 128,-1,22
 151.846679688 8 151.846679688 8 147.4609375 -11 c 2,23,-1
 94.591796875 -240 l 1,24,-1
 10.591796875 -240 l 1,0,-1
290.544921875 63 m 0,25,26
 351.544921875 63 351.544921875 63 394.280273438 116 c 128,-1,27
 437.016601562 169 437.016601562 169 460.333984375 270 c 0,28,29
 473.374665082 326.484739924 473.374665082 326.484739924 473.374665082 367.329647278 c 0,30,31
 473.374665082 474 473.374665082 474 384.431640625 474 c 0,32,33
 317.431640625 474 317.431640625 474 277.234375 425.5 c 128,-1,34
 237.037109375 377 237.037109375 377 216.720703125 289 c 2,35,-1
 212.103515625 269 l 2,36,37
 199.182033373 213.031702899 199.182033373 213.031702899 199.182033373 171.212532901 c 0,38,39
 199.182033373 140.553894928 199.182033373 140.553894928 206.126953125 117.5 c 0,40,41
 222.544921875 63 222.544921875 63 290.544921875 63 c 0,25,26
EndSplineSet
Validated: 1572865
Substitution2: "'smcp' Lowercase to Small Capitals lookup 35 subtable" p.sc
Substitution2: "'subs' Subscript lookup 22 subtable" uni209A
AlternateSubs2: "'aalt' Access All Alternates lookup 1 subtable" p.sc uni209A
EndChar

StartChar: q
Encoding: 113 113 84
Width: 530
GlyphClass: 2
Flags: W
AnchorPoint: "Anchor-2" 633.745 536 basechar 0
AnchorPoint: "Anchor-1" 375.745 536 basechar 0
AnchorPoint: "Anchor-0" 196.592 -240 basechar 0
LayerCount: 2
Fore
SplineSet
377.4609375 -11 m 2,0,1
 386.92578125 30 386.92578125 30 400.622070312 72 c 1,2,-1
 396.622070312 72 l 1,3,4
 368.7734375 38 368.7734375 38 329.732421875 14 c 128,-1,5
 290.69140625 -10 290.69140625 -10 240.69140625 -10 c 0,6,7
 149.69140625 -10 149.69140625 -10 112.467773438 60.5 c 0,8,9
 92.2757484487 98.7428488074 92.2757484487 98.7428488074 92.2757484487 156.259328571 c 0,10,11
 92.2757484487 204.773438834 92.2757484487 204.773438834 106.641601562 267 c 0,12,13
 138.270507812 404 138.270507812 404 208.77734375 475.5 c 128,-1,14
 279.28515625 547 279.28515625 547 370.28515625 547 c 0,15,16
 421.28515625 547 421.28515625 547 447.62890625 522.5 c 128,-1,17
 473.97265625 498 473.97265625 498 488.123046875 464 c 1,18,-1
 492.123046875 464 l 1,19,-1
 519.745117188 536 l 1,20,-1
 587.745117188 536 l 1,21,-1
 408.591796875 -240 l 1,22,-1
 324.591796875 -240 l 1,23,-1
 377.4609375 -11 l 2,0,1
275.544921875 63 m 0,24,25
 338.544921875 63 338.544921875 63 379.203125 113.5 c 128,-1,26
 419.862304688 164 419.862304688 164 439.024414062 247 c 2,27,-1
 443.641601562 267 l 2,28,29
 456.641302012 323.307531933 456.641302012 323.307531933 456.641302012 365.914123373 c 0,30,31
 456.641302012 395.191808297 456.641302012 395.191808297 450.502929688 418 c 0,32,33
 435.431640625 474 435.431640625 474 371.431640625 474 c 256,34,35
 307.431640625 474 307.431640625 474 262.080078125 420.5 c 128,-1,36
 216.728515625 367 216.728515625 367 193.411132812 266 c 0,37,38
 181.632131964 214.980645587 181.632131964 214.980645587 181.632131964 176.443670795 c 0,39,40
 181.632131964 140.201955258 181.632131964 140.201955258 192.049804688 115 c 0,41,42
 213.544921875 63 213.544921875 63 275.544921875 63 c 0,24,25
EndSplineSet
Validated: 1572865
Substitution2: "'smcp' Lowercase to Small Capitals lookup 35 subtable" q.sc
Substitution2: "'aalt' Access All Alternates lookup 0 subtable" q.sc
EndChar

StartChar: r
Encoding: 114 114 85
Width: 530
GlyphClass: 2
Flags: W
AnchorPoint: "Anchor-2" 633.745 536 basechar 0
AnchorPoint: "Anchor-1" 407.745 536 basechar 0
AnchorPoint: "Anchor-0" 223 0 basechar 0
LayerCount: 2
Fore
SplineSet
45 0 m 1,0,-1
 58.62109375 59 l 1,1,-1
 195.391601562 71 l 1,2,-1
 285.661132812 462 l 1,3,-1
 163.893554688 476 l 1,4,-1
 177.745117188 536 l 1,5,-1
 371.745117188 536 l 1,6,-1
 358.58203125 440 l 1,7,-1
 362.58203125 440 l 1,8,9
 397.125 490 397.125 490 439.705078125 518.5 c 128,-1,10
 482.28515625 547 482.28515625 547 537.28515625 547 c 0,11,12
 583.28515625 547 583.28515625 547 622.8984375 528 c 1,13,-1
 580.198242188 447 l 1,14,15
 566.276367188 456 566.276367188 456 547.19921875 460 c 128,-1,16
 528.123046875 464 528.123046875 464 511.123046875 464 c 0,17,18
 468.123046875 464 468.123046875 464 430.504882812 437.5 c 128,-1,19
 392.88671875 411 392.88671875 411 365.61328125 366.5 c 128,-1,20
 338.33984375 322 338.33984375 322 325.873046875 268 c 2,21,-1
 280.391601562 71 l 1,22,-1
 412.62109375 59 l 1,23,-1
 399 0 l 1,24,-1
 45 0 l 1,0,-1
EndSplineSet
Validated: 1572865
Substitution2: "'smcp' Lowercase to Small Capitals lookup 35 subtable" r.sc
Substitution2: "'aalt' Access All Alternates lookup 0 subtable" r.sc
EndChar

StartChar: s
Encoding: 115 115 86
Width: 530
GlyphClass: 2
Flags: W
AnchorPoint: "Anchor-2" 633.745 536 basechar 0
AnchorPoint: "Anchor-1" 394.745 536 basechar 0
AnchorPoint: "Anchor-0" 271 0 basechar 0
LayerCount: 2
Fore
SplineSet
243.69140625 -10 m 0,0,1
 145.69140625 -10 145.69140625 -10 92.541015625 24 c 1,2,-1
 111.010742188 104 l 1,3,4
 140.0859375 87 140.0859375 87 178.19921875 74.5 c 128,-1,5
 216.313476562 62 216.313476562 62 266.313476562 62 c 0,6,7
 330.313476562 62 330.313476562 62 359.27734375 83.5 c 128,-1,8
 388.241210938 105 388.241210938 105 396.552734375 141 c 0,9,10
 398.766512261 150.590064397 398.766512261 150.590064397 398.766512261 158.720298078 c 0,11,12
 398.766512261 168.393376265 398.766512261 168.393376265 395.6328125 176 c 0,13,14
 389.865234375 190 389.865234375 190 366.828125 205 c 128,-1,15
 343.791015625 220 343.791015625 220 300.33203125 244 c 0,16,17
 260.411132812 266 260.411132812 266 231.643554688 286.5 c 128,-1,18
 202.876953125 307 202.876953125 307 190.225585938 334.5 c 0,19,20
 183.063443746 350.06819175 183.063443746 350.06819175 183.063443746 370.283450763 c 0,21,22
 183.063443746 385.776874672 183.063443746 385.776874672 187.270507812 404 c 0,23,24
 203.662109375 475 203.662109375 475 262.473632812 511 c 128,-1,25
 321.28515625 547 321.28515625 547 412.28515625 547 c 0,26,27
 453.28515625 547 453.28515625 547 487.4375 539 c 128,-1,28
 521.590820312 531 521.590820312 531 556.435546875 513 c 1,29,-1
 512.736328125 445 l 1,30,31
 479.661132812 462 479.661132812 462 451.662109375 468.5 c 128,-1,32
 423.662109375 475 423.662109375 475 393.662109375 475 c 0,33,34
 287.662109375 475 287.662109375 475 271.962890625 407 c 0,35,36
 270.270404648 399.668167112 270.270404648 399.668167112 270.270404648 393.067705292 c 0,37,38
 270.270404648 380.762976509 270.270404648 380.762976509 276.15234375 371 c 0,39,40
 285.189453125 356 285.189453125 356 309.110351562 340.5 c 128,-1,41
 333.032226562 325 333.032226562 325 373.18359375 304 c 256,42,43
 413.3359375 283 413.3359375 283 441.21875 263 c 128,-1,44
 469.100585938 243 469.100585938 243 480.751953125 215.5 c 0,45,46
 486.911122904 200.962893221 486.911122904 200.962893221 486.911122904 181.535563915 c 0,47,48
 486.911122904 164.212007089 486.911122904 164.212007089 482.013671875 143 c 0,49,50
 464.69921875 68 464.69921875 68 404.6953125 29 c 128,-1,51
 344.69140625 -10 344.69140625 -10 243.69140625 -10 c 0,0,1
EndSplineSet
Validated: 1572865
Substitution2: "'smcp' Lowercase to Small Capitals lookup 35 subtable" s.sc
Substitution2: "'subs' Subscript lookup 22 subtable" uni209B
AlternateSubs2: "'aalt' Access All Alternates lookup 1 subtable" s.sc uni209B
EndChar

StartChar: t
Encoding: 116 116 87
Width: 530
GlyphClass: 2
Flags: W
AnchorPoint: "Anchor-3" 301.336 283 basechar 0
AnchorPoint: "Anchor-2" 634.698 839 basechar 0
AnchorPoint: "Anchor-1" 403.76 679 basechar 0
AnchorPoint: "Anchor-0" 338 0 basechar 0
LayerCount: 2
Fore
SplineSet
357.69140625 -10 m 0,0,1
 308.69140625 -10 308.69140625 -10 273.5390625 4.5 c 128,-1,2
 238.38671875 19 238.38671875 19 224.3515625 53.5 c 0,3,4
 217.345926907 70.7206439065 217.345926907 70.7206439065 217.345926907 94.5437581165 c 128,-1,5
 217.345926907 118.448095023 217.345926907 118.448095023 224.399414062 149 c 2,6,-1
 296.891601562 463 l 1,7,-1
 158.891601562 463 l 1,8,-1
 171.358398438 517 l 1,9,-1
 316.4375 539 l 1,10,-1
 373.759765625 679 l 1,11,-1
 432.759765625 679 l 1,12,-1
 399.745117188 536 l 1,13,-1
 585.745117188 536 l 1,14,-1
 568.891601562 463 l 1,15,-1
 381.891601562 463 l 1,16,-1
 312.862304688 164 l 2,17,18
 308.034036262 143.086013414 308.034036262 143.086013414 308.034036262 126.620384062 c 0,19,20
 308.034036262 102.146294782 308.034036262 102.146294782 318.701171875 87.5 c 0,21,22
 336.544921875 63 336.544921875 63 386.544921875 63 c 0,23,24
 428.544921875 63 428.544921875 63 481.776367188 77 c 1,25,-1
 465.154296875 5 l 1,26,27
 440.538085938 -2 440.538085938 -2 412.615234375 -6 c 128,-1,28
 384.69140625 -10 384.69140625 -10 357.69140625 -10 c 0,0,1
EndSplineSet
Validated: 524289
Substitution2: "'smcp' Lowercase to Small Capitals lookup 35 subtable" t.sc
Substitution2: "'subs' Subscript lookup 22 subtable" uni209C
AlternateSubs2: "'aalt' Access All Alternates lookup 1 subtable" t.sc uni209C
EndChar

StartChar: u
Encoding: 117 117 88
Width: 530
GlyphClass: 2
Flags: W
AnchorPoint: "Anchor-2" 633.745 536 basechar 0
AnchorPoint: "Anchor-1" 388.745 536 basechar 0
AnchorPoint: "Anchor-0" 265 0 basechar 0
LayerCount: 2
Fore
SplineSet
224.69140625 -10 m 0,0,1
 143.69140625 -10 143.69140625 -10 111.811523438 36 c 0,2,3
 92.843495763 63.3692747918 92.843495763 63.3692747918 92.843495763 107.730849076 c 0,4,5
 92.843495763 137.928518053 92.843495763 137.928518053 101.6328125 176 c 2,6,-1
 184.745117188 536 l 1,7,-1
 268.745117188 536 l 1,8,-1
 189.095703125 191 l 2,9,10
 181.707361267 158.998287246 181.707361267 158.998287246 181.707361267 135.461153997 c 0,11,12
 181.707361267 107.513563911 181.707361267 107.513563911 192.124023438 91.5 c 0,13,14
 211.313476562 62 211.313476562 62 267.313476562 62 c 0,15,16
 333.313476562 62 333.313476562 62 375.587890625 113 c 128,-1,17
 417.862304688 164 417.862304688 164 439.564453125 258 c 2,18,-1
 503.745117188 536 l 1,19,-1
 587.745117188 536 l 1,20,-1
 464 0 l 1,21,-1
 394 0 l 1,22,-1
 397.622070312 72 l 1,23,-1
 392.622070312 72 l 1,24,25
 360.6953125 29 360.6953125 29 317.693359375 9.5 c 128,-1,26
 274.69140625 -10 274.69140625 -10 224.69140625 -10 c 0,0,1
EndSplineSet
Validated: 1572865
Substitution2: "'smcp' Lowercase to Small Capitals lookup 35 subtable" u.sc
Substitution2: "'aalt' Access All Alternates lookup 0 subtable" u.sc
EndChar

StartChar: v
Encoding: 118 118 89
Width: 530
GlyphClass: 2
Flags: W
AnchorPoint: "Anchor-2" 633.745 536 basechar 0
AnchorPoint: "Anchor-1" 388.745 536 basechar 0
AnchorPoint: "Anchor-0" 265 0 basechar 0
LayerCount: 2
Fore
SplineSet
213 0 m 1,0,-1
 158.745117188 536 l 1,1,-1
 240.745117188 536 l 1,2,-1
 269.252929688 222 l 2,3,4
 271.633789062 189 271.633789062 189 275.168945312 148 c 128,-1,5
 278.703125 107 278.703125 107 280.391601562 71 c 1,6,-1
 283.391601562 71 l 1,7,8
 300.703125 107 300.703125 107 323.668945312 148 c 128,-1,9
 346.633789062 189 346.633789062 189 364.252929688 222 c 2,10,-1
 533.745117188 536 l 1,11,-1
 618.745117188 536 l 1,12,-1
 315 0 l 1,13,-1
 213 0 l 1,0,-1
EndSplineSet
Validated: 1572865
Substitution2: "'smcp' Lowercase to Small Capitals lookup 35 subtable" v.sc
Substitution2: "'aalt' Access All Alternates lookup 0 subtable" v.sc
EndChar

StartChar: w
Encoding: 119 119 90
Width: 530
GlyphClass: 2
Flags: W
AnchorPoint: "Anchor-2" 633.745 536 basechar 0
AnchorPoint: "Anchor-1" 390.745 536 basechar 0
AnchorPoint: "Anchor-0" 267 0 basechar 0
LayerCount: 2
Fore
SplineSet
86 0 m 1,0,-1
 135.745117188 536 l 1,1,-1
 212.745117188 536 l 1,2,-1
 183.94921875 264 l 2,3,4
 179.098632812 217 179.098632812 217 170.131835938 163 c 128,-1,5
 161.165039062 109 161.165039062 109 155.391601562 71 c 1,6,-1
 157.391601562 71 l 1,7,8
 163.546875 89 163.546875 89 176.166015625 122 c 128,-1,9
 188.784179688 155 188.784179688 155 203.133789062 189 c 128,-1,10
 217.483398438 223 217.483398438 223 228.024414062 247 c 2,11,-1
 320.274414062 443 l 1,12,-1
 413.274414062 443 l 1,13,-1
 413.024414062 247 l 2,14,15
 412.483398438 223 412.483398438 223 411.133789062 189 c 128,-1,16
 409.784179688 155 409.784179688 155 407.78125 122.5 c 128,-1,17
 405.778320312 90 405.778320312 90 404.391601562 71 c 1,18,-1
 406.391601562 71 l 1,19,20
 417.471679688 106 417.471679688 106 433.938476562 160 c 128,-1,21
 450.40625 214 450.40625 214 468.94921875 264 c 2,22,-1
 567.745117188 536 l 1,23,-1
 642.745117188 536 l 1,24,-1
 442 0 l 1,25,-1
 337 0 l 1,26,-1
 341.942382812 199 l 2,27,28
 343.177734375 239 343.177734375 239 344.374023438 281 c 128,-1,29
 345.5703125 323 345.5703125 323 349.036132812 364 c 1,30,-1
 346.036132812 364 l 1,31,32
 330.5703125 323 330.5703125 323 312.258789062 280.5 c 128,-1,33
 293.946289062 238 293.946289062 238 276.481445312 197 c 2,34,-1
 189 0 l 1,35,-1
 86 0 l 1,0,-1
EndSplineSet
Validated: 1572865
Substitution2: "'smcp' Lowercase to Small Capitals lookup 35 subtable" w.sc
Substitution2: "'aalt' Access All Alternates lookup 0 subtable" w.sc
EndChar

StartChar: x
Encoding: 120 120 91
Width: 530
GlyphClass: 2
Flags: W
AnchorPoint: "Anchor-2" 633.745 536 basechar 0
AnchorPoint: "Anchor-1" 388.745 536 basechar 0
AnchorPoint: "Anchor-0" 265 0 basechar 0
LayerCount: 2
Fore
SplineSet
35 0 m 1,0,-1
 277.48828125 275 l 1,1,-1
 167.745117188 536 l 1,2,-1
 264.745117188 536 l 1,3,-1
 341.571289062 336 l 1,4,-1
 514.745117188 536 l 1,5,-1
 610.745117188 536 l 1,6,-1
 376.02734375 273 l 1,7,-1
 495 0 l 1,8,-1
 397 0 l 1,9,-1
 314.174804688 213 l 1,10,-1
 132 0 l 1,11,-1
 35 0 l 1,0,-1
EndSplineSet
Validated: 1572865
Substitution2: "'smcp' Lowercase to Small Capitals lookup 35 subtable" x.sc
Substitution2: "'aalt' Access All Alternates lookup 0 subtable" x.sc
EndChar

StartChar: y
Encoding: 121 121 92
Width: 530
GlyphClass: 2
Flags: W
AnchorPoint: "Anchor-2" 633.745 536 basechar 0
AnchorPoint: "Anchor-1" 388.745 536 basechar 0
AnchorPoint: "Anchor-0" 208.438 -245 basechar 0
LayerCount: 2
Fore
SplineSet
59.4375 -245 m 0,0,1
 42.4375 -245 42.4375 -245 26.5146484375 -242.5 c 128,-1,2
 10.591796875 -240 10.591796875 -240 -3.7158203125 -237 c 1,3,-1
 12.4453125 -167 l 1,4,5
 23.751953125 -170 23.751953125 -170 38.291015625 -172 c 128,-1,6
 52.8291015625 -174 52.8291015625 -174 67.8291015625 -174 c 0,7,8
 105.829101562 -174 105.829101562 -174 132.408203125 -152 c 128,-1,9
 158.987304688 -130 158.987304688 -130 188.76171875 -79 c 2,10,-1
 232.615234375 -6 l 1,11,-1
 158.745117188 536 l 1,12,-1
 243.745117188 536 l 1,13,-1
 282.71484375 224 l 2,14,15
 287.171875 187 287.171875 187 289.014648438 149.5 c 128,-1,16
 290.857421875 112 290.857421875 112 291.0078125 78 c 1,17,-1
 294.0078125 78 l 1,18,19
 307.625976562 111 307.625976562 111 328.091796875 152 c 128,-1,20
 348.557617188 193 348.557617188 193 365.9453125 225 c 2,21,-1
 530.745117188 536 l 1,22,-1
 618.745117188 536 l 1,23,-1
 276.838867188 -70 l 2,24,25
 232.831054688 -148 232.831054688 -148 182.134765625 -196.5 c 128,-1,26
 131.4375 -245 131.4375 -245 59.4375 -245 c 0,0,1
EndSplineSet
Validated: 1572865
Substitution2: "'smcp' Lowercase to Small Capitals lookup 35 subtable" y.sc
Substitution2: "'aalt' Access All Alternates lookup 0 subtable" y.sc
EndChar

StartChar: z
Encoding: 122 122 93
Width: 530
GlyphClass: 2
Flags: W
AnchorPoint: "Anchor-2" 633.745 536 basechar 0
AnchorPoint: "Anchor-1" 395.745 536 basechar 0
AnchorPoint: "Anchor-0" 272 0 basechar 0
LayerCount: 2
Fore
SplineSet
73 0 m 1,0,-1
 86.8525390625 60 l 1,1,-1
 466.353515625 465 l 1,2,-1
 194.353515625 465 l 1,3,-1
 210.745117188 536 l 1,4,-1
 574.745117188 536 l 1,5,-1
 558.584960938 466 l 1,6,-1
 186.853515625 73 l 1,7,-1
 474.853515625 73 l 1,8,-1
 458 0 l 1,9,-1
 73 0 l 1,0,-1
EndSplineSet
Validated: 1572865
Substitution2: "'smcp' Lowercase to Small Capitals lookup 35 subtable" z.sc
Substitution2: "'aalt' Access All Alternates lookup 0 subtable" z.sc
EndChar

StartChar: braceleft
Encoding: 123 123 94
Width: 530
Flags: W
LayerCount: 2
Fore
SplineSet
374.061523438 -160 m 1,0,1
 283.291992188 -159 283.291992188 -159 245.795898438 -120 c 0,2,3
 220.777217134 -93.9778608046 220.777217134 -93.9778608046 220.777217134 -49.257251794 c 0,4,5
 220.777217134 -26.9540185941 220.777217134 -26.9540185941 227 0 c 2,6,-1
 261.399414062 149 l 2,7,8
 265.751222261 167.850472059 265.751222261 167.850472059 265.751222261 182.934336972 c 0,9,10
 265.751222261 207.859721868 265.751222261 207.859721868 253.868164062 222.5 c 0,11,12
 234.793945312 246 234.793945312 246 176.793945312 246 c 1,13,-1
 191.799804688 311 l 1,14,15
 245.799804688 311 245.799804688 311 277.1484375 332 c 128,-1,16
 308.49609375 353 308.49609375 353 320.962890625 407 c 2,17,-1
 355.59375 557 l 2,18,19
 391.83984375 714 391.83984375 714 576.301757812 716 c 1,20,-1
 560.602539062 648 l 1,21,22
 510.372070312 647 510.372070312 647 478.908203125 625.5 c 128,-1,23
 447.444335938 604 447.444335938 604 435.669921875 553 c 2,24,-1
 401.501953125 405 l 2,25,26
 389.03515625 351 389.03515625 351 359.493164062 320.5 c 128,-1,27
 329.952148438 290 329.952148438 290 275.874023438 281 c 1,28,-1
 274.719726562 276 l 1,29,30
 325.411132812 266 325.411132812 266 340.25390625 235 c 0,31,32
 348.459759352 217.861596101 348.459759352 217.861596101 348.459759352 194.304646257 c 0,33,34
 348.459759352 175.251709588 348.459759352 175.251709588 343.091796875 152 c 2,35,-1
 308.692382812 3 l 2,36,37
 304.564622709 -14.8793586796 304.564622709 -14.8793586796 304.564622709 -29.2970521627 c 0,38,39
 304.564622709 -54.3923520333 304.564622709 -54.3923520333 317.0703125 -69 c 0,40,41
 336.759765625 -92 336.759765625 -92 389.759765625 -92 c 1,42,-1
 374.061523438 -160 l 1,0,1
EndSplineSet
Validated: 524289
Substitution2: "'smcp' Lowercase to Small Capitals lookup 35 subtable" braceleft.sc
Substitution2: "'c2sc' Capitals to Small Capitals lookup 34 subtable" braceleft.sc
Substitution2: "'aalt' Access All Alternates lookup 0 subtable" braceleft.sc
EndChar

StartChar: bar
Encoding: 124 124 95
Width: 530
Flags: W
LayerCount: 2
Fore
SplineSet
172.591796875 -240 m 1,0,-1
 403.459960938 760 l 1,1,-1
 477.459960938 760 l 1,2,-1
 246.591796875 -240 l 1,3,-1
 172.591796875 -240 l 1,0,-1
EndSplineSet
Validated: 524289
EndChar

StartChar: asciitilde
Encoding: 126 126 97
Width: 530
Flags: W
LayerCount: 2
Fore
SplineSet
135.720703125 289 m 1,0,1
 148.186523438 330 148.186523438 330 167.420898438 370 c 128,-1,2
 186.65625 410 186.65625 410 214.774414062 436.5 c 128,-1,3
 242.891601562 463 242.891601562 463 282.891601562 463 c 0,4,5
 313.891601562 463 313.891601562 463 334.083007812 446.5 c 128,-1,6
 354.2734375 430 354.2734375 430 375.654296875 397 c 0,7,8
 390.344726562 374 390.344726562 374 402.997070312 359.5 c 128,-1,9
 415.649414062 345 415.649414062 345 433.649414062 345 c 0,10,11
 457.649414062 345 457.649414062 345 475.959960938 374.5 c 128,-1,12
 494.270507812 404 494.270507812 404 512.891601562 463 c 1,13,-1
 568.891601562 463 l 1,14,15
 555.887695312 424 555.887695312 424 536.653320312 384 c 128,-1,16
 517.418945312 344 517.418945312 344 489.569335938 316.5 c 128,-1,17
 461.720703125 289 461.720703125 289 422.720703125 289 c 0,18,19
 395.720703125 289 395.720703125 289 375.22265625 302 c 128,-1,20
 354.723632812 315 354.723632812 315 331.727539062 354 c 0,21,22
 315.499023438 379 315.499023438 379 303.231445312 393 c 128,-1,23
 290.962890625 407 290.962890625 407 272.962890625 407 c 0,24,25
 246.962890625 407 246.962890625 407 228.268554688 378 c 128,-1,26
 209.573242188 349 209.573242188 349 190.720703125 289 c 1,27,-1
 135.720703125 289 l 1,0,1
EndSplineSet
Validated: 524289
EndChar

StartChar: cent
Encoding: 162 162 100
Width: 530
Flags: W
LayerCount: 2
Fore
SplineSet
296.778320312 90 m 1,0,1
 156.062404777 107.523734515 156.062404777 107.523734515 156.062404777 256.819583581 c 0,2,3
 156.062404777 303.475375164 156.062404777 303.475375164 169.8046875 363 c 0,4,5
 198.202148438 486 198.202148438 486 263.59375 557 c 128,-1,6
 328.985351562 628 328.985351562 628 423.986328125 641 c 1,7,-1
 443.1484375 724 l 1,8,-1
 501.1484375 724 l 1,9,-1
 482.678710938 644 l 1,10,11
 513.217773438 642 513.217773438 642 541.716796875 635.5 c 128,-1,12
 570.215820312 629 570.215820312 629 587.676757812 618 c 1,13,-1
 546.977539062 550 l 1,14,15
 503.056640625 572 503.056640625 572 455.056640625 572 c 0,16,17
 376.056640625 572 376.056640625 572 327.051757812 520 c 128,-1,18
 278.045898438 468 278.045898438 468 254.036132812 364 c 0,19,20
 242.266625916 313.020771804 242.266625916 313.020771804 242.266625916 275.242212598 c 0,21,22
 242.266625916 235.209693508 242.266625916 235.209693508 255.482421875 210 c 0,23,24
 281.169921875 161 281.169921875 161 358.169921875 161 c 0,25,26
 388.169921875 161 388.169921875 161 420.786132812 168 c 128,-1,27
 453.40234375 175 453.40234375 175 481.403320312 188 c 1,28,-1
 464.780273438 116 l 1,29,30
 421.701171875 94 421.701171875 94 353.31640625 88 c 1,31,-1
 330.69140625 -10 l 1,32,-1
 273.69140625 -10 l 1,33,-1
 296.778320312 90 l 1,0,1
EndSplineSet
Validated: 524289
EndChar

StartChar: sterling
Encoding: 163 163 101
Width: 530
Flags: W
LayerCount: 2
Fore
SplineSet
95.3916015625 71 m 1,0,1
 134.854492188 86 134.854492188 86 162.704101562 120 c 128,-1,2
 190.553710938 154 190.553710938 154 203.944335938 212 c 2,3,-1
 229.801757812 324 l 1,4,-1
 151.801757812 324 l 1,5,-1
 167.0390625 390 l 1,6,-1
 245.0390625 390 l 1,7,-1
 279.899414062 541 l 2,8,9
 300.215820312 629 300.215820312 629 357.182617188 676.5 c 128,-1,10
 414.1484375 724 414.1484375 724 501.1484375 724 c 0,11,12
 541.1484375 724 541.1484375 724 570.724609375 713.5 c 128,-1,13
 600.30078125 703 600.30078125 703 625.452148438 682 c 1,14,-1
 578.984375 615 l 1,15,16
 535.833007812 649 535.833007812 649 489.833007812 649 c 0,17,18
 437.833007812 649 437.833007812 649 407.484375 621.5 c 128,-1,19
 377.135742188 594 377.135742188 594 363.052734375 533 c 2,20,-1
 330.0390625 390 l 1,21,-1
 483.0390625 390 l 1,22,-1
 467.801757812 324 l 1,23,-1
 314.801757812 324 l 1,24,-1
 289.174804688 213 l 2,25,26
 278.5546875 167 278.5546875 167 253.859375 131.5 c 128,-1,27
 229.163085938 96 229.163085938 96 195.776367188 77 c 1,28,-1
 490.776367188 77 l 1,29,-1
 473 0 l 1,30,-1
 79 0 l 1,31,-1
 95.3916015625 71 l 1,0,1
EndSplineSet
Validated: 524289
EndChar

StartChar: currency
Encoding: 164 164 102
Width: 530
Flags: W
LayerCount: 2
Fore
SplineSet
423.481445312 197 m 1,0,1
 394.325195312 179 394.325195312 179 364.131835938 169.5 c 128,-1,2
 333.938476562 160 333.938476562 160 301.938476562 160 c 0,3,4
 235.938476562 160 235.938476562 160 196.711914062 198 c 1,5,-1
 116.705078125 133 l 1,6,-1
 82.86328125 177 l 1,7,-1
 162.639648438 241 l 1,8,9
 146.638750669 273.34867161 146.638750669 273.34867161 146.638750669 310.525193532 c 0,10,11
 146.638750669 331.960123754 146.638750669 331.960123754 151.958007812 355 c 0,12,13
 166.272460938 417 166.272460938 417 215.045898438 468 c 1,14,-1
 164.514648438 535 l 1,15,-1
 219.44140625 578 l 1,16,-1
 269.204101562 512 l 1,17,18
 327.977539062 550 327.977539062 550 391.977539062 550 c 0,19,20
 454.977539062 550 454.977539062 550 496.435546875 513 c 1,21,-1
 577.44140625 578 l 1,22,-1
 612.514648438 535 l 1,23,-1
 532.27734375 469 l 1,24,25
 543.736328125 445 543.736328125 445 546.541015625 416 c 0,26,27
 547.312795111 408.019929098 547.312795111 408.019929098 547.312795111 399.812694588 c 0,28,29
 547.312795111 378.194404522 547.312795111 378.194404522 541.958007812 355 c 256,30,31
 534.5703125 323 534.5703125 323 518.375 294 c 128,-1,32
 502.1796875 265 502.1796875 265 479.408203125 240 c 1,33,-1
 528.40234375 175 l 1,34,-1
 475.474609375 132 l 1,35,-1
 423.481445312 197 l 1,0,1
316.71484375 224 m 0,36,37
 375.71484375 224 375.71484375 224 419.487304688 262 c 128,-1,38
 463.260742188 300 463.260742188 300 476.189453125 356 c 0,39,40
 480.57850997 375.01209716 480.57850997 375.01209716 480.57850997 391.767756565 c 0,41,42
 480.57850997 426.128406809 480.57850997 426.128406809 462.12109375 451 c 0,43,44
 434.6640625 488 434.6640625 488 378.6640625 488 c 0,45,46
 321.6640625 488 321.6640625 488 275.775390625 449.5 c 128,-1,47
 229.88671875 411 229.88671875 411 216.727539062 354 c 0,48,49
 212.700534449 336.557802058 212.700534449 336.557802058 212.700534449 320.875613938 c 0,50,51
 212.700534449 287.107592313 212.700534449 287.107592313 231.372070312 261.5 c 0,52,53
 258.71484375 224 258.71484375 224 316.71484375 224 c 0,36,37
EndSplineSet
Validated: 524289
EndChar

StartChar: yen
Encoding: 165 165 103
Width: 530
Flags: W
LayerCount: 2
Fore
SplineSet
222 0 m 1,0,-1
 252.012695312 130 l 1,1,-1
 132.012695312 130 l 1,2,-1
 145.865234375 190 l 1,3,-1
 265.865234375 190 l 1,4,-1
 285.48828125 275 l 1,5,-1
 165.48828125 275 l 1,6,-1
 179.571289062 336 l 1,7,-1
 279.571289062 336 l 1,8,-1
 215.83984375 714 l 1,9,-1
 303.83984375 714 l 1,10,-1
 351.344726562 374 l 1,11,-1
 555.83984375 714 l 1,12,-1
 643.83984375 714 l 1,13,-1
 403.571289062 336 l 1,14,-1
 507.571289062 336 l 1,15,-1
 493.48828125 275 l 1,16,-1
 370.48828125 275 l 1,17,-1
 350.865234375 190 l 1,18,-1
 473.865234375 190 l 1,19,-1
 460.012695312 130 l 1,20,-1
 337.012695312 130 l 1,21,-1
 307 0 l 1,22,-1
 222 0 l 1,0,-1
EndSplineSet
Validated: 524289
EndChar

StartChar: brokenbar
Encoding: 166 166 104
Width: 530
Flags: W
LayerCount: 2
Fore
SplineSet
312.65234375 371 m 1,0,-1
 402.228515625 759 l 1,1,-1
 477.228515625 759 l 1,2,-1
 387.65234375 371 l 1,3,-1
 312.65234375 371 l 1,0,-1
172.053710938 -238 m 1,4,-1
 261.861328125 151 l 1,5,-1
 336.861328125 151 l 1,6,-1
 247.053710938 -238 l 1,7,-1
 172.053710938 -238 l 1,4,-1
EndSplineSet
Validated: 524289
EndChar

StartChar: section
Encoding: 167 167 105
Width: 530
Flags: W
LayerCount: 2
Fore
SplineSet
230.921875 -9 m 256,0,1
 142.921875 -9 142.921875 -9 96.3095703125 23 c 1,2,-1
 112.932617188 95 l 1,3,4
 133.776367188 77 133.776367188 77 171.006835938 65 c 128,-1,5
 208.236328125 53 208.236328125 53 246.236328125 53 c 0,6,7
 296.236328125 53 296.236328125 53 331.73828125 72.5 c 128,-1,8
 367.240234375 92 367.240234375 92 376.012695312 130 c 0,9,10
 378.277514931 139.809694564 378.277514931 139.809694564 378.277514931 148.654117988 c 0,11,12
 378.277514931 172.26730486 378.277514931 172.26730486 362.133789062 189 c 0,13,14
 339.944335938 212 339.944335938 212 292.946289062 238 c 0,15,16
 230.48828125 275 230.48828125 275 204.376953125 307 c 0,17,18
 186.4886329 328.921705267 186.4886329 328.921705267 186.4886329 360.229370727 c 0,19,20
 186.4886329 374.62277106 186.4886329 374.62277106 190.26953125 391 c 0,21,22
 201.3515625 439 201.3515625 439 234.0078125 470 c 128,-1,23
 266.665039062 501 266.665039062 501 307.127929688 516 c 1,24,25
 281.20703125 538 281.20703125 538 269.787109375 566.5 c 0,26,27
 263.472462664 582.257729766 263.472462664 582.257729766 263.472462664 601.531026837 c 0,28,29
 263.472462664 617.116111952 263.472462664 617.116111952 267.6015625 635 c 0,30,31
 282.146484375 698 282.146484375 698 335.995117188 732 c 128,-1,32
 389.844726562 766 389.844726562 766 467.844726562 766 c 0,33,34
 506.844726562 766 506.844726562 766 535.498046875 758 c 128,-1,35
 564.151367188 750 564.151367188 750 591.45703125 734 c 1,36,-1
 551.8359375 675 l 1,37,38
 527.298828125 690 527.298828125 690 504.415039062 697 c 128,-1,39
 481.53125 704 481.53125 704 451.53125 704 c 0,40,41
 405.53125 704 405.53125 704 378.491210938 686.5 c 128,-1,42
 351.451171875 669 351.451171875 669 344.524414062 639 c 0,43,44
 342.365469318 629.648691189 342.365469318 629.648691189 342.365469318 621.129490286 c 0,45,46
 342.365469318 598.674114628 342.365469318 598.674114628 357.365234375 582 c 0,47,48
 378.055664062 559 378.055664062 559 417.20703125 538 c 0,49,50
 449.8203125 519 449.8203125 519 478.318359375 499.5 c 128,-1,51
 506.81640625 480 506.81640625 480 521.352539062 452 c 0,52,53
 529.989261711 435.362529442 529.989261711 435.362529442 529.989261711 413.429036693 c 0,54,55
 529.989261711 398.449598786 529.989261711 398.449598786 525.9609375 381 c 0,56,57
 515.110351562 334 515.110351562 334 484.029296875 299 c 128,-1,58
 452.94921875 264 452.94921875 264 417.254882812 248 c 1,59,60
 443.252929688 222 443.252929688 222 452.51953125 195 c 0,61,62
 457.469473956 180.577403738 457.469473956 180.577403738 457.469473956 163.872104782 c 0,63,64
 457.469473956 149.304041882 457.469473956 149.304041882 453.705078125 133 c 0,65,66
 438.237304688 66 438.237304688 66 378.580078125 28.5 c 128,-1,67
 318.921875 -9 318.921875 -9 230.921875 -9 c 256,0,1
372.412109375 279 m 1,68,69
 403.413085938 292 403.413085938 292 424.838867188 315.5 c 128,-1,70
 446.264648438 339 446.264648438 339 453.190429688 369 c 0,71,72
 455.573129396 379.320272831 455.573129396 379.320272831 455.573129396 388.531087002 c 0,73,74
 455.573129396 400.740204623 455.573129396 400.740204623 451.38671875 411 c 0,75,76
 444.041992188 429 444.041992188 429 420.583007812 446.5 c 128,-1,77
 397.123046875 464 397.123046875 464 353.202148438 486 c 1,78,79
 318.124023438 477 318.124023438 477 293.814453125 454 c 128,-1,80
 269.50390625 431 269.50390625 431 262.80859375 402 c 0,81,82
 260.464827125 391.847961828 260.464827125 391.847961828 260.464827125 382.968317225 c 0,83,84
 260.464827125 368.231974552 260.464827125 368.231974552 266.919921875 357 c 0,85,86
 277.264648438 339 277.264648438 339 298.647460938 325.5 c 128,-1,87
 320.03125 312 320.03125 312 345.798828125 298 c 2,88,-1
 372.412109375 279 l 1,68,69
EndSplineSet
Validated: 524289
EndChar

StartChar: dieresis
Encoding: 168 168 106
Width: 530
GlyphClass: 2
Flags: W
AnchorPoint: "Anchor-1" 414.141 646 basechar 0
LayerCount: 2
Fore
SplineSet
509.061523438 624 m 0,0,1
 488.061523438 624 488.061523438 624 476.024414062 639 c 0,2,3
 468.47618545 648.406960769 468.47618545 648.406960769 468.47618545 664.106608537 c 0,4,5
 468.47618545 673.441052257 468.47618545 673.441052257 471.14453125 685 c 256,6,7
 478.301757812 716 478.301757812 716 497.034179688 730 c 128,-1,8
 515.765625 744 515.765625 744 536.765625 744 c 0,9,10
 558.765625 744 558.765625 744 570.91796875 729.5 c 0,11,12
 578.658742994 720.263820639 578.658742994 720.263820639 578.658742994 704.738658436 c 0,13,14
 578.658742994 695.890663391 578.658742994 695.890663391 576.14453125 685 c 0,15,16
 568.98828125 654 568.98828125 654 550.024414062 639 c 128,-1,17
 531.061523438 624 531.061523438 624 509.061523438 624 c 0,0,1
308.061523438 624 m 0,18,19
 287.061523438 624 287.061523438 624 275.024414062 639 c 0,20,21
 267.47618545 648.406960769 267.47618545 648.406960769 267.47618545 664.106608537 c 0,22,23
 267.47618545 673.441052257 267.47618545 673.441052257 270.14453125 685 c 256,24,25
 277.301757812 716 277.301757812 716 296.034179688 730 c 128,-1,26
 314.765625 744 314.765625 744 335.765625 744 c 0,27,28
 357.765625 744 357.765625 744 369.41796875 729.5 c 0,29,30
 376.726408911 720.405487805 376.726408911 720.405487805 376.726408911 705.213437645 c 0,31,32
 376.726408911 696.183767872 376.726408911 696.183767872 374.14453125 685 c 0,33,34
 366.98828125 654 366.98828125 654 348.524414062 639 c 128,-1,35
 330.061523438 624 330.061523438 624 308.061523438 624 c 0,18,19
EndSplineSet
Validated: 1572865
EndChar

StartChar: copyright
Encoding: 169 169 107
Width: 530
Flags: W
LayerCount: 2
Fore
SplineSet
293.396484375 123 m 0,0,1
 219.396484375 123 219.396484375 123 173.323242188 153 c 128,-1,2
 127.249023438 183 127.249023438 183 111.100585938 236.5 c 0,3,4
 102.971306758 263.432415977 102.971306758 263.432415977 102.971306758 294.29286164 c 0,5,6
 102.971306758 324.735265465 102.971306758 324.735265465 110.881835938 359 c 0,7,8
 127.2734375 430 127.2734375 430 169.009765625 483 c 128,-1,9
 210.745117188 536 210.745117188 536 271.171875 566 c 128,-1,10
 331.59765625 596 331.59765625 596 403.59765625 596 c 0,11,12
 476.59765625 596 476.59765625 596 522.671875 566 c 128,-1,13
 568.745117188 536 568.745117188 536 585.009765625 483 c 0,14,15
 593.167317395 456.416197332 593.167317395 456.416197332 593.167317395 425.55547206 c 128,-1,16
 593.167317395 394.88931723 593.167317395 394.88931723 585.112304688 360 c 0,17,18
 568.720703125 289 568.720703125 289 526.869140625 235.5 c 128,-1,19
 485.017578125 182 485.017578125 182 424.70703125 152.5 c 128,-1,20
 364.396484375 123 364.396484375 123 293.396484375 123 c 0,0,1
303.32421875 166 m 0,21,22
 387.32421875 166 387.32421875 166 451.598632812 217 c 128,-1,23
 515.873046875 268 515.873046875 268 536.650390625 358 c 0,24,25
 543.580144507 388.015210771 543.580144507 388.015210771 543.580144507 413.879011362 c 0,26,27
 543.580144507 464.705601859 543.580144507 464.705601859 516.818359375 499.5 c 0,28,29
 476.439453125 552 476.439453125 552 391.439453125 552 c 0,30,31
 307.439453125 552 307.439453125 552 243.549804688 500.5 c 128,-1,32
 179.66015625 449 179.66015625 449 159.112304688 360 c 0,33,34
 152.242312723 330.242803504 152.242312723 330.242803504 152.242312723 304.487695854 c 0,35,36
 152.242312723 254.078052111 152.242312723 254.078052111 178.560546875 219 c 0,37,38
 218.32421875 166 218.32421875 166 303.32421875 166 c 0,21,22
324.712890625 211 m 0,39,40
 257.712890625 211 257.712890625 211 234.563476562 251.5 c 0,41,42
 220.432540595 276.221090712 220.432540595 276.221090712 220.432540595 309.69792577 c 0,43,44
 220.432540595 331.065427299 220.432540595 331.065427299 226.189453125 356 c 0,45,46
 241.657226562 423 241.657226562 423 285.353515625 465 c 128,-1,47
 329.049804688 507 329.049804688 507 392.049804688 507 c 0,48,49
 435.049804688 507 435.049804688 507 468.6640625 488 c 1,50,-1
 439.505859375 444 l 1,51,52
 425.352539062 452 425.352539062 452 411.276367188 456 c 128,-1,53
 397.19921875 460 397.19921875 460 383.19921875 460 c 0,54,55
 345.19921875 460 345.19921875 460 318.081054688 433.5 c 128,-1,56
 290.962890625 407 290.962890625 407 279.189453125 356 c 0,57,58
 274.251996631 334.615019245 274.251996631 334.615019245 274.251996631 317.577555665 c 0,59,60
 274.251996631 297.170010646 274.251996631 297.170010646 281.3359375 283 c 0,61,62
 294.333007812 257 294.333007812 257 334.333007812 257 c 0,63,64
 350.333007812 257 350.333007812 257 369.756835938 261 c 128,-1,65
 389.1796875 265 389.1796875 265 407.565429688 271 c 1,66,-1
 397.17578125 226 l 1,67,68
 379.560546875 219 379.560546875 219 362.13671875 215 c 128,-1,69
 344.712890625 211 344.712890625 211 324.712890625 211 c 0,39,40
EndSplineSet
Validated: 524289
EndChar

StartChar: ordfeminine
Encoding: 170 170 108
Width: 530
GlyphClass: 2
Flags: W
AnchorPoint: "Anchor-1" 420.687 722 basechar 0
AnchorPoint: "Anchor-0" 339.577 388 basechar 0
LayerCount: 2
Fore
SplineSet
316.19140625 382 m 0,0,1
 271.19140625 382 271.19140625 382 248.079101562 407.5 c 0,2,3
 232.349921867 424.853402916 232.349921867 424.853402916 232.349921867 452.163780447 c 0,4,5
 232.349921867 464.984703413 232.349921867 464.984703413 235.81640625 480 c 0,6,7
 259.134765625 581 259.134765625 581 410.211914062 590 c 2,8,-1
 456.905273438 593 l 1,9,-1
 461.752929688 614 l 2,10,11
 464.232851845 624.741253782 464.232851845 624.741253782 464.232851845 633.321486138 c 0,12,13
 464.232851845 649.504396747 464.232851845 649.504396747 455.411132812 658 c 0,14,15
 441.912109375 671 441.912109375 671 409.912109375 671 c 0,16,17
 386.912109375 671 386.912109375 671 364.912109375 664.5 c 128,-1,18
 342.911132812 658 342.911132812 658 319.602539062 648 c 1,19,-1
 310.22265625 694 l 1,20,21
 338.455078125 708 338.455078125 708 367.0703125 715 c 128,-1,22
 395.686523438 722 395.686523438 722 427.686523438 722 c 0,23,24
 528.19440384 722 528.19440384 722 528.19440384 645.306420008 c 0,25,26
 528.19440384 628.906635365 528.19440384 628.906635365 523.598632812 609 c 2,27,-1
 472.577148438 388 l 1,28,-1
 427.577148438 388 l 1,29,-1
 425.965820312 433 l 1,30,31
 401.962890625 407 401.962890625 407 375.577148438 394.5 c 128,-1,32
 349.19140625 382 349.19140625 382 316.19140625 382 c 0,0,1
344.427734375 435 m 0,33,34
 381.427734375 435 381.427734375 435 406.237304688 458 c 128,-1,35
 431.047851562 481 431.047851562 481 440.051757812 520 c 2,36,-1
 445.592773438 544 l 1,37,-1
 408.899414062 541 l 2,38,39
 358.9765625 537 358.9765625 537 333.206054688 525 c 128,-1,40
 307.435546875 513 307.435546875 513 300.509765625 483 c 0,41,42
 298.618461562 474.808935203 298.618461562 474.808935203 298.618461562 468.067090924 c 0,43,44
 298.618461562 454.232110193 298.618461562 454.232110193 306.583007812 446.5 c 0,45,46
 318.427734375 435 318.427734375 435 344.427734375 435 c 0,33,34
EndSplineSet
Validated: 1572865
EndChar

StartChar: guillemotleft
Encoding: 171 171 109
Width: 530
Flags: W
LayerCount: 2
Fore
SplineSet
421.852539062 60 m 1,0,-1
 315.333007812 257 l 1,1,-1
 318.565429688 271 l 1,2,-1
 516.045898438 468 l 1,3,-1
 565.427734375 435 l 1,4,-1
 411.94921875 264 l 1,5,-1
 486.701171875 94 l 1,6,-1
 421.852539062 60 l 1,0,-1
229.852539062 60 m 1,7,-1
 124.333007812 257 l 1,8,-1
 127.565429688 271 l 1,9,-1
 324.045898438 468 l 1,10,-1
 374.427734375 435 l 1,11,-1
 219.94921875 264 l 1,12,-1
 295.701171875 94 l 1,13,-1
 229.852539062 60 l 1,7,-1
EndSplineSet
Validated: 524289
EndChar

StartChar: logicalnot
Encoding: 172 172 110
Width: 530
Flags: W
LayerCount: 2
Fore
SplineSet
415.166015625 122 m 1,0,-1
 460.416015625 318 l 1,1,-1
 145.416015625 318 l 1,2,-1
 161.345703125 387 l 1,3,-1
 545.345703125 387 l 1,4,-1
 484.166015625 122 l 1,5,-1
 415.166015625 122 l 1,0,-1
EndSplineSet
Validated: 524289
EndChar

StartChar: registered
Encoding: 174 174 112
Width: 530
Flags: W
LayerCount: 2
Fore
SplineSet
293.396484375 123 m 0,0,1
 219.396484375 123 219.396484375 123 173.323242188 153 c 128,-1,2
 127.249023438 183 127.249023438 183 111.100585938 236.5 c 0,3,4
 102.971306758 263.432415977 102.971306758 263.432415977 102.971306758 294.29286164 c 0,5,6
 102.971306758 324.735265465 102.971306758 324.735265465 110.881835938 359 c 0,7,8
 127.2734375 430 127.2734375 430 169.009765625 483 c 128,-1,9
 210.745117188 536 210.745117188 536 271.171875 566 c 128,-1,10
 331.59765625 596 331.59765625 596 403.59765625 596 c 0,11,12
 476.59765625 596 476.59765625 596 522.671875 566 c 128,-1,13
 568.745117188 536 568.745117188 536 585.009765625 483 c 0,14,15
 593.167317395 456.416197332 593.167317395 456.416197332 593.167317395 425.55547206 c 128,-1,16
 593.167317395 394.88931723 593.167317395 394.88931723 585.112304688 360 c 0,17,18
 568.720703125 289 568.720703125 289 526.869140625 235.5 c 128,-1,19
 485.017578125 182 485.017578125 182 424.70703125 152.5 c 128,-1,20
 364.396484375 123 364.396484375 123 293.396484375 123 c 0,0,1
303.32421875 166 m 0,21,22
 387.32421875 166 387.32421875 166 451.598632812 217 c 128,-1,23
 515.873046875 268 515.873046875 268 536.650390625 358 c 0,24,25
 543.580144507 388.015210771 543.580144507 388.015210771 543.580144507 413.879011362 c 0,26,27
 543.580144507 464.705601859 543.580144507 464.705601859 516.818359375 499.5 c 0,28,29
 476.439453125 552 476.439453125 552 391.439453125 552 c 0,30,31
 307.439453125 552 307.439453125 552 243.549804688 500.5 c 128,-1,32
 179.66015625 449 179.66015625 449 159.112304688 360 c 0,33,34
 152.242312723 330.242803504 152.242312723 330.242803504 152.242312723 304.487695854 c 0,35,36
 152.242312723 254.078052111 152.242312723 254.078052111 178.560546875 219 c 0,37,38
 218.32421875 166 218.32421875 166 303.32421875 166 c 0,21,22
222.8671875 216 m 1,39,-1
 290.049804688 507 l 1,40,-1
 372.049804688 507 l 2,41,42
 425.049804688 507 425.049804688 507 445.740234375 484 c 0,43,44
 460.045420832 468.097996345 460.045420832 468.097996345 460.045420832 444.069616047 c 0,45,46
 460.045420832 433.34434147 460.045420832 433.34434147 457.1953125 421 c 0,47,48
 448.883789062 385 448.883789062 385 427.498046875 366 c 128,-1,49
 406.111328125 347 406.111328125 347 386.264648438 339 c 1,50,-1
 433.8671875 216 l 1,51,-1
 375.8671875 216 l 1,52,-1
 336.262695312 326 l 1,53,-1
 296.262695312 326 l 1,54,-1
 270.8671875 216 l 1,55,-1
 222.8671875 216 l 1,39,-1
338.959960938 368 m 2,56,57
 363.959960938 368 363.959960938 368 382.845703125 380.5 c 128,-1,58
 401.731445312 393 401.731445312 393 407.272460938 417 c 0,59,60
 408.915823804 424.118720291 408.915823804 424.118720291 408.915823804 430.135784527 c 0,61,62
 408.915823804 463 408.915823804 463 359.891601562 463 c 2,63,-1
 327.891601562 463 l 1,64,-1
 305.959960938 368 l 1,65,-1
 338.959960938 368 l 2,56,57
EndSplineSet
Validated: 524289
EndChar

StartChar: overscore
Encoding: 175 175 113
Width: 530
Flags: W
LayerCount: 2
Fore
SplineSet
280.215820312 629 m 1,0,-1
 295.22265625 694 l 1,1,-1
 554.22265625 694 l 1,2,-1
 539.215820312 629 l 1,3,-1
 280.215820312 629 l 1,0,-1
EndSplineSet
Validated: 524289
EndChar

StartChar: degree
Encoding: 176 176 114
Width: 530
Flags: W
LayerCount: 2
Fore
SplineSet
367.736328125 445 m 0,0,1
 306.736328125 445 306.736328125 445 276.009765625 483 c 0,2,3
 255.154224811 508.791539938 255.154224811 508.791539938 255.154224811 546.099761532 c 0,4,5
 255.154224811 563.759658319 255.154224811 563.759658319 259.827148438 584 c 256,6,7
 274.372070312 647 274.372070312 647 323.64453125 685 c 128,-1,8
 372.91796875 723 372.91796875 723 431.91796875 723 c 0,9,10
 469.91796875 723 469.91796875 723 497.877929688 705.5 c 128,-1,11
 525.836914062 688 525.836914062 688 537.065429688 656.5 c 0,12,13
 543.089745579 639.598170533 543.089745579 639.598170533 543.089745579 619.673358638 c 0,14,15
 543.089745579 602.464227377 543.089745579 602.464227377 538.595703125 583 c 0,16,17
 524.051757812 520 524.051757812 520 474.893554688 482.5 c 128,-1,18
 425.736328125 445 425.736328125 445 367.736328125 445 c 0,0,1
381.203125 499 m 256,19,20
 415.203125 499 415.203125 499 444.397460938 521.5 c 128,-1,21
 473.592773438 544 473.592773438 544 482.827148438 584 c 256,22,23
 485.868288339 597.173127155 485.868288339 597.173127155 485.868288339 608.448255945 c 0,24,25
 485.868288339 631.409884025 485.868288339 631.409884025 473.255859375 646.5 c 0,26,27
 454.451171875 669 454.451171875 669 420.451171875 669 c 0,28,29
 382.451171875 669 382.451171875 669 354.025390625 645.5 c 128,-1,30
 325.599609375 622 325.599609375 622 316.595703125 583 c 0,31,32
 313.670891536 570.330765366 313.670891536 570.330765366 313.670891536 559.467262677 c 0,33,34
 313.670891536 536.031920951 313.670891536 536.031920951 327.282226562 521 c 0,35,36
 347.203125 499 347.203125 499 381.203125 499 c 256,19,20
EndSplineSet
Validated: 524289
EndChar

StartChar: plusminus
Encoding: 177 177 115
Width: 530
Flags: W
LayerCount: 2
Fore
SplineSet
259.705078125 133 m 1,0,-1
 305.6484375 332 l 1,1,-1
 144.6484375 332 l 1,2,-1
 160.578125 401 l 1,3,-1
 321.578125 401 l 1,4,-1
 367.751953125 601 l 1,5,-1
 437.751953125 601 l 1,6,-1
 391.578125 401 l 1,7,-1
 551.578125 401 l 1,8,-1
 535.6484375 332 l 1,9,-1
 375.6484375 332 l 1,10,-1
 329.705078125 133 l 1,11,-1
 259.705078125 133 l 1,0,-1
70 0 m 1,12,-1
 85.9296875 69 l 1,13,-1
 475.9296875 69 l 1,14,-1
 460 0 l 1,15,-1
 70 0 l 1,12,-1
EndSplineSet
Validated: 524289
EndChar

StartChar: uni00B2
Encoding: 178 178 116
Width: 530
Flags: W
LayerCount: 2
Fore
SplineSet
230.810546875 415 m 1,0,-1
 243.739257812 471 l 1,1,-1
 366.903320312 580 l 2,2,3
 409.4453125 617 409.4453125 617 437.217773438 642 c 128,-1,4
 464.989257812 667 464.989257812 667 480.336914062 688 c 128,-1,5
 495.685546875 709 495.685546875 709 501.45703125 734 c 0,6,7
 503.421830884 742.509778716 503.421830884 742.509778716 503.421830884 749.91114416 c 0,8,9
 503.421830884 766.862730695 503.421830884 766.862730695 493.115234375 778 c 0,10,11
 478.309570312 794 478.309570312 794 445.309570312 794 c 0,12,13
 395.309570312 794 395.309570312 794 343.84375 753 c 1,14,-1
 320.001953125 797 l 1,15,16
 350.004882812 823 350.004882812 823 386.967773438 838 c 128,-1,17
 423.930664062 853 423.930664062 853 463.930664062 853 c 0,18,19
 526.930664062 853 526.930664062 853 554.658203125 821.5 c 0,20,21
 574.008053604 799.517512166 574.008053604 799.517512166 574.008053604 767.551441251 c 0,22,23
 574.008053604 753.711448656 574.008053604 753.711448656 570.380859375 738 c 0,24,25
 562.30078125 703 562.30078125 703 541.8359375 675 c 128,-1,26
 521.372070312 647 521.372070312 647 486.71484375 616 c 128,-1,27
 452.057617188 585 452.057617188 585 399.668945312 540 c 2,28,-1
 323.431640625 474 l 1,29,-1
 519.431640625 474 l 1,30,-1
 505.810546875 415 l 1,31,-1
 230.810546875 415 l 1,0,-1
EndSplineSet
Validated: 524289
EndChar

StartChar: uni00B3
Encoding: 179 179 117
Width: 530
Flags: W
LayerCount: 2
Fore
SplineSet
340.962890625 407 m 0,0,1
 281.962890625 407 281.962890625 407 237.965820312 433 c 1,2,-1
 252.741210938 497 l 1,3,4
 297.584960938 466 297.584960938 466 354.584960938 466 c 0,5,6
 400.584960938 466 400.584960938 466 425.970703125 485 c 128,-1,7
 451.357421875 504 451.357421875 504 458.745117188 536 c 0,8,9
 461.196842432 546.619501998 461.196842432 546.619501998 461.196842432 555.694157109 c 0,10,11
 461.196842432 609 461.196842432 609 376.598632812 609 c 2,12,-1
 336.598632812 609 l 1,13,-1
 349.296875 664 l 1,14,-1
 388.296875 664 l 2,15,16
 432.296875 664 432.296875 664 459.298828125 683.5 c 128,-1,17
 486.30078125 703 486.30078125 703 493.45703125 734 c 0,18,19
 495.603499835 743.297731941 495.603499835 743.297731941 495.603499835 751.20269346 c 0,20,21
 495.603499835 768.803828169 495.603499835 768.803828169 484.961914062 779.5 c 0,22,23
 469.540039062 795 469.540039062 795 438.540039062 795 c 0,24,25
 414.540039062 795 414.540039062 795 391.846679688 785.5 c 128,-1,26
 369.153320312 776 369.153320312 776 344.228515625 759 c 1,27,-1
 320.848632812 805 l 1,28,29
 354.159179688 828 354.159179688 828 386.544921875 840.5 c 128,-1,30
 418.930664062 853 418.930664062 853 456.930664062 853 c 0,31,32
 516.930664062 853 516.930664062 853 545.120117188 823.5 c 0,33,34
 565.00421058 802.691481563 565.00421058 802.691481563 565.00421058 771.185599782 c 0,35,36
 565.00421058 758.025951177 565.00421058 758.025951177 561.53515625 743 c 0,37,38
 552.993164062 706 552.993164062 706 528.990234375 680 c 128,-1,39
 504.98828125 654 504.98828125 654 471.217773438 642 c 1,40,-1
 470.293945312 638 l 1,41,42
 505.985351562 628 505.985351562 628 520.8671875 601.5 c 0,43,44
 529.963300842 585.30260308 529.963300842 585.30260308 529.963300842 563.688108018 c 0,45,46
 529.963300842 549.939876464 529.963300842 549.939876464 526.283203125 534 c 0,47,48
 512.662109375 475 512.662109375 475 462.8125 441 c 128,-1,49
 412.962890625 407 412.962890625 407 340.962890625 407 c 0,0,1
EndSplineSet
Validated: 524289
EndChar

StartChar: acute
Encoding: 180 180 118
Width: 530
Flags: W
LayerCount: 2
Fore
SplineSet
368.4453125 617 m 1,0,1
 402.98828125 654 402.98828125 654 435.991210938 693 c 128,-1,2
 468.995117188 732 468.995117188 732 493.844726562 766 c 1,3,-1
 592.844726562 766 l 1,4,-1
 590.767578125 757 l 1,5,6
 573.918945312 736 573.918945312 736 542.838867188 707.5 c 128,-1,7
 511.759765625 679 511.759765625 679 478.41015625 651.5 c 128,-1,8
 445.061523438 624 445.061523438 624 419.90625 606 c 1,9,-1
 365.90625 606 l 1,10,-1
 368.4453125 617 l 1,0,1
EndSplineSet
Validated: 524289
EndChar

StartChar: uni00B5
Encoding: 181 181 119
Width: 530
GlyphClass: 2
Flags: W
AnchorPoint: "Anchor-2" 633.745 536 basechar 0
AnchorPoint: "Anchor-1" 388.745 536 basechar 0
AnchorPoint: "Anchor-0" 265 0 basechar 0
LayerCount: 2
Fore
SplineSet
224.69140625 -10 m 0,0,1
 177.69140625 -10 177.69140625 -10 146.384765625 6 c 1,2,-1
 89.591796875 -240 l 1,3,-1
 5.591796875 -240 l 1,4,-1
 184.745117188 536 l 1,5,-1
 268.745117188 536 l 1,6,-1
 189.095703125 191 l 2,7,8
 181.707361267 158.998287246 181.707361267 158.998287246 181.707361267 135.461153997 c 0,9,10
 181.707361267 107.513563911 181.707361267 107.513563911 192.124023438 91.5 c 0,11,12
 211.313476562 62 211.313476562 62 267.313476562 62 c 0,13,14
 333.313476562 62 333.313476562 62 375.587890625 113 c 128,-1,15
 417.862304688 164 417.862304688 164 439.564453125 258 c 2,16,-1
 503.745117188 536 l 1,17,-1
 587.745117188 536 l 1,18,-1
 464 0 l 1,19,-1
 394 0 l 1,20,-1
 397.622070312 72 l 1,21,-1
 392.622070312 72 l 1,22,23
 360.6953125 29 360.6953125 29 317.693359375 9.5 c 128,-1,24
 274.69140625 -10 274.69140625 -10 224.69140625 -10 c 0,0,1
EndSplineSet
Validated: 1572865
EndChar

StartChar: paragraph
Encoding: 182 182 120
Width: 530
Flags: W
LayerCount: 2
Fore
SplineSet
313.02734375 273 m 1,0,1
 288.94921875 264 288.94921875 264 259.94921875 264 c 0,2,3
 190.94921875 264 190.94921875 264 168.455078125 322.5 c 0,4,5
 158.732969911 347.784065748 158.732969911 347.784065748 158.732969911 386.05088748 c 0,6,7
 158.732969911 436.32240027 158.732969911 436.32240027 175.51171875 509 c 0,8,9
 205.524414062 639 205.524414062 639 259.4921875 699.5 c 128,-1,10
 313.459960938 760 313.459960938 760 393.459960938 760 c 2,11,-1
 617.459960938 760 l 1,12,-1
 412.6796875 -127 l 1,13,-1
 354.6796875 -127 l 1,14,-1
 546.30078125 703 l 1,15,-1
 470.30078125 703 l 1,16,-1
 278.6796875 -127 l 1,17,-1
 220.6796875 -127 l 1,18,-1
 313.02734375 273 l 1,0,1
EndSplineSet
Validated: 524289
EndChar

StartChar: cedilla
Encoding: 184 184 122
Width: 530
Flags: W
LayerCount: 2
Fore
SplineSet
170.591796875 -240 m 0,0,1
 155.591796875 -240 155.591796875 -240 141.9375 -238.5 c 128,-1,2
 128.284179688 -237 128.284179688 -237 119.9765625 -234 c 1,3,-1
 132.443359375 -180 l 1,4,5
 150.05859375 -186 150.05859375 -186 176.05859375 -186 c 0,6,7
 243.05859375 -186 243.05859375 -186 254.140625 -138 c 0,8,9
 255.634368831 -131.529216441 255.634368831 -131.529216441 255.634368831 -125.89461489 c 0,10,11
 255.634368831 -108.889046366 255.634368831 -108.889046366 242.028320312 -99.5 c 0,12,13
 223.9140625 -87 223.9140625 -87 187.299804688 -81 c 1,14,-1
 242.461914062 2 l 1,15,-1
 294.461914062 2 l 1,16,-1
 259.225585938 -51 l 1,17,18
 297.147460938 -60 297.147460938 -60 314.184570312 -81.5 c 0,19,20
 325.429616925 -95.6915131106 325.429616925 -95.6915131106 325.429616925 -117.071959119 c 0,21,22
 325.429616925 -128.082674335 325.429616925 -128.082674335 322.447265625 -141 c 0,23,24
 311.596679688 -188 311.596679688 -188 272.09375 -214 c 128,-1,25
 232.591796875 -240 232.591796875 -240 170.591796875 -240 c 0,0,1
EndSplineSet
Validated: 524289
EndChar

StartChar: uni00B9
Encoding: 185 185 123
Width: 530
Flags: W
LayerCount: 2
Fore
SplineSet
246.810546875 415 m 1,0,-1
 257.891601562 463 l 1,1,-1
 355.045898438 468 l 1,2,-1
 404.452148438 682 l 2,3,4
 409.76171875 705 409.76171875 705 415.725585938 726.5 c 128,-1,5
 421.689453125 748 421.689453125 748 428.999023438 771 c 1,6,7
 419.3828125 764 419.3828125 764 410.3828125 757.5 c 128,-1,8
 401.381835938 751 401.381835938 751 390.997070312 745 c 2,9,-1
 323.53125 704 l 1,10,-1
 300.84375 753 l 1,11,-1
 448.622070312 843 l 1,12,-1
 506.622070312 843 l 1,13,-1
 420.045898438 468 l 1,14,-1
 513.891601562 463 l 1,15,-1
 502.810546875 415 l 1,16,-1
 246.810546875 415 l 1,0,-1
EndSplineSet
Validated: 524289
EndChar

StartChar: ordmasculine
Encoding: 186 186 124
Width: 530
GlyphClass: 2
Flags: W
AnchorPoint: "Anchor-1" 431.687 722 basechar 0
AnchorPoint: "Anchor-0" 351.961 381 basechar 0
LayerCount: 2
Fore
SplineSet
358.19140625 382 m 0,0,1
 292.19140625 382 292.19140625 382 266.46484375 426.5 c 0,2,3
 251.644840462 452.13557339 251.644840462 452.13557339 251.644840462 490.216216022 c 0,4,5
 251.644840462 518.238584675 251.644840462 518.238584675 259.669921875 553 c 0,6,7
 278.370117188 634 278.370117188 634 325.528320312 678 c 128,-1,8
 372.686523438 722 372.686523438 722 437.686523438 722 c 0,9,10
 500.686523438 722 500.686523438 722 527.375 679.5 c 0,11,12
 542.831670678 654.886062134 542.831670678 654.886062134 542.831670678 616.352342181 c 0,13,14
 542.831670678 588.351275748 542.831670678 588.351275748 534.669921875 553 c 0,15,16
 515.739257812 471 515.739257812 471 469.46484375 426.5 c 128,-1,17
 423.19140625 382 423.19140625 382 358.19140625 382 c 0,0,1
370.658203125 436 m 0,18,19
 409.658203125 436 409.658203125 436 433.73828125 464.5 c 128,-1,20
 457.818359375 493 457.818359375 493 471.669921875 553 c 0,21,22
 479.376777357 586.381944444 479.376777357 586.381944444 479.376777357 609.731406707 c 0,23,24
 479.376777357 629.04923725 479.376777357 629.04923725 474.1015625 641.5 c 0,25,26
 462.451171875 669 462.451171875 669 424.451171875 669 c 0,27,28
 350.451171875 669 350.451171875 669 323.669921875 553 c 0,29,30
 316.446671357 521.712827256 316.446671357 521.712827256 316.446671357 498.792211591 c 0,31,32
 316.446671357 436 316.446671357 436 370.658203125 436 c 0,18,19
EndSplineSet
Validated: 1572865
EndChar

StartChar: onequarter
Encoding: 188 188 126
Width: 530
Flags: W
LayerCount: 2
Fore
SplineSet
67 0 m 1,0,-1
 564.83984375 714 l 1,1,-1
 636.83984375 714 l 1,2,-1
 140 0 l 1,3,-1
 67 0 l 1,0,-1
113.728515625 367 m 1,4,-1
 125.272460938 417 l 1,5,-1
 193.887695312 424 l 1,6,-1
 225.748046875 562 l 2,7,8
 231.750976562 588 231.750976562 588 236.751953125 607.5 c 128,-1,9
 241.75390625 627 241.75390625 627 247.602539062 648 c 1,10,11
 227.215820312 629 227.215820312 629 203.21484375 616 c 2,12,-1
 173.520507812 600 l 1,13,-1
 156.21875 655 l 1,14,-1
 261.83984375 714 l 1,15,-1
 320.83984375 714 l 1,16,-1
 253.887695312 424 l 1,17,-1
 322.272460938 417 l 1,18,-1
 310.728515625 367 l 1,19,-1
 113.728515625 367 l 1,4,-1
402 0 m 1,20,-1
 420.23828125 79 l 1,21,-1
 282.23828125 79 l 1,22,-1
 294.012695312 130 l 1,23,-1
 479.573242188 349 l 1,24,-1
 540.573242188 349 l 1,25,-1
 490.936523438 134 l 1,26,-1
 536.936523438 134 l 1,27,-1
 524.23828125 79 l 1,28,-1
 478.23828125 79 l 1,29,-1
 460 0 l 1,30,-1
 402 0 l 1,20,-1
356.936523438 134 m 1,31,-1
 432.936523438 134 l 1,32,-1
 450.250976562 209 l 2,33,34
 454.637695312 228 454.637695312 228 458.139648438 241 c 128,-1,35
 461.640625 254 461.640625 254 466.795898438 272 c 1,36,37
 460.71875 263 460.71875 263 451.448242188 251 c 128,-1,38
 442.177734375 239 442.177734375 239 432.407226562 227 c 2,39,-1
 356.936523438 134 l 1,31,-1
EndSplineSet
Validated: 524289
EndChar

StartChar: onehalf
Encoding: 189 189 127
Width: 530
Flags: W
LayerCount: 2
Fore
SplineSet
67 0 m 1,0,-1
 564.83984375 714 l 1,1,-1
 636.83984375 714 l 1,2,-1
 140 0 l 1,3,-1
 67 0 l 1,0,-1
113.728515625 367 m 1,4,-1
 125.272460938 417 l 1,5,-1
 193.887695312 424 l 1,6,-1
 225.748046875 562 l 2,7,8
 231.750976562 588 231.750976562 588 236.751953125 607.5 c 128,-1,9
 241.75390625 627 241.75390625 627 247.602539062 648 c 1,10,11
 227.215820312 629 227.215820312 629 203.21484375 616 c 2,12,-1
 173.520507812 600 l 1,13,-1
 156.21875 655 l 1,14,-1
 261.83984375 714 l 1,15,-1
 320.83984375 714 l 1,16,-1
 253.887695312 424 l 1,17,-1
 322.272460938 417 l 1,18,-1
 310.728515625 367 l 1,19,-1
 113.728515625 367 l 1,4,-1
295 0 m 1,20,-1
 306.236328125 53 l 1,21,-1
 402.859375 138 l 2,22,23
 436.5546875 167 436.5546875 167 455.2109375 185 c 128,-1,24
 473.866210938 203 473.866210938 203 482.598632812 217 c 128,-1,25
 491.330078125 231 491.330078125 231 495.254882812 248 c 0,26,27
 497.493207176 257.693977959 497.493207176 257.693977959 497.493207176 265.508491744 c 0,28,29
 497.493207176 277.846988979 497.493207176 277.846988979 491.913085938 285.5 c 0,30,31
 482.798828125 298 482.798828125 298 462.798828125 298 c 0,32,33
 443.798828125 298 443.798828125 298 426.60546875 288.5 c 128,-1,34
 409.412109375 279 409.412109375 279 389.94921875 264 c 1,35,-1
 368.337890625 309 l 1,36,37
 392.956054688 329 392.956054688 329 420.45703125 342 c 128,-1,38
 447.958007812 355 447.958007812 355 478.958007812 355 c 0,39,40
 526.958007812 355 526.958007812 355 548.109375 327.5 c 0,41,42
 561.988778215 309.454661132 561.988778215 309.454661132 561.988778215 282.582211886 c 0,43,44
 561.988778215 268.502681249 561.988778215 268.502681249 558.178710938 252 c 0,45,46
 549.174804688 213 549.174804688 213 520.864257812 183.5 c 128,-1,47
 492.553710938 154 492.553710938 154 442.395507812 110 c 2,48,-1
 386.083007812 61 l 1,49,-1
 522.083007812 61 l 1,50,-1
 508 0 l 1,51,-1
 295 0 l 1,20,-1
EndSplineSet
Validated: 524289
EndChar

StartChar: threequarters
Encoding: 190 190 128
Width: 530
Flags: W
LayerCount: 2
Fore
SplineSet
191.34375 361 m 0,0,1
 168.34375 361 168.34375 361 148.881835938 365.5 c 128,-1,2
 129.420898438 370 129.420898438 370 113.729492188 380 c 1,3,-1
 128.043945312 442 l 1,4,5
 146.2734375 430 146.2734375 430 165.772460938 423.5 c 128,-1,6
 185.272460938 417 185.272460938 417 205.272460938 417 c 0,7,8
 235.272460938 417 235.272460938 417 253.119140625 431.5 c 128,-1,9
 270.966796875 446 270.966796875 446 276.739257812 471 c 0,10,11
 278.49976962 478.626401947 278.49976962 478.626401947 278.49976962 484.962226824 c 0,12,13
 278.49976962 500.22655467 278.49976962 500.22655467 268.28125 508 c 0,14,15
 253.8203125 519 253.8203125 519 222.8203125 519 c 2,16,-1
 182.8203125 519 l 1,17,-1
 195.287109375 573 l 1,18,-1
 234.287109375 573 l 2,19,20
 264.287109375 573 264.287109375 573 281.404296875 586.5 c 128,-1,21
 298.520507812 600 298.520507812 600 303.599609375 622 c 0,22,23
 305.508822247 630.268808674 305.508822247 630.268808674 305.508822247 636.986618553 c 0,24,25
 305.508822247 648.954647627 305.508822247 648.954647627 299.44921875 656 c 0,26,27
 289.989257812 667 289.989257812 667 270.989257812 667 c 0,28,29
 253.989257812 667 253.989257812 667 236.026367188 658.5 c 128,-1,30
 218.064453125 650 218.064453125 650 198.293945312 638 c 1,31,-1
 176.682617188 683 l 1,32,33
 202.838867188 701 202.838867188 701 228.877929688 712 c 128,-1,34
 254.91796875 723 254.91796875 723 286.91796875 723 c 0,35,36
 337.91796875 723 337.91796875 723 358.299804688 696.5 c 0,37,38
 372.005681475 678.679930406 372.005681475 678.679930406 372.005681475 653.398621188 c 0,39,40
 372.005681475 641.084415375 372.005681475 641.084415375 368.75390625 627 c 0,41,42
 361.59765625 596 361.59765625 596 344.7109375 577 c 128,-1,43
 327.82421875 558 327.82421875 558 306.439453125 552 c 1,44,-1
 305.747070312 549 l 1,45,46
 343.879485039 535.79065776 343.879485039 535.79065776 343.879485039 496.015862975 c 0,47,48
 343.879485039 484.601771964 343.879485039 484.601771964 340.739257812 471 c 0,49,50
 329.426757812 422 329.426757812 422 292.384765625 391.5 c 128,-1,51
 255.34375 361 255.34375 361 191.34375 361 c 0,0,1
67 0 m 1,52,-1
 564.83984375 714 l 1,53,-1
 636.83984375 714 l 1,54,-1
 139 0 l 1,55,-1
 67 0 l 1,52,-1
401 0 m 1,56,-1
 419.23828125 79 l 1,57,-1
 282.23828125 79 l 1,58,-1
 294.012695312 130 l 1,59,-1
 478.573242188 349 l 1,60,-1
 540.573242188 349 l 1,61,-1
 490.936523438 134 l 1,62,-1
 536.936523438 134 l 1,63,-1
 524.23828125 79 l 1,64,-1
 478.23828125 79 l 1,65,-1
 460 0 l 1,66,-1
 401 0 l 1,56,-1
356.936523438 134 m 1,67,-1
 431.936523438 134 l 1,68,-1
 449.250976562 209 l 2,69,70
 453.637695312 228 453.637695312 228 457.639648438 241 c 128,-1,71
 461.640625 254 461.640625 254 465.795898438 272 c 1,72,73
 460.71875 263 460.71875 263 450.948242188 251 c 128,-1,74
 441.177734375 239 441.177734375 239 432.407226562 227 c 2,75,-1
 356.936523438 134 l 1,67,-1
EndSplineSet
Validated: 524289
EndChar

StartChar: AE
Encoding: 198 198 136
Width: 530
GlyphClass: 2
Flags: W
AnchorPoint: "Anchor-1" 466.84 714 basechar 0
AnchorPoint: "Anchor-0" 265 0 basechar 0
LayerCount: 2
Fore
SplineSet
20 0 m 1,0,-1
 334.83984375 714 l 1,1,-1
 659.83984375 714 l 1,2,-1
 641.370117188 634 l 1,3,-1
 478.370117188 634 l 1,4,-1
 427.118164062 412 l 1,5,-1
 574.118164062 412 l 1,6,-1
 555.87890625 333 l 1,7,-1
 408.87890625 333 l 1,8,-1
 350.469726562 80 l 1,9,-1
 513.469726562 80 l 1,10,-1
 495 0 l 1,11,-1
 253 0 l 1,12,-1
 304.9453125 225 l 1,13,-1
 197.9453125 225 l 1,14,-1
 101 0 l 1,15,-1
 20 0 l 1,0,-1
375.370117188 634 m 1,16,-1
 231.72265625 302 l 1,17,-1
 322.72265625 302 l 1,18,-1
 399.370117188 634 l 1,19,-1
 375.370117188 634 l 1,16,-1
EndSplineSet
Validated: 1572865
Substitution2: "'c2sc' Capitals to Small Capitals lookup 34 subtable" ae.sc
Substitution2: "'aalt' Access All Alternates lookup 0 subtable" ae.sc
EndChar

StartChar: Eth
Encoding: 208 208 146
Width: 530
GlyphClass: 2
Flags: W
AnchorPoint: "Anchor-3" 364.42 357 basechar 0
AnchorPoint: "Anchor-2" 704.84 714 basechar 0
AnchorPoint: "Anchor-1" 429.84 714 basechar 0
AnchorPoint: "Anchor-0" 265 0 basechar 0
LayerCount: 2
Fore
SplineSet
63 0 m 1,0,-1
 138.262695312 326 l 1,1,-1
 75.2626953125 326 l 1,2,-1
 92.34765625 400 l 1,3,-1
 155.34765625 400 l 1,4,-1
 227.83984375 714 l 1,5,-1
 411.83984375 714 l 2,6,7
 534.83984375 714 534.83984375 714 583.79296875 625 c 0,8,9
 610.891180236 575.732686935 610.891180236 575.732686935 610.891180236 501.337740085 c 0,10,11
 610.891180236 441.340331077 610.891180236 441.340331077 593.266601562 365 c 0,12,13
 551.7109375 185 551.7109375 185 458.85546875 92.5 c 128,-1,14
 366 0 366 0 230 0 c 2,15,-1
 63 0 l 1,0,-1
243.0078125 78 m 2,16,17
 344.0078125 78 344.0078125 78 408.24609375 150.5 c 128,-1,18
 472.483398438 223 472.483398438 223 505.266601562 365 c 0,19,20
 522.118602403 437.993820635 522.118602403 437.993820635 522.118602403 490.303233621 c 0,21,22
 522.118602403 541.188247294 522.118602403 541.188247294 506.171875 572.5 c 0,23,24
 473.83203125 636 473.83203125 636 376.83203125 636 c 2,25,-1
 293.83203125 636 l 1,26,-1
 239.34765625 400 l 1,27,-1
 381.34765625 400 l 1,28,-1
 364.262695312 326 l 1,29,-1
 222.262695312 326 l 1,30,-1
 165.0078125 78 l 1,31,-1
 243.0078125 78 l 2,16,17
EndSplineSet
Validated: 524289
Substitution2: "'c2sc' Capitals to Small Capitals lookup 34 subtable" eth.sc
Substitution2: "'aalt' Access All Alternates lookup 0 subtable" eth.sc
EndChar

StartChar: multiply
Encoding: 215 215 153
Width: 530
Flags: W
LayerCount: 2
Fore
SplineSet
156.938476562 160 m 1,0,-1
 121.020507812 208 l 1,1,-1
 297.49609375 353 l 1,2,-1
 186.741210938 497 l 1,3,-1
 245.823242188 545 l 1,4,-1
 356.578125 401 l 1,5,-1
 536.053710938 546 l 1,6,-1
 574.203125 499 l 1,7,-1
 394.49609375 353 l 1,8,-1
 504.020507812 208 l 1,9,-1
 446.169921875 161 l 1,10,-1
 334.415039062 305 l 1,11,-1
 156.938476562 160 l 1,0,-1
EndSplineSet
Validated: 524289
EndChar

StartChar: Oslash
Encoding: 216 216 154
Width: 530
GlyphClass: 2
Flags: W
AnchorPoint: "Anchor-3" 347.42 357 basechar 0
AnchorPoint: "Anchor-2" 694.84 714 basechar 0
AnchorPoint: "Anchor-1" 429.84 714 basechar 0
AnchorPoint: "Anchor-0" 265 0 basechar 0
LayerCount: 2
Fore
SplineSet
59.99609375 -39 m 1,0,-1
 8.615234375 -6 l 1,1,-1
 101.93359375 108 l 1,2,3
 92.1556841522 145.762961205 92.1556841522 145.762961205 92.1556841522 192.434968052 c 0,4,5
 92.1556841522 206.32305137 92.1556841522 206.32305137 93.021484375 221 c 0,6,7
 96.7978515625 285 96.7978515625 285 113.650390625 358 c 0,8,9
 154.052734375 533 154.052734375 533 233.331054688 629.5 c 128,-1,10
 312.610351562 726 312.610351562 726 432.610351562 726 c 0,11,12
 478.610351562 726 478.610351562 726 510.647460938 711 c 128,-1,13
 542.684570312 696 542.684570312 696 563.451171875 669 c 1,14,-1
 630.151367188 750 l 1,15,-1
 680.301757812 716 l 1,16,-1
 592.598632812 609 l 1,17,18
 602.682812428 570.054202863 602.682812428 570.054202863 602.682812428 521.63250955 c 0,19,20
 602.682812428 509.132020066 602.682812428 509.132020066 602.010742188 496 c 0,21,22
 598.735351562 432 598.735351562 432 581.650390625 358 c 0,23,24
 557.409179688 253 557.409179688 253 515.131835938 169.5 c 128,-1,25
 472.854492188 86 472.854492188 86 410.7734375 38 c 128,-1,26
 348.69140625 -10 348.69140625 -10 262.69140625 -10 c 0,27,28
 216.69140625 -10 216.69140625 -10 184.154296875 5 c 128,-1,29
 151.6171875 20 151.6171875 20 130.850585938 47 c 1,30,-1
 59.99609375 -39 l 1,0,-1
200.650390625 358 m 0,31,32
 179.411132812 266 179.411132812 266 179.635742188 202 c 1,33,-1
 502.366210938 595 l 1,34,35
 479.064453125 650 479.064453125 650 416.064453125 650 c 0,36,37
 336.064453125 650 336.064453125 650 284.518554688 574 c 128,-1,38
 232.97265625 498 232.97265625 498 200.650390625 358 c 0,31,32
281.467773438 67 m 0,39,40
 357.467773438 67 357.467773438 67 409.66796875 141.5 c 128,-1,41
 461.8671875 216 461.8671875 216 494.650390625 358 c 0,42,43
 516.352539062 452 516.352539062 452 516.127929688 516 c 1,44,-1
 193.396484375 123 l 1,45,46
 216.467773438 67 216.467773438 67 281.467773438 67 c 0,39,40
EndSplineSet
Validated: 524321
Substitution2: "'c2sc' Capitals to Small Capitals lookup 34 subtable" oslash.sc
Substitution2: "'aalt' Access All Alternates lookup 0 subtable" oslash.sc
EndChar

StartChar: Thorn
Encoding: 222 222 160
Width: 530
GlyphClass: 2
Flags: W
AnchorPoint: "Anchor-1" 429.84 714 basechar 0
AnchorPoint: "Anchor-0" 265 0 basechar 0
LayerCount: 2
Fore
SplineSet
74 0 m 1,0,-1
 238.83984375 714 l 1,1,-1
 322.83984375 714 l 1,2,-1
 294.443359375 591 l 1,3,-1
 400.443359375 591 l 2,4,5
 513.443359375 591 513.443359375 591 553.360351562 536.5 c 0,6,7
 578.651156941 501.970465149 578.651156941 501.970465149 578.651156941 449.176764198 c 0,8,9
 578.651156941 418.643055319 578.651156941 418.643055319 570.19140625 382 c 0,10,11
 555.416015625 318 555.416015625 318 521.026367188 266.5 c 128,-1,12
 486.63671875 215 486.63671875 215 429.594726562 184.5 c 128,-1,13
 372.553710938 154 372.553710938 154 288.553710938 154 c 2,14,-1
 193.553710938 154 l 1,15,-1
 158 0 l 1,16,-1
 74 0 l 1,0,-1
298.330078125 231 m 2,17,18
 373.330078125 231 373.330078125 231 418.064453125 264.5 c 128,-1,19
 462.798828125 298 462.798828125 298 481.037109375 377 c 0,20,21
 487.290299501 404.085912307 487.290299501 404.085912307 487.290299501 425.778497037 c 0,22,23
 487.290299501 459.346681427 487.290299501 459.346681427 472.31640625 480 c 0,24,25
 447.666015625 514 447.666015625 514 378.666015625 514 c 2,26,-1
 276.666015625 514 l 1,27,-1
 211.330078125 231 l 1,28,-1
 298.330078125 231 l 2,17,18
EndSplineSet
Validated: 1572865
Substitution2: "'c2sc' Capitals to Small Capitals lookup 34 subtable" thorn.sc
Substitution2: "'aalt' Access All Alternates lookup 0 subtable" thorn.sc
EndChar

StartChar: germandbls
Encoding: 223 223 161
Width: 530
GlyphClass: 2
Flags: W
AnchorPoint: "Anchor-1" 441.614 765 basechar 0
AnchorPoint: "Anchor-0" 265 0 basechar 0
LayerCount: 2
Fore
SplineSet
329.69140625 -10 m 0,0,1
 298.69140625 -10 298.69140625 -10 271.307617188 -3 c 128,-1,2
 243.923828125 4 243.923828125 4 225.38671875 19 c 1,3,-1
 243.85546875 99 l 1,4,5
 261.624023438 85 261.624023438 85 286.083984375 74 c 128,-1,6
 310.544921875 63 310.544921875 63 340.544921875 63 c 0,7,8
 381.544921875 63 381.544921875 63 406.124023438 85 c 128,-1,9
 430.703125 107 430.703125 107 439.9375 147 c 0,10,11
 443.589135974 162.816168636 443.589135974 162.816168636 443.589135974 175.947196378 c 0,12,13
 443.589135974 194.364836692 443.589135974 194.364836692 436.405273438 207.5 c 0,14,15
 424.099609375 230 424.099609375 230 393.94921875 264 c 0,16,17
 366.106445312 295 366.106445312 295 348.994140625 327 c 0,18,19
 338.434984521 346.745615888 338.434984521 346.745615888 338.434984521 371.82175019 c 0,20,21
 338.434984521 387.38432284 338.434984521 387.38432284 342.501953125 405 c 0,22,23
 351.505859375 444 351.505859375 444 373.162109375 468.5 c 128,-1,24
 394.818359375 493 394.818359375 493 419.935546875 513 c 128,-1,25
 445.052734375 533 445.052734375 533 466.247070312 555.5 c 128,-1,26
 487.44140625 578 487.44140625 578 495.522460938 613 c 0,27,28
 498.292061779 624.996396877 498.292061779 624.996396877 498.292061779 635.242366106 c 0,29,30
 498.292061779 658.305798359 498.292061779 658.305798359 484.258789062 672.5 c 0,31,32
 463.991210938 693 463.991210938 693 419.991210938 693 c 0,33,34
 371.991210938 693 371.991210938 693 339.912109375 664.5 c 128,-1,35
 307.83203125 636 307.83203125 636 293.518554688 574 c 2,36,-1
 161 0 l 1,37,-1
 78 0 l 1,38,-1
 213.51953125 587 l 2,39,40
 233.143554688 672 233.143554688 672 292.37890625 718.5 c 128,-1,41
 351.614257812 765 351.614257812 765 439.614257812 765 c 0,42,43
 520.614257812 765 520.614257812 765 560.225585938 726.5 c 0,44,45
 588.476011288 699.042163379 588.476011288 699.042163379 588.476011288 656.070783054 c 0,46,47
 588.476011288 638.78985125 588.476011288 638.78985125 583.907226562 619 c 0,48,49
 573.98046875 576 573.98046875 576 551.630859375 548.5 c 128,-1,50
 529.282226562 521 529.282226562 521 504.049804688 500.5 c 128,-1,51
 478.81640625 480 478.81640625 480 457.96875 459 c 128,-1,52
 437.120117188 438 437.120117188 438 430.194335938 408 c 0,53,54
 428.341593111 399.974891289 428.341593111 399.974891289 428.341593111 392.482033568 c 0,55,56
 428.341593111 379.434001964 428.341593111 379.434001964 433.959960938 368 c 0,57,58
 442.803710938 350 442.803710938 350 468.416015625 318 c 0,59,60
 493.028320312 286 493.028320312 286 508.372070312 261.5 c 128,-1,61
 523.715820312 237 523.715820312 237 528.212890625 211 c 0,62,63
 529.764452364 202.031528495 529.764452364 202.031528495 529.764452364 191.754228156 c 0,64,65
 529.764452364 172.237175167 529.764452364 172.237175167 524.168945312 148 c 0,66,67
 506.391601562 71 506.391601562 71 455.041015625 30.5 c 128,-1,68
 403.69140625 -10 403.69140625 -10 329.69140625 -10 c 0,0,1
EndSplineSet
Validated: 1572865
Substitution2: "'smcp' Lowercase to Small Capitals lookup 35 subtable" germandbls.sc
Substitution2: "'aalt' Access All Alternates lookup 0 subtable" germandbls.sc
EndChar

StartChar: ae
Encoding: 230 230 168
Width: 530
GlyphClass: 2
Flags: W
AnchorPoint: "Anchor-1" 388.745 536 basechar 0
AnchorPoint: "Anchor-0" 265 0 basechar 0
LayerCount: 2
Fore
SplineSet
132.69140625 -10 m 0,0,1
 79.69140625 -10 79.69140625 -10 56.310546875 29.5 c 0,2,3
 43.1759229947 51.6898449049 43.1759229947 51.6898449049 43.1759229947 86.3452396047 c 0,4,5
 43.1759229947 113.37968981 43.1759229947 113.37968981 51.1689453125 148 c 0,6,7
 70.099609375 230 70.099609375 230 117.642578125 273.5 c 128,-1,8
 165.185546875 317 165.185546875 317 233.877929688 320 c 2,9,-1
 294.5703125 323 l 1,10,-1
 302.419921875 357 l 2,11,12
 310.890675547 393.691296275 310.890675547 393.691296275 310.890675547 417.892957187 c 0,13,14
 310.890675547 435.905839112 310.890675547 435.905839112 306.198242188 447 c 0,15,16
 295.200195312 473 295.200195312 473 261.200195312 473 c 0,17,18
 239.200195312 473 239.200195312 473 213.891601562 463 c 128,-1,19
 188.583007812 453 188.583007812 453 167.658203125 436 c 1,20,-1
 153.203125 499 l 1,21,22
 180.8203125 519 180.8203125 519 216.9375 532.5 c 128,-1,23
 253.053710938 546 253.053710938 546 286.053710938 546 c 0,24,25
 326.053710938 546 326.053710938 546 350.66796875 527 c 128,-1,26
 375.28125 508 375.28125 508 381.123046875 464 c 1,27,28
 404.895507812 502 404.895507812 502 436.474609375 524 c 128,-1,29
 468.053710938 546 468.053710938 546 507.053710938 546 c 0,30,31
 570.053710938 546 570.053710938 546 590.625 483.5 c 0,32,33
 599.604980985 456.215591387 599.604980985 456.215591387 599.604980985 418.92592324 c 0,34,35
 599.604980985 370.796688152 599.604980985 370.796688152 584.645507812 306 c 2,36,-1
 572.178710938 252 l 1,37,-1
 358.178710938 252 l 1,38,39
 345.541049624 193.807905721 345.541049624 193.807905721 345.541049624 155.950252194 c 0,40,41
 345.541049624 146.316768966 345.541049624 146.316768966 346.359375 138 c 0,42,43
 350.39453125 97 350.39453125 97 369.969726562 80 c 128,-1,44
 389.544921875 63 389.544921875 63 419.544921875 63 c 0,45,46
 444.544921875 63 444.544921875 63 469.23828125 72.5 c 128,-1,47
 493.931640625 82 493.931640625 82 524.010742188 104 c 1,48,-1
 506.002929688 26 l 1,49,50
 476.384765625 6 476.384765625 6 450.538085938 -2 c 128,-1,51
 424.69140625 -10 424.69140625 -10 395.69140625 -10 c 0,52,53
 351.69140625 -10 351.69140625 -10 320.84765625 14.5 c 128,-1,54
 290.00390625 39 290.00390625 39 284.548828125 102 c 1,55,56
 251.234375 40 251.234375 40 214.462890625 15 c 128,-1,57
 177.69140625 -10 177.69140625 -10 132.69140625 -10 c 0,0,1
513.33984375 322 m 1,58,59
 525.509279287 374.712743382 525.509279287 374.712743382 525.509279287 409.023941632 c 0,60,61
 525.509279287 473 525.509279287 473 483.200195312 473 c 0,62,63
 416.200195312 473 416.200195312 473 376.33984375 322 c 1,64,-1
 513.33984375 322 l 1,58,59
162.544921875 63 m 0,65,66
 192.544921875 63 192.544921875 63 221.278320312 96.5 c 128,-1,67
 250.012695312 130 250.012695312 130 269.40625 214 c 2,68,-1
 279.564453125 258 l 1,69,-1
 243.102539062 256 l 2,70,71
 199.409179688 253 199.409179688 253 169.022460938 227.5 c 128,-1,72
 138.635742188 202 138.635742188 202 126.168945312 148 c 0,73,74
 121.322386373 127.008418468 121.322386373 127.008418468 121.322386373 111.456917124 c 0,75,76
 121.322386373 93.670408208 121.322386373 93.670408208 127.662109375 83 c 0,77,78
 139.544921875 63 139.544921875 63 162.544921875 63 c 0,65,66
EndSplineSet
Validated: 1572865
Substitution2: "'smcp' Lowercase to Small Capitals lookup 35 subtable" ae.sc
Substitution2: "'aalt' Access All Alternates lookup 0 subtable" ae.sc
EndChar

StartChar: eth
Encoding: 240 240 178
Width: 530
GlyphClass: 2
Flags: W
AnchorPoint: "Anchor-3" 326.873 268 basechar 0
AnchorPoint: "Anchor-2" 685.46 760 basechar 0
AnchorPoint: "Anchor-1" 441.614 765 basechar 0
AnchorPoint: "Anchor-0" 265 0 basechar 0
LayerCount: 2
Fore
SplineSet
264.69140625 -10 m 0,0,1
 197.69140625 -10 197.69140625 -10 154.848632812 21 c 128,-1,2
 112.004882812 52 112.004882812 52 97.087890625 106.5 c 0,3,4
 90.0319135799 132.27768833 90.0319135799 132.27768833 90.0319135799 161.97038761 c 0,5,6
 90.0319135799 195.054927702 90.0319135799 195.054927702 98.7919921875 233 c 0,7,8
 124.880859375 346 124.880859375 346 196.65625 410 c 128,-1,9
 268.431640625 474 268.431640625 474 364.431640625 474 c 0,10,11
 409.431640625 474 409.431640625 474 440.930664062 461 c 128,-1,12
 472.428710938 448 472.428710938 448 486.96484375 420 c 1,13,-1
 491.426757812 422 l 1,14,15
 489.35546875 478 489.35546875 478 470.436523438 526 c 128,-1,16
 451.518554688 574 451.518554688 574 419.752929688 614 c 1,17,-1
 295.515625 548 l 1,18,-1
 273.213867188 603 l 1,19,-1
 379.142578125 659 l 1,20,21
 351.14453125 685 351.14453125 685 317.685546875 709 c 1,22,-1
 366.3828125 764 l 1,23,24
 415.918945312 736 415.918945312 736 454.146484375 698 c 1,25,-1
 579.3828125 764 l 1,26,-1
 601.916015625 710 l 1,27,-1
 492.526367188 652 l 1,28,29
 545.44140625 578 545.44140625 578 559.81640625 480 c 0,30,31
 564.923323275 445.184148284 564.923323275 445.184148284 564.923323275 408.475111129 c 0,32,33
 564.923323275 341.855191389 564.923323275 341.855191389 548.103515625 269 c 0,34,35
 516.244140625 131 516.244140625 131 442.467773438 60.5 c 128,-1,36
 368.69140625 -10 368.69140625 -10 264.69140625 -10 c 0,0,1
283.083007812 61 m 0,37,38
 351.083007812 61 351.083007812 61 393.048828125 108.5 c 128,-1,39
 435.015625 156 435.015625 156 456.024414062 247 c 0,40,41
 462.090092874 273.273815524 462.090092874 273.273815524 462.090092874 297.003959289 c 0,42,43
 462.090092874 311.207629788 462.090092874 311.207629788 459.916992188 324.5 c 0,44,45
 454.112304688 360 454.112304688 360 430.576171875 381.5 c 128,-1,46
 407.040039062 403 407.040039062 403 362.040039062 403 c 0,47,48
 290.040039062 403 290.040039062 403 246.766601562 358.5 c 128,-1,49
 203.4921875 314 203.4921875 314 184.099609375 230 c 0,50,51
 176.909118136 198.853737261 176.909118136 198.853737261 176.909118136 172.105064711 c 0,52,53
 176.909118136 137.019531349 176.909118136 137.019531349 189.280273438 109.5 c 0,54,55
 211.083007812 61 211.083007812 61 283.083007812 61 c 0,37,38
EndSplineSet
Validated: 524289
Substitution2: "'smcp' Lowercase to Small Capitals lookup 35 subtable" eth.sc
Substitution2: "'aalt' Access All Alternates lookup 0 subtable" eth.sc
EndChar

StartChar: divide
Encoding: 247 247 185
Width: 530
Flags: W
LayerCount: 2
Fore
SplineSet
373.815429688 467 m 0,0,1
 349.815429688 467 349.815429688 467 339.278320312 482 c 0,2,3
 333.08407296 490.817760828 333.08407296 490.817760828 333.08407296 505.510185667 c 0,4,5
 333.08407296 515.8112231 333.08407296 515.8112231 336.12890625 529 c 0,6,7
 350.211914062 590 350.211914062 590 402.211914062 590 c 0,8,9
 426.211914062 590 426.211914062 590 436.249023438 575 c 0,10,11
 442.108136867 566.243823479 442.108136867 566.243823479 442.108136867 552.035513464 c 0,12,13
 442.108136867 541.903901857 442.108136867 541.903901857 439.12890625 529 c 0,14,15
 431.741210938 497 431.741210938 497 413.778320312 482 c 128,-1,16
 395.815429688 467 395.815429688 467 373.815429688 467 c 0,0,1
143.416015625 318 m 1,17,-1
 159.345703125 387 l 1,18,-1
 549.345703125 387 l 1,19,-1
 533.416015625 318 l 1,20,-1
 143.416015625 318 l 1,17,-1
292.549804688 115 m 0,21,22
 268.549804688 115 268.549804688 115 258.012695312 130 c 0,23,24
 251.73776788 138.932612175 251.73776788 138.932612175 251.73776788 153.539290858 c 0,25,26
 251.73776788 163.460731828 251.73776788 163.460731828 254.6328125 176 c 0,27,28
 268.946289062 238 268.946289062 238 320.946289062 238 c 0,29,30
 344.946289062 238 344.946289062 238 354.983398438 223 c 0,31,32
 360.765016448 214.359636832 360.765016448 214.359636832 360.765016448 200.078607503 c 0,33,34
 360.765016448 189.567225242 360.765016448 189.567225242 357.6328125 176 c 0,35,36
 350.475585938 145 350.475585938 145 332.512695312 130 c 128,-1,37
 314.549804688 115 314.549804688 115 292.549804688 115 c 0,21,22
EndSplineSet
Validated: 524289
EndChar

StartChar: oslash
Encoding: 248 248 186
Width: 530
GlyphClass: 2
Flags: W
AnchorPoint: "Anchor-3" 326.873 268 basechar 0
AnchorPoint: "Anchor-2" 633.745 536 basechar 0
AnchorPoint: "Anchor-1" 388.745 536 basechar 0
AnchorPoint: "Anchor-0" 265 0 basechar 0
LayerCount: 2
Fore
SplineSet
106.611328125 -45 m 1,0,-1
 60.4609375 -11 l 1,1,-1
 120.852539062 60 l 1,2,3
 98.9326171875 95 98.9326171875 95 95.1689453125 148 c 0,4,5
 94.4493182125 158.131154857 94.4493182125 158.131154857 94.4493182125 168.846946517 c 0,6,7
 94.4493182125 214.189616701 94.4493182125 214.189616701 107.333984375 270 c 0,8,9
 138.270507812 404 138.270507812 404 213.77734375 475.5 c 128,-1,10
 289.28515625 547 289.28515625 547 389.28515625 547 c 0,11,12
 463.28515625 547 463.28515625 547 507.28125 508 c 1,13,-1
 563.287109375 573 l 1,14,-1
 611.668945312 540 l 1,15,-1
 541.96875 459 l 1,16,17
 558.119140625 425 558.119140625 425 559.921875 376.5 c 0,18,19
 560.126451606 370.996157866 560.126451606 370.996157866 560.126451606 365.331340717 c 0,20,21
 560.126451606 321.077641852 560.126451606 321.077641852 547.641601562 267 c 0,22,23
 516.705078125 133 516.705078125 133 440.198242188 61.5 c 128,-1,24
 363.69140625 -10 363.69140625 -10 263.69140625 -10 c 0,25,26
 201.69140625 -10 201.69140625 -10 161.155273438 18 c 1,27,-1
 106.611328125 -45 l 1,0,-1
193.103515625 269 m 0,28,29
 181.405095845 218.328707881 181.405095845 218.328707881 181.405095845 179.584045903 c 0,30,31
 181.405095845 154.864627734 181.405095845 154.864627734 186.166992188 135 c 1,32,-1
 450.043945312 442 l 1,33,34
 425.662109375 475 425.662109375 475 373.662109375 475 c 0,35,36
 308.662109375 475 308.662109375 475 262.541992188 422.5 c 128,-1,37
 216.420898438 370 216.420898438 370 193.103515625 269 c 0,28,29
279.313476562 62 m 0,38,39
 344.313476562 62 344.313476562 62 390.549804688 115 c 128,-1,40
 436.786132812 168 436.786132812 168 459.873046875 268 c 0,41,42
 471.746408897 319.429785426 471.746408897 319.429785426 471.746408897 358.590177846 c 0,43,44
 471.746408897 368.161567878 471.746408897 368.161567878 471.037109375 377 c 1,45,-1
 215.700195312 81 l 1,46,47
 240.313476562 62 240.313476562 62 279.313476562 62 c 0,38,39
EndSplineSet
Validated: 524289
Substitution2: "'smcp' Lowercase to Small Capitals lookup 35 subtable" oslash.sc
Substitution2: "'aalt' Access All Alternates lookup 0 subtable" oslash.sc
EndChar

StartChar: thorn
Encoding: 254 254 192
Width: 530
GlyphClass: 2
Flags: W
AnchorPoint: "Anchor-1" 460.46 760 basechar 0
AnchorPoint: "Anchor-0" 229.592 -240 basechar 0
LayerCount: 2
Fore
SplineSet
10.591796875 -240 m 1,0,-1
 241.459960938 760 l 1,1,-1
 325.459960938 760 l 1,2,-1
 276.515625 548 l 2,3,4
 270.744140625 523 270.744140625 523 265.857421875 504 c 128,-1,5
 260.970703125 485 260.970703125 485 254.123046875 464 c 1,6,-1
 258.123046875 464 l 1,7,8
 287.203125 499 287.203125 499 328.244140625 523 c 128,-1,9
 369.28515625 547 369.28515625 547 422.28515625 547 c 0,10,11
 510.28515625 547 510.28515625 547 545.008789062 476.5 c 0,12,13
 563.180372136 439.60591655 563.180372136 439.60591655 563.180372136 384.49986576 c 0,14,15
 563.180372136 334.305114431 563.180372136 334.305114431 548.103515625 269 c 256,16,17
 516.474609375 132 516.474609375 132 447.583007812 61 c 128,-1,18
 378.69140625 -10 378.69140625 -10 292.69140625 -10 c 0,19,20
 240.69140625 -10 240.69140625 -10 211.1171875 13.5 c 128,-1,21
 181.541992188 37 181.541992188 37 165.69921875 68 c 1,22,-1
 160.69921875 68 l 1,23,24
 159.08203125 48 159.08203125 48 155.580078125 28.5 c 128,-1,25
 152.078125 9 152.078125 9 147.4609375 -11 c 2,26,-1
 94.591796875 -240 l 1,27,-1
 10.591796875 -240 l 1,0,-1
290.544921875 63 m 0,28,29
 351.544921875 63 351.544921875 63 394.280273438 116 c 128,-1,30
 437.016601562 169 437.016601562 169 460.333984375 270 c 0,31,32
 473.374665082 326.484739924 473.374665082 326.484739924 473.374665082 367.329647278 c 0,33,34
 473.374665082 474 473.374665082 474 384.431640625 474 c 0,35,36
 317.431640625 474 317.431640625 474 277.234375 425.5 c 128,-1,37
 237.037109375 377 237.037109375 377 216.720703125 289 c 2,38,-1
 212.103515625 269 l 2,39,40
 199.182033373 213.031702899 199.182033373 213.031702899 199.182033373 171.212532901 c 0,41,42
 199.182033373 140.553894928 199.182033373 140.553894928 206.126953125 117.5 c 0,43,44
 222.544921875 63 222.544921875 63 290.544921875 63 c 0,28,29
EndSplineSet
Validated: 1572865
Substitution2: "'smcp' Lowercase to Small Capitals lookup 35 subtable" thorn.sc
Substitution2: "'aalt' Access All Alternates lookup 0 subtable" thorn.sc
EndChar

